{
.appVersion = "1283";
DisplayStrings = (
"/a-hira/i-hira/u-hira/e-hira/o-hira \012/asmall-hira/ismall-hira/usmall-hira/esmall-hira/osmall-hira \012/ka-hira/ki-hira/ku-hira/ke-hira/ko-hira \012/ga-hira/gi-hira/gu-hira/ge-hira/go-hira \012/sa-hira/si-hira/su-hira/se-hira/so-hira \012/za-hira/zi-hira/zu-hira/ze-hira/zo-hira \012/ta-hira/ti-hira/tu-hira/te-hira/to-hira \012/da-hira/di-hira/du-hira/de-hira/do-hira \012/na-hira/ni-hira/nu-hira/ne-hira/no-hira \012/ha-hira/hi-hira/hu-hira/he-hira/ho-hira \012/ba-hira/bi-hira/bu-hira/be-hira/bo-hira \012/pa-hira/pi-hira/pu-hira/pe-hira/po-hira \012/ma-hira/mi-hira/mu-hira/me-hira/mo-hira \012/ya-hira/yu-hira/yo-hira/prolonged-kana \012/yasmall-hira/yusmall-hira/yosmall-hira \012/ra-hira/ri-hira/a-hira/ru-hira/re-hira/ro-hira \012/wa-hira/wi-hira/wo-hira/we-hira/n-hira \012/yasmall-hira/tusmall-hira/wasmall-hira/yusmall-hira \012/si-hira/ma-hira/tusmall-hira/ta-hira/period-han \012/a-hira/ri-hira/ga-hira/to-hira/u-hira/go-hira/za-hira/i-hira/ma-hira/su-hira/period-han \012/ko-hira/n-hira/ni-hira/ti-hira/ha-hira \012/sa-hira/yo-hira/u-hira/na-hira/ra-hira \012/a-hira/ta-hira/ra-hira/si-hira/i-hira/a-hira/sa-hira/ga-hira/ki-hira/ta-hira \012/ki-hira/bo-hira/u-hira/no-hira/a-hira/sa-hira/da-hira \012/yo-hira/ro-hira/ko-hira/bi-hira/ni-hira/mu-hira/ne-hira/wo-hira/hi-hira/ra-hira/ke-hira \012/o-hira/o-hira/zo-hira/ra-hira/a-hira/o-hira/ge-hira \012/ra-hira/zi-hira/o-hira/no-hira/ko-hira/e-hira/ni-hira \012/su-hira/ko-hira/ya-hira/ka-hira/na-hira/mu-hira/ne-hira/wo-hira \012/ko-hira/no-hira/ka-hira/o-hira/ru-hira/ka-hira/ze-hira/ni-hira/hi-hira/ra-hira/ke-hira/yo-hira",

glyphs = (
{
glyphname = A;
layers = (
{
layerId = "F0262224-B9C7-46EB-9294-168F9DBDA589";
paths = (
{
closed = 1;
nodes = (
"399 795 LINE SMOOTH",
"392 815 OFFCURVE",
"376 817 OFFCURVE",
"368 796 CURVE SMOOTH",
"61 24 LINE SMOOTH",
"56 10 OFFCURVE",
"66 -3 OFFCURVE",
"79 -3 CURVE SMOOTH",
"88 -3 OFFCURVE",
"95 2 OFFCURVE",
"98 9 CURVE SMOOTH",
"378 711 LINE",
"387 742 OFFCURVE",
"388 765 OFFCURVE",
"381 765 CURVE SMOOTH",
"377 765 OFFCURVE",
"378 743 OFFCURVE",
"385 711 CURVE",
"650 10 LINE",
"653 3 OFFCURVE",
"660 -3 OFFCURVE",
"669 -3 CURVE SMOOTH",
"683 -3 OFFCURVE",
"693 11 OFFCURVE",
"688 24 CURVE SMOOTH"
);
},
{
closed = 1;
nodes = (
"229 390 LINE",
"215 350 LINE",
"539 350 LINE",
"519 390 LINE"
);
}
);
width = 749;
},
{
layerId = "2E7D65B2-411D-4607-BF7C-7C0096008F1D";
paths = (
{
closed = 1;
nodes = (
"467 772 LINE SMOOTH",
"443 830 OFFCURVE",
"376 831 OFFCURVE",
"352 773 CURVE SMOOTH",
"65 80 LINE SMOOTH",
"47 37 OFFCURVE",
"80 -8 OFFCURVE",
"125 -8 CURVE SMOOTH",
"152 -8 OFFCURVE",
"176 8 OFFCURVE",
"186 32 CURVE SMOOTH",
"415 591 LINE",
"428 635 OFFCURVE",
"437 693 OFFCURVE",
"408 693 CURVE SMOOTH",
"380 693 OFFCURVE",
"387 631 OFFCURVE",
"399 591 CURVE",
"634 33 LINE SMOOTH",
"644 8 OFFCURVE",
"669 -8 OFFCURVE",
"695 -8 CURVE SMOOTH",
"741 -8 OFFCURVE",
"774 38 OFFCURVE",
"756 81 CURVE SMOOTH"
);
},
{
closed = 1;
nodes = (
"223 399 LINE",
"178 269 LINE",
"637 269 LINE",
"572 399 LINE"
);
}
);
width = 821;
}
);
leftKerningGroup = A;
leftMetricsKey = "=H-20";
rightKerningGroup = A;
rightMetricsKey = "=|";
unicode = 0041;
},
{
glyphname = AE;
layers = (
{
layerId = "F0262224-B9C7-46EB-9294-168F9DBDA589";
paths = (
{
closed = 1;
nodes = (
"266 362 LINE",
"244 322 LINE",
"473 322 LINE",
"473 362 LINE"
);
},
{
closed = 1;
nodes = (
"481 467 LINE",
"481 427 LINE",
"691 427 LINE SMOOTH",
"702 427 OFFCURVE",
"711 436 OFFCURVE",
"711 447 CURVE SMOOTH",
"711 458 OFFCURVE",
"702 467 OFFCURVE",
"691 467 CURVE SMOOTH"
);
},
{
closed = 1;
nodes = (
"43 10 OFFCURVE",
"56 -3 OFFCURVE",
"69 -3 CURVE SMOOTH",
"78 -3 OFFCURVE",
"84 2 OFFCURVE",
"88 9 CURVE SMOOTH",
"448 670 LINE",
"462 703 OFFCURVE",
"472 731 OFFCURVE",
"467 734 CURVE SMOOTH",
"461 738 OFFCURVE",
"454 700 OFFCURVE",
"454 663 CURVE",
"454 25 LINE SMOOTH",
"454 10 OFFCURVE",
"463 1 OFFCURVE",
"478 1 CURVE SMOOTH",
"753 1 LINE SMOOTH",
"764 1 OFFCURVE",
"773 10 OFFCURVE",
"773 21 CURVE SMOOTH",
"773 32 OFFCURVE",
"764 41 OFFCURVE",
"753 41 CURVE SMOOTH",
"494 41 LINE",
"494 760 LINE",
"733 760 LINE SMOOTH",
"744 760 OFFCURVE",
"753 769 OFFCURVE",
"753 780 CURVE SMOOTH",
"753 791 OFFCURVE",
"744 800 OFFCURVE",
"733 800 CURVE SMOOTH",
"478 800 LINE SMOOTH",
"465 800 OFFCURVE",
"461 796 OFFCURVE",
"455 785 CURVE SMOOTH",
"51 24 LINE SMOOTH"
);
}
);
width = 823;
},
{
layerId = "2E7D65B2-411D-4607-BF7C-7C0096008F1D";
paths = (
{
closed = 1;
nodes = (
"271 340 LINE",
"200 210 LINE",
"550 210 LINE",
"550 340 LINE"
);
},
{
closed = 1;
nodes = (
"468 512 LINE",
"468 382 LINE",
"723 382 LINE SMOOTH",
"759 382 OFFCURVE",
"788 411 OFFCURVE",
"788 447 CURVE SMOOTH",
"788 483 OFFCURVE",
"759 512 OFFCURVE",
"723 512 CURVE SMOOTH"
);
},
{
closed = 1;
nodes = (
"19 24 OFFCURVE",
"52 -28 OFFCURVE",
"101 -28 CURVE SMOOTH",
"125 -28 OFFCURVE",
"146 -15 OFFCURVE",
"159 6 CURVE SMOOTH",
"456 520 LINE",
"494 603 OFFCURVE",
"530 701 OFFCURVE",
"500 714 CURVE SMOOTH",
"464 729 OFFCURVE",
"441 601 OFFCURVE",
"441 527 CURVE SMOOTH",
"441 55 LINE SMOOTH",
"441 15 OFFCURVE",
"470 -14 OFFCURVE",
"510 -14 CURVE SMOOTH",
"785 -14 LINE SMOOTH",
"821 -14 OFFCURVE",
"850 15 OFFCURVE",
"850 51 CURVE SMOOTH",
"850 87 OFFCURVE",
"821 116 OFFCURVE",
"785 116 CURVE SMOOTH",
"571 116 LINE",
"571 685 LINE",
"765 685 LINE SMOOTH",
"801 685 OFFCURVE",
"830 714 OFFCURVE",
"830 750 CURVE SMOOTH",
"830 786 OFFCURVE",
"801 815 OFFCURVE",
"765 815 CURVE SMOOTH",
"510 815 LINE SMOOTH",
"482 815 OFFCURVE",
"464 803 OFFCURVE",
"448 777 CURVE SMOOTH",
"43 65 LINE SMOOTH"
);
}
);
width = 885;
}
);
leftKerningGroup = A;
unicode = 00C6;
},
{
glyphname = B;
layers = (
{
layerId = "F0262224-B9C7-46EB-9294-168F9DBDA589";
paths = (
{
closed = 1;
nodes = (
"177 1 OFFCURVE",
"311 0 OFFCURVE",
"333 0 CURVE SMOOTH",
"487 0 OFFCURVE",
"580 114 OFFCURVE",
"580 234 CURVE SMOOTH",
"580 335 OFFCURVE",
"501 445 OFFCURVE",
"389 455 CURVE",
"389 448 LINE",
"468 475 OFFCURVE",
"514 535 OFFCURVE",
"514 618 CURVE SMOOTH",
"514 738 OFFCURVE",
"431 802 OFFCURVE",
"297 802 CURVE SMOOTH",
"271 802 OFFCURVE",
"121 801 OFFCURVE",
"104 800 CURVE SMOOTH",
"88 799 OFFCURVE",
"80 791 OFFCURVE",
"80 776 CURVE SMOOTH",
"80 24 LINE SMOOTH",
"80 10 OFFCURVE",
"90 0 OFFCURVE",
"104 0 CURVE"
);
},
{
closed = 1;
nodes = (
"120 760 LINE",
"131 761 OFFCURVE",
"272 762 OFFCURVE",
"297 762 CURVE SMOOTH",
"410 762 OFFCURVE",
"474 716 OFFCURVE",
"474 618 CURVE SMOOTH",
"474 515 OFFCURVE",
"411 467 OFFCURVE",
"299 467 CURVE SMOOTH",
"111 467 LINE",
"111 427 LINE",
"346 427 LINE SMOOTH",
"458 427 OFFCURVE",
"540 337 OFFCURVE",
"540 234 CURVE SMOOTH",
"540 136 OFFCURVE",
"466 40 OFFCURVE",
"333 40 CURVE SMOOTH",
"310 40 OFFCURVE",
"151 41 OFFCURVE",
"120 42 CURVE"
);
}
);
width = 620;
},
{
layerId = "2E7D65B2-411D-4607-BF7C-7C0096008F1D";
paths = (
{
closed = 1;
nodes = (
"212 -15 OFFCURVE",
"333 -15 OFFCURVE",
"383 -15 CURVE SMOOTH",
"551 -15 OFFCURVE",
"675 89 OFFCURVE",
"675 244 CURVE SMOOTH",
"675 361 OFFCURVE",
"576 473 OFFCURVE",
"456 488 CURVE",
"456 407 LINE",
"560 455 OFFCURVE",
"609 509 OFFCURVE",
"609 598 CURVE SMOOTH",
"609 727 OFFCURVE",
"501 817 OFFCURVE",
"347 817 CURVE SMOOTH",
"321 817 OFFCURVE",
"170 816 OFFCURVE",
"151 815 CURVE SMOOTH",
"110 813 OFFCURVE",
"80 783 OFFCURVE",
"80 746 CURVE SMOOTH",
"80 54 LINE SMOOTH",
"80 17 OFFCURVE",
"114 -15 OFFCURVE",
"154 -15 CURVE SMOOTH"
);
},
{
closed = 1;
nodes = (
"220 676 LINE",
"233 676 OFFCURVE",
"327 677 OFFCURVE",
"347 677 CURVE SMOOTH",
"431 677 OFFCURVE",
"469 652 OFFCURVE",
"469 598 CURVE SMOOTH",
"469 523 OFFCURVE",
"438 507 OFFCURVE",
"349 507 CURVE SMOOTH",
"116 507 LINE",
"116 382 LINE",
"396 382 LINE SMOOTH",
"480 382 OFFCURVE",
"535 327 OFFCURVE",
"535 244 CURVE SMOOTH",
"535 161 OFFCURVE",
"482 125 OFFCURVE",
"383 125 CURVE SMOOTH",
"377 125 OFFCURVE",
"251 126 OFFCURVE",
"220 126 CURVE"
);
}
);
width = 715;
}
);
leftMetricsKey = "=H";
unicode = 0042;
},
{
glyphname = C;
layers = (
{
layerId = "F0262224-B9C7-46EB-9294-168F9DBDA589";
paths = (
{
closed = 1;
nodes = (
"639 56 OFFCURVE",
"545 30 OFFCURVE",
"441 30 CURVE SMOOTH",
"246 30 OFFCURVE",
"100 179 OFFCURVE",
"100 391 CURVE SMOOTH",
"100 604 OFFCURVE",
"246 763 OFFCURVE",
"441 763 CURVE SMOOTH",
"535 763 OFFCURVE",
"611 740 OFFCURVE",
"677 665 CURVE SMOOTH",
"680 662 OFFCURVE",
"685 660 OFFCURVE",
"690 660 CURVE SMOOTH",
"702 660 OFFCURVE",
"711 669 OFFCURVE",
"711 680 CURVE SMOOTH",
"711 685 OFFCURVE",
"708 690 OFFCURVE",
"703 696 CURVE SMOOTH",
"632 776 OFFCURVE",
"545 803 OFFCURVE",
"441 803 CURVE SMOOTH",
"223 803 OFFCURVE",
"60 626 OFFCURVE",
"60 391 CURVE SMOOTH",
"60 156 OFFCURVE",
"223 -10 OFFCURVE",
"441 -10 CURVE SMOOTH",
"538 -10 OFFCURVE",
"648 24 OFFCURVE",
"715 91 CURVE SMOOTH",
"719 95 OFFCURVE",
"722 101 OFFCURVE",
"722 107 CURVE SMOOTH",
"722 118 OFFCURVE",
"713 127 OFFCURVE",
"702 127 CURVE SMOOTH",
"698 127 OFFCURVE",
"692 125 OFFCURVE",
"690 122 CURVE SMOOTH"
);
}
);
width = 771;
},
{
layerId = "2E7D65B2-411D-4607-BF7C-7C0096008F1D";
paths = (
{
closed = 1;
nodes = (
"658 150 OFFCURVE",
"577 125 OFFCURVE",
"486 125 CURVE SMOOTH",
"317 125 OFFCURVE",
"200 226 OFFCURVE",
"200 401 CURVE SMOOTH",
"200 577 OFFCURVE",
"316 678 OFFCURVE",
"486 678 CURVE SMOOTH",
"567 678 OFFCURVE",
"651 649 OFFCURVE",
"688 605 CURVE SMOOTH",
"699 592 OFFCURVE",
"719 585 OFFCURVE",
"735 585 CURVE SMOOTH",
"772 585 OFFCURVE",
"801 614 OFFCURVE",
"801 650 CURVE SMOOTH",
"801 664 OFFCURVE",
"795 679 OFFCURVE",
"783 696 CURVE",
"720 766 OFFCURVE",
"593 818 OFFCURVE",
"486 818 CURVE SMOOTH",
"243 818 OFFCURVE",
"60 650 OFFCURVE",
"60 401 CURVE SMOOTH",
"60 152 OFFCURVE",
"243 -15 OFFCURVE",
"486 -15 CURVE SMOOTH",
"596 -15 OFFCURVE",
"722 34 OFFCURVE",
"782 99 CURVE SMOOTH",
"794 112 OFFCURVE",
"801 129 OFFCURVE",
"801 145 CURVE SMOOTH",
"801 181 OFFCURVE",
"772 210 OFFCURVE",
"736 210 CURVE SMOOTH",
"718 210 OFFCURVE",
"699 201 OFFCURVE",
"687 186 CURVE SMOOTH"
);
}
);
width = 846;
}
);
leftMetricsKey = "=O";
unicode = 0043;
},
{
glyphname = D;
layers = (
{
layerId = "F0262224-B9C7-46EB-9294-168F9DBDA589";
paths = (
{
closed = 1;
nodes = (
"278 0 LINE SMOOTH",
"515 0 OFFCURVE",
"693 178 OFFCURVE",
"693 415 CURVE SMOOTH",
"693 635 OFFCURVE",
"515 800 OFFCURVE",
"278 800 CURVE SMOOTH",
"104 800 LINE SMOOTH",
"89 800 OFFCURVE",
"80 791 OFFCURVE",
"80 776 CURVE SMOOTH",
"80 24 LINE SMOOTH",
"80 9 OFFCURVE",
"89 0 OFFCURVE",
"104 0 CURVE SMOOTH"
);
},
{
closed = 1;
nodes = (
"120 759 LINE",
"154 759 OFFCURVE",
"188 760 OFFCURVE",
"278 760 CURVE SMOOTH",
"492 760 OFFCURVE",
"653 612 OFFCURVE",
"653 415 CURVE SMOOTH",
"653 201 OFFCURVE",
"492 40 OFFCURVE",
"278 40 CURVE SMOOTH",
"210 40 OFFCURVE",
"154 40 OFFCURVE",
"120 40 CURVE"
);
}
);
width = 753;
},
{
layerId = "2E7D65B2-411D-4607-BF7C-7C0096008F1D";
paths = (
{
closed = 1;
nodes = (
"318 -10 LINE SMOOTH",
"579 -10 OFFCURVE",
"778 178 OFFCURVE",
"778 415 CURVE SMOOTH",
"778 645 OFFCURVE",
"579 810 OFFCURVE",
"318 810 CURVE SMOOTH",
"154 810 LINE SMOOTH",
"112 810 OFFCURVE",
"80 780 OFFCURVE",
"80 741 CURVE SMOOTH",
"80 59 LINE SMOOTH",
"80 20 OFFCURVE",
"112 -10 OFFCURVE",
"154 -10 CURVE SMOOTH"
);
},
{
closed = 1;
nodes = (
"220 670 LINE",
"245 670 OFFCURVE",
"279 670 OFFCURVE",
"318 670 CURVE SMOOTH",
"506 670 OFFCURVE",
"638 570 OFFCURVE",
"638 415 CURVE SMOOTH",
"638 242 OFFCURVE",
"506 130 OFFCURVE",
"318 130 CURVE SMOOTH",
"270 130 OFFCURVE",
"246 130 OFFCURVE",
"220 130 CURVE"
);
}
);
width = 838;
}
);
leftMetricsKey = "=H";
rightMetricsKey = "=O";
unicode = 0044;
},
{
glyphname = Eth;
layers = (
{
components = (
{
name = D;
transform = "{1, 0, 0, 1, 81, 0}";
}
);
layerId = "F0262224-B9C7-46EB-9294-168F9DBDA589";
paths = (
{
closed = 1;
nodes = (
"60 437 LINE SMOOTH",
"49 437 OFFCURVE",
"40 428 OFFCURVE",
"40 417 CURVE SMOOTH",
"40 406 OFFCURVE",
"49 397 OFFCURVE",
"60 397 CURVE SMOOTH",
"310 397 LINE SMOOTH",
"321 397 OFFCURVE",
"330 406 OFFCURVE",
"330 417 CURVE SMOOTH",
"330 428 OFFCURVE",
"321 437 OFFCURVE",
"310 437 CURVE SMOOTH"
);
}
);
width = 834;
},
{
components = (
{
name = D;
transform = "{1, 0, 0, 1, 80, 0}";
}
);
layerId = "2E7D65B2-411D-4607-BF7C-7C0096008F1D";
paths = (
{
closed = 1;
nodes = (
"100 467 LINE SMOOTH",
"72 467 OFFCURVE",
"50 445 OFFCURVE",
"50 417 CURVE SMOOTH",
"50 389 OFFCURVE",
"72 367 OFFCURVE",
"100 367 CURVE SMOOTH",
"350 367 LINE SMOOTH",
"378 367 OFFCURVE",
"400 389 OFFCURVE",
"400 417 CURVE SMOOTH",
"400 445 OFFCURVE",
"378 467 OFFCURVE",
"350 467 CURVE SMOOTH"
);
}
);
width = 918;
}
);
rightMetricsKey = "=D";
unicode = 00D0;
},
{
glyphname = E;
layers = (
{
components = (
{
name = C;
}
);
layerId = "F0262224-B9C7-46EB-9294-168F9DBDA589";
paths = (
{
closed = 1;
nodes = (
"62 436 LINE",
"62 396 LINE",
"509 396 LINE SMOOTH",
"520 396 OFFCURVE",
"529 405 OFFCURVE",
"529 416 CURVE SMOOTH",
"529 427 OFFCURVE",
"520 436 OFFCURVE",
"509 436 CURVE SMOOTH"
);
}
);
width = 771;
},
{
components = (
{
name = C;
}
);
layerId = "2E7D65B2-411D-4607-BF7C-7C0096008F1D";
paths = (
{
closed = 1;
nodes = (
"95 481 LINE",
"95 351 LINE",
"509 351 LINE SMOOTH",
"545 351 OFFCURVE",
"574 380 OFFCURVE",
"574 416 CURVE SMOOTH",
"574 452 OFFCURVE",
"545 481 OFFCURVE",
"509 481 CURVE SMOOTH"
);
}
);
width = 846;
}
);
leftMetricsKey = "=O";
rightMetricsKey = "=C";
unicode = 0045;
},
{
glyphname = F;
layers = (
{
layerId = "F0262224-B9C7-46EB-9294-168F9DBDA589";
paths = (
{
closed = 1;
nodes = (
"120 760 LINE",
"445 760 LINE SMOOTH",
"456 760 OFFCURVE",
"465 769 OFFCURVE",
"465 780 CURVE SMOOTH",
"465 791 OFFCURVE",
"456 800 OFFCURVE",
"445 800 CURVE SMOOTH",
"104 800 LINE SMOOTH",
"89 800 OFFCURVE",
"80 791 OFFCURVE",
"80 776 CURVE SMOOTH",
"80 20 LINE SMOOTH",
"80 9 OFFCURVE",
"89 0 OFFCURVE",
"100 0 CURVE SMOOTH",
"111 0 OFFCURVE",
"120 9 OFFCURVE",
"120 20 CURVE SMOOTH"
);
},
{
closed = 1;
nodes = (
"409 432 LINE SMOOTH",
"420 432 OFFCURVE",
"429 441 OFFCURVE",
"429 452 CURVE SMOOTH",
"429 463 OFFCURVE",
"420 472 OFFCURVE",
"409 472 CURVE SMOOTH",
"95 472 LINE",
"95 432 LINE"
);
}
);
width = 525;
},
{
layerId = "2E7D65B2-411D-4607-BF7C-7C0096008F1D";
paths = (
{
closed = 1;
nodes = (
"210 675 LINE",
"480 675 LINE SMOOTH",
"516 675 OFFCURVE",
"545 704 OFFCURVE",
"545 740 CURVE SMOOTH",
"545 776 OFFCURVE",
"516 805 OFFCURVE",
"480 805 CURVE SMOOTH",
"149 805 LINE SMOOTH",
"109 805 OFFCURVE",
"80 776 OFFCURVE",
"80 736 CURVE SMOOTH",
"80 50 LINE SMOOTH",
"80 14 OFFCURVE",
"109 -15 OFFCURVE",
"145 -15 CURVE SMOOTH",
"181 -15 OFFCURVE",
"210 14 OFFCURVE",
"210 50 CURVE SMOOTH"
);
},
{
closed = 1;
nodes = (
"444 387 LINE SMOOTH",
"480 387 OFFCURVE",
"509 416 OFFCURVE",
"509 452 CURVE SMOOTH",
"509 488 OFFCURVE",
"480 517 OFFCURVE",
"444 517 CURVE SMOOTH",
"95 517 LINE",
"95 387 LINE"
);
}
);
width = 605;
}
);
leftMetricsKey = "=H";
unicode = 0046;
},
{
glyphname = G;
layers = (
{
layerId = "F0262224-B9C7-46EB-9294-168F9DBDA589";
paths = (
{
closed = 1;
nodes = (
"633 -20 OFFCURVE",
"769 89 OFFCURVE",
"769 246 CURVE SMOOTH",
"769 338 OFFCURVE",
"718 425 OFFCURVE",
"556 425 CURVE SMOOTH",
"526 425 OFFCURVE",
"481 422 OFFCURVE",
"464 419 CURVE SMOOTH",
"451 417 OFFCURVE",
"438 412 OFFCURVE",
"438 401 CURVE SMOOTH",
"438 387 OFFCURVE",
"451 378 OFFCURVE",
"464 379 CURVE SMOOTH",
"493 381 OFFCURVE",
"538 385 OFFCURVE",
"566 385 CURVE SMOOTH",
"696 385 OFFCURVE",
"729 316 OFFCURVE",
"729 246 CURVE SMOOTH",
"729 112 OFFCURVE",
"612 20 OFFCURVE",
"439 20 CURVE SMOOTH",
"245 20 OFFCURVE",
"100 182 OFFCURVE",
"100 399 CURVE SMOOTH",
"100 609 OFFCURVE",
"250 765 OFFCURVE",
"450 765 CURVE SMOOTH",
"552 765 OFFCURVE",
"628 735 OFFCURVE",
"677 675 CURVE SMOOTH",
"680 671 OFFCURVE",
"686 668 OFFCURVE",
"692 668 CURVE SMOOTH",
"703 668 OFFCURVE",
"712 677 OFFCURVE",
"712 688 CURVE SMOOTH",
"712 692 OFFCURVE",
"711 696 OFFCURVE",
"708 700 CURVE SMOOTH",
"650 770 OFFCURVE",
"562 805 OFFCURVE",
"450 805 CURVE SMOOTH",
"228 805 OFFCURVE",
"60 630 OFFCURVE",
"60 399 CURVE SMOOTH",
"60 160 OFFCURVE",
"223 -20 OFFCURVE",
"439 -20 CURVE SMOOTH"
);
}
);
width = 818;
},
{
layerId = "2E7D65B2-411D-4607-BF7C-7C0096008F1D";
paths = (
{
closed = 1;
nodes = (
"691 -25 OFFCURVE",
"848 95 OFFCURVE",
"848 246 CURVE SMOOTH",
"848 382 OFFCURVE",
"750 474 OFFCURVE",
"605 474 CURVE SMOOTH",
"579 474 OFFCURVE",
"522 471 OFFCURVE",
"502 468 CURVE SMOOTH",
"451 460 OFFCURVE",
"423 436 OFFCURVE",
"423 398 CURVE SMOOTH",
"423 356 OFFCURVE",
"456 333 OFFCURVE",
"506 338 CURVE SMOOTH",
"532 341 OFFCURVE",
"583 344 OFFCURVE",
"607 344 CURVE SMOOTH",
"674 344 OFFCURVE",
"718 305 OFFCURVE",
"718 246 CURVE SMOOTH",
"718 173 OFFCURVE",
"623 115 OFFCURVE",
"479 115 CURVE SMOOTH",
"312 115 OFFCURVE",
"200 217 OFFCURVE",
"200 399 CURVE SMOOTH",
"200 572 OFFCURVE",
"326 690 OFFCURVE",
"495 690 CURVE SMOOTH",
"560 690 OFFCURVE",
"666 652 OFFCURVE",
"707 603 CURVE SMOOTH",
"718 590 OFFCURVE",
"740 580 OFFCURVE",
"756 580 CURVE SMOOTH",
"793 580 OFFCURVE",
"821 608 OFFCURVE",
"821 645 CURVE SMOOTH",
"821 658 OFFCURVE",
"815 676 OFFCURVE",
"806 687 CURVE SMOOTH",
"740 768 OFFCURVE",
"602 820 OFFCURVE",
"495 820 CURVE SMOOTH",
"250 820 OFFCURVE",
"60 642 OFFCURVE",
"60 399 CURVE SMOOTH",
"60 144 OFFCURVE",
"238 -25 OFFCURVE",
"479 -25 CURVE SMOOTH"
);
}
);
width = 893;
}
);
leftMetricsKey = "=O";
rightMetricsKey = "=C";
unicode = 0047;
},
{
glyphname = H;
layers = (
{
layerId = "F0262224-B9C7-46EB-9294-168F9DBDA589";
paths = (
{
closed = 1;
nodes = (
"120 782 LINE SMOOTH",
"120 793 OFFCURVE",
"111 802 OFFCURVE",
"100 802 CURVE SMOOTH",
"89 802 OFFCURVE",
"80 793 OFFCURVE",
"80 782 CURVE SMOOTH",
"80 28 LINE SMOOTH",
"80 17 OFFCURVE",
"89 8 OFFCURVE",
"100 8 CURVE SMOOTH",
"111 8 OFFCURVE",
"120 17 OFFCURVE",
"120 28 CURVE SMOOTH"
);
},
{
closed = 1;
nodes = (
"628 782 LINE SMOOTH",
"628 793 OFFCURVE",
"619 802 OFFCURVE",
"608 802 CURVE SMOOTH",
"597 802 OFFCURVE",
"588 793 OFFCURVE",
"588 782 CURVE SMOOTH",
"588 28 LINE SMOOTH",
"588 17 OFFCURVE",
"597 8 OFFCURVE",
"608 8 CURVE SMOOTH",
"619 8 OFFCURVE",
"628 17 OFFCURVE",
"628 28 CURVE SMOOTH"
);
},
{
closed = 1;
nodes = (
"102 455 LINE",
"102 415 LINE",
"603 415 LINE",
"603 455 LINE"
);
}
);
width = 708;
},
{
layerId = "2E7D65B2-411D-4607-BF7C-7C0096008F1D";
paths = (
{
closed = 1;
nodes = (
"220 742 LINE SMOOTH",
"220 777 OFFCURVE",
"188 807 OFFCURVE",
"150 807 CURVE SMOOTH",
"112 807 OFFCURVE",
"80 777 OFFCURVE",
"80 742 CURVE SMOOTH",
"80 48 LINE SMOOTH",
"80 13 OFFCURVE",
"112 -17 OFFCURVE",
"150 -17 CURVE SMOOTH",
"188 -17 OFFCURVE",
"220 13 OFFCURVE",
"220 48 CURVE SMOOTH"
);
},
{
closed = 1;
nodes = (
"728 742 LINE SMOOTH",
"728 777 OFFCURVE",
"696 807 OFFCURVE",
"658 807 CURVE SMOOTH",
"620 807 OFFCURVE",
"588 777 OFFCURVE",
"588 742 CURVE SMOOTH",
"588 48 LINE SMOOTH",
"588 13 OFFCURVE",
"620 -17 OFFCURVE",
"658 -17 CURVE SMOOTH",
"696 -17 OFFCURVE",
"728 13 OFFCURVE",
"728 48 CURVE SMOOTH"
);
},
{
closed = 1;
nodes = (
"107 500 LINE",
"107 370 LINE",
"698 370 LINE",
"698 500 LINE"
);
}
);
width = 808;
}
);
unicode = 0048;
},
{
glyphname = I;
layers = (
{
layerId = "F0262224-B9C7-46EB-9294-168F9DBDA589";
paths = (
{
closed = 1;
nodes = (
"140 782 LINE SMOOTH",
"140 793 OFFCURVE",
"131 802 OFFCURVE",
"120 802 CURVE SMOOTH",
"109 802 OFFCURVE",
"100 793 OFFCURVE",
"100 782 CURVE SMOOTH",
"100 28 LINE SMOOTH",
"100 17 OFFCURVE",
"109 8 OFFCURVE",
"120 8 CURVE SMOOTH",
"131 8 OFFCURVE",
"140 17 OFFCURVE",
"140 28 CURVE SMOOTH"
);
}
);
width = 240;
},
{
layerId = "2E7D65B2-411D-4607-BF7C-7C0096008F1D";
paths = (
{
closed = 1;
nodes = (
"230 752 LINE SMOOTH",
"230 788 OFFCURVE",
"201 817 OFFCURVE",
"165 817 CURVE SMOOTH",
"129 817 OFFCURVE",
"100 788 OFFCURVE",
"100 752 CURVE SMOOTH",
"100 48 LINE SMOOTH",
"100 12 OFFCURVE",
"129 -17 OFFCURVE",
"165 -17 CURVE SMOOTH",
"201 -17 OFFCURVE",
"230 12 OFFCURVE",
"230 48 CURVE SMOOTH"
);
}
);
width = 330;
}
);
leftMetricsKey = "=H+20";
rightMetricsKey = "=|";
unicode = 0049;
},
{
glyphname = J;
layers = (
{
layerId = "F0262224-B9C7-46EB-9294-168F9DBDA589";
paths = (
{
closed = 1;
nodes = (
"212 -291 OFFCURVE",
"340 -127 OFFCURVE",
"340 94 CURVE SMOOTH",
"340 789 LINE SMOOTH",
"340 800 OFFCURVE",
"331 809 OFFCURVE",
"320 809 CURVE SMOOTH",
"309 809 OFFCURVE",
"300 800 OFFCURVE",
"300 789 CURVE SMOOTH",
"300 94 LINE SMOOTH",
"300 -107 OFFCURVE",
"187 -251 OFFCURVE",
"18 -268 CURVE SMOOTH",
"8 -269 OFFCURVE",
"0 -277 OFFCURVE",
"0 -288 CURVE SMOOTH",
"0 -300 OFFCURVE",
"11 -309 OFFCURVE",
"22 -308 CURVE SMOOTH"
);
}
);
width = 420;
},
{
layerId = "2E7D65B2-411D-4607-BF7C-7C0096008F1D";
paths = (
{
closed = 1;
nodes = (
"272 -308 OFFCURVE",
"415 -138 OFFCURVE",
"415 104 CURVE SMOOTH",
"415 769 LINE SMOOTH",
"415 805 OFFCURVE",
"386 834 OFFCURVE",
"350 834 CURVE SMOOTH",
"314 834 OFFCURVE",
"285 805 OFFCURVE",
"285 769 CURVE SMOOTH",
"285 104 LINE SMOOTH",
"285 -66 OFFCURVE",
"196 -175 OFFCURVE",
"43 -193 CURVE SMOOTH",
"10 -197 OFFCURVE",
"-15 -224 OFFCURVE",
"-15 -258 CURVE SMOOTH",
"-15 -296 OFFCURVE",
"19 -326 OFFCURVE",
"56 -323 CURVE SMOOTH"
);
}
);
width = 495;
}
);
rightMetricsKey = "=H";
unicode = 004A;
},
{
glyphname = K;
layers = (
{
layerId = "F0262224-B9C7-46EB-9294-168F9DBDA589";
paths = (
{
closed = 1;
nodes = (
"120 784 LINE SMOOTH",
"120 795 OFFCURVE",
"111 804 OFFCURVE",
"100 804 CURVE SMOOTH",
"89 804 OFFCURVE",
"80 795 OFFCURVE",
"80 784 CURVE SMOOTH",
"80 19 LINE SMOOTH",
"80 8 OFFCURVE",
"89 -1 OFFCURVE",
"100 -1 CURVE SMOOTH",
"111 -1 OFFCURVE",
"120 8 OFFCURVE",
"120 19 CURVE SMOOTH"
);
},
{
closed = 1;
nodes = (
"159 414 LINE",
"135 432 OFFCURVE",
"128 424 OFFCURVE",
"128 418 CURVE SMOOTH",
"128 409 OFFCURVE",
"136 408 OFFCURVE",
"159 426 CURVE",
"567 775 LINE SMOOTH",
"571 779 OFFCURVE",
"574 785 OFFCURVE",
"574 791 CURVE SMOOTH",
"574 802 OFFCURVE",
"565 811 OFFCURVE",
"555 811 CURVE SMOOTH",
"550 811 OFFCURVE",
"545 809 OFFCURVE",
"542 806 CURVE SMOOTH",
"113 436 LINE",
"112 403 LINE",
"549 -3 LINE SMOOTH",
"552 -6 OFFCURVE",
"557 -8 OFFCURVE",
"562 -8 CURVE SMOOTH",
"573 -8 OFFCURVE",
"582 1 OFFCURVE",
"582 12 CURVE SMOOTH",
"582 18 OFFCURVE",
"579 24 OFFCURVE",
"575 27 CURVE SMOOTH"
);
}
);
width = 622;
},
{
layerId = "2E7D65B2-411D-4607-BF7C-7C0096008F1D";
paths = (
{
closed = 1;
nodes = (
"210 754 LINE SMOOTH",
"210 790 OFFCURVE",
"181 819 OFFCURVE",
"145 819 CURVE SMOOTH",
"109 819 OFFCURVE",
"80 790 OFFCURVE",
"80 754 CURVE SMOOTH",
"80 49 LINE SMOOTH",
"80 13 OFFCURVE",
"109 -16 OFFCURVE",
"145 -16 CURVE SMOOTH",
"181 -16 OFFCURVE",
"210 13 OFFCURVE",
"210 49 CURVE SMOOTH"
);
},
{
closed = 1;
nodes = (
"289 419 LINE",
"232 466 OFFCURVE",
"189 474 OFFCURVE",
"189 421 CURVE SMOOTH",
"189 373 OFFCURVE",
"235 382 OFFCURVE",
"289 425 CURVE",
"632 711 LINE SMOOTH",
"645 721 OFFCURVE",
"654 743 OFFCURVE",
"654 761 CURVE SMOOTH",
"654 796 OFFCURVE",
"625 826 OFFCURVE",
"590 826 CURVE SMOOTH",
"575 826 OFFCURVE",
"559 820 OFFCURVE",
"547 809 CURVE SMOOTH",
"133 457 LINE",
"132 389 LINE",
"553 -6 LINE SMOOTH",
"565 -17 OFFCURVE",
"582 -23 OFFCURVE",
"597 -23 CURVE SMOOTH",
"633 -23 OFFCURVE",
"662 6 OFFCURVE",
"662 42 CURVE SMOOTH",
"662 58 OFFCURVE",
"654 78 OFFCURVE",
"640 91 CURVE SMOOTH"
);
}
);
width = 702;
}
);
leftMetricsKey = "=H";
unicode = 004B;
},
{
glyphname = L;
layers = (
{
layerId = "F0262224-B9C7-46EB-9294-168F9DBDA589";
paths = (
{
closed = 1;
nodes = (
"120 55 LINE",
"120 781 LINE SMOOTH",
"120 792 OFFCURVE",
"111 801 OFFCURVE",
"100 801 CURVE SMOOTH",
"89 801 OFFCURVE",
"80 792 OFFCURVE",
"80 781 CURVE SMOOTH",
"80 39 LINE SMOOTH",
"80 24 OFFCURVE",
"89 15 OFFCURVE",
"104 15 CURVE SMOOTH",
"372 15 LINE SMOOTH",
"383 15 OFFCURVE",
"392 24 OFFCURVE",
"392 35 CURVE SMOOTH",
"392 46 OFFCURVE",
"383 55 OFFCURVE",
"372 55 CURVE SMOOTH"
);
}
);
width = 442;
},
{
layerId = "2E7D65B2-411D-4607-BF7C-7C0096008F1D";
paths = (
{
closed = 1;
nodes = (
"210 125 LINE",
"210 751 LINE SMOOTH",
"210 787 OFFCURVE",
"181 816 OFFCURVE",
"145 816 CURVE SMOOTH",
"109 816 OFFCURVE",
"80 787 OFFCURVE",
"80 751 CURVE SMOOTH",
"80 64 LINE SMOOTH",
"80 24 OFFCURVE",
"109 -5 OFFCURVE",
"149 -5 CURVE SMOOTH",
"417 -5 LINE SMOOTH",
"453 -5 OFFCURVE",
"482 24 OFFCURVE",
"482 60 CURVE SMOOTH",
"482 96 OFFCURVE",
"453 125 OFFCURVE",
"417 125 CURVE SMOOTH"
);
}
);
width = 532;
}
);
leftMetricsKey = "=H";
unicode = 004C;
},
{
glyphname = M;
layers = (
{
layerId = "F0262224-B9C7-46EB-9294-168F9DBDA589";
paths = (
{
closed = 1;
nodes = (
"89 4 OFFCURVE",
"97 11 OFFCURVE",
"99 19 CURVE SMOOTH",
"256 720 LINE",
"263 748 OFFCURVE",
"261 758 OFFCURVE",
"258 758 CURVE SMOOTH",
"255 758 OFFCURVE",
"255 749 OFFCURVE",
"262 720 CURVE",
"477 27 LINE SMOOTH",
"480 17 OFFCURVE",
"489 10 OFFCURVE",
"500 10 CURVE SMOOTH",
"511 10 OFFCURVE",
"520 17 OFFCURVE",
"523 28 CURVE SMOOTH",
"719 725 LINE",
"724 746 OFFCURVE",
"724 751 OFFCURVE",
"721 751 CURVE SMOOTH",
"718 751 OFFCURVE",
"719 746 OFFCURVE",
"723 725 CURVE",
"896 9 LINE SMOOTH",
"898 0 OFFCURVE",
"906 -6 OFFCURVE",
"915 -6 CURVE SMOOTH",
"928 -6 OFFCURVE",
"937 7 OFFCURVE",
"934 19 CURVE SMOOTH",
"743 799 LINE SMOOTH",
"740 810 OFFCURVE",
"731 816 OFFCURVE",
"720 816 CURVE SMOOTH",
"709 816 OFFCURVE",
"700 809 OFFCURVE",
"697 798 CURVE SMOOTH",
"503 106 LINE",
"496 81 OFFCURVE",
"497 67 OFFCURVE",
"500 68 CURVE SMOOTH",
"503 68 OFFCURVE",
"501 85 OFFCURVE",
"496 106 CURVE",
"280 792 LINE SMOOTH",
"277 802 OFFCURVE",
"268 809 OFFCURVE",
"257 809 CURVE SMOOTH",
"246 809 OFFCURVE",
"237 802 OFFCURVE",
"234 791 CURVE SMOOTH",
"61 29 LINE SMOOTH",
"58 16 OFFCURVE",
"68 4 OFFCURVE",
"80 4 CURVE SMOOTH"
);
}
);
width = 995;
},
{
layerId = "2E7D65B2-411D-4607-BF7C-7C0096008F1D";
paths = (
{
closed = 1;
nodes = (
"156 -11 OFFCURVE",
"188 12 OFFCURVE",
"193 39 CURVE SMOOTH",
"304 587 LINE SMOOTH",
"324 684 OFFCURVE",
"339 751 OFFCURVE",
"293 751 CURVE SMOOTH",
"234 751 OFFCURVE",
"282 632 OFFCURVE",
"282 587 CURVE",
"468 54 LINE SMOOTH",
"478 26 OFFCURVE",
"508 5 OFFCURVE",
"539 5 CURVE SMOOTH",
"569 5 OFFCURVE",
"595 25 OFFCURVE",
"605 55 CURVE SMOOTH",
"785 587 LINE",
"801 714 OFFCURVE",
"823 756 OFFCURVE",
"776 756 CURVE SMOOTH",
"729 756 OFFCURVE",
"748 706 OFFCURVE",
"763 588 CURVE",
"892 29 LINE SMOOTH",
"898 1 OFFCURVE",
"929 -21 OFFCURVE",
"960 -21 CURVE SMOOTH",
"1003 -21 OFFCURVE",
"1040 21 OFFCURVE",
"1030 61 CURVE SMOOTH",
"849 771 LINE SMOOTH",
"842 799 OFFCURVE",
"809 821 OFFCURVE",
"775 821 CURVE SMOOTH",
"744 821 OFFCURVE",
"714 800 OFFCURVE",
"705 771 CURVE SMOOTH",
"523 217 LINE",
"504 121 OFFCURVE",
"489 59 OFFCURVE",
"539 59 CURVE SMOOTH",
"584 59 OFFCURVE",
"560 80 OFFCURVE",
"541 216 CURVE",
"358 764 LINE SMOOTH",
"348 794 OFFCURVE",
"322 814 OFFCURVE",
"292 814 CURVE SMOOTH",
"260 814 OFFCURVE",
"232 793 OFFCURVE",
"225 762 CURVE SMOOTH",
"62 69 LINE SMOOTH",
"52 28 OFFCURVE",
"84 -11 OFFCURVE",
"125 -11 CURVE SMOOTH"
);
}
);
width = 1092;
}
);
leftKerningGroup = A;
leftMetricsKey = "=A";
rightKerningGroup = A;
rightMetricsKey = "=|";
unicode = 004D;
},
{
glyphname = N;
layers = (
{
layerId = "F0262224-B9C7-46EB-9294-168F9DBDA589";
paths = (
{
closed = 1;
nodes = (
"111 10 OFFCURVE",
"120 19 OFFCURVE",
"120 30 CURVE SMOOTH",
"120 728 LINE SMOOTH",
"120 745 OFFCURVE",
"117 755 OFFCURVE",
"114 754 CURVE SMOOTH",
"111 753 OFFCURVE",
"115 743 OFFCURVE",
"125 729 CURVE SMOOTH",
"654 15 LINE SMOOTH",
"658 9 OFFCURVE",
"665 5 OFFCURVE",
"674 5 CURVE SMOOTH",
"688 5 OFFCURVE",
"699 16 OFFCURVE",
"699 30 CURVE SMOOTH",
"699 776 LINE SMOOTH",
"699 787 OFFCURVE",
"690 796 OFFCURVE",
"679 796 CURVE SMOOTH",
"668 796 OFFCURVE",
"659 787 OFFCURVE",
"659 776 CURVE SMOOTH",
"659 83 LINE SMOOTH",
"659 66 OFFCURVE",
"662 56 OFFCURVE",
"665 57 CURVE SMOOTH",
"668 58 OFFCURVE",
"664 68 OFFCURVE",
"654 82 CURVE SMOOTH",
"125 796 LINE SMOOTH",
"121 802 OFFCURVE",
"114 806 OFFCURVE",
"105 806 CURVE SMOOTH",
"91 806 OFFCURVE",
"80 795 OFFCURVE",
"80 781 CURVE SMOOTH",
"80 30 LINE SMOOTH",
"80 19 OFFCURVE",
"89 10 OFFCURVE",
"100 10 CURVE SMOOTH"
);
}
);
width = 779;
},
{
layerId = "2E7D65B2-411D-4607-BF7C-7C0096008F1D";
paths = (
{
closed = 1;
nodes = (
"188 -19 OFFCURVE",
"220 11 OFFCURVE",
"220 46 CURVE SMOOTH",
"220 600 LINE SMOOTH",
"220 676 OFFCURVE",
"192 774 OFFCURVE",
"150 759 CURVE SMOOTH",
"94 739 OFFCURVE",
"177 643 OFFCURVE",
"199 589 CURVE",
"668 25 LINE SMOOTH",
"682 8 OFFCURVE",
"703 -4 OFFCURVE",
"724 -4 CURVE SMOOTH",
"764 -4 OFFCURVE",
"799 29 OFFCURVE",
"799 66 CURVE SMOOTH",
"799 759 LINE SMOOTH",
"799 794 OFFCURVE",
"767 824 OFFCURVE",
"729 824 CURVE SMOOTH",
"691 824 OFFCURVE",
"659 794 OFFCURVE",
"659 759 CURVE SMOOTH",
"659 119 LINE SMOOTH",
"659 70 OFFCURVE",
"689 40 OFFCURVE",
"728 51 CURVE SMOOTH",
"781 66 OFFCURVE",
"737 116 OFFCURVE",
"671 226 CURVE",
"211 785 LINE SMOOTH",
"196 803 OFFCURVE",
"176 814 OFFCURVE",
"155 814 CURVE SMOOTH",
"115 814 OFFCURVE",
"80 781 OFFCURVE",
"80 744 CURVE SMOOTH",
"80 46 LINE SMOOTH",
"80 11 OFFCURVE",
"112 -19 OFFCURVE",
"150 -19 CURVE SMOOTH"
);
}
);
width = 879;
}
);
leftMetricsKey = "=H";
rightMetricsKey = "=|";
unicode = 004E;
},
{
glyphname = O;
layers = (
{
layerId = "F0262224-B9C7-46EB-9294-168F9DBDA589";
paths = (
{
closed = 1;
nodes = (
"660 -20 OFFCURVE",
"824 157 OFFCURVE",
"824 393 CURVE SMOOTH",
"824 629 OFFCURVE",
"660 806 OFFCURVE",
"442 806 CURVE SMOOTH",
"224 806 OFFCURVE",
"60 629 OFFCURVE",
"60 393 CURVE SMOOTH",
"60 157 OFFCURVE",
"224 -20 OFFCURVE",
"442 -20 CURVE SMOOTH"
);
},
{
closed = 1;
nodes = (
"247 20 OFFCURVE",
"100 180 OFFCURVE",
"100 393 CURVE SMOOTH",
"100 606 OFFCURVE",
"247 766 OFFCURVE",
"442 766 CURVE SMOOTH",
"637 766 OFFCURVE",
"784 606 OFFCURVE",
"784 393 CURVE SMOOTH",
"784 180 OFFCURVE",
"637 20 OFFCURVE",
"442 20 CURVE SMOOTH"
);
}
);
width = 884;
},
{
layerId = "2E7D65B2-411D-4607-BF7C-7C0096008F1D";
paths = (
{
closed = 1;
nodes = (
"707 -30 OFFCURVE",
"884 140 OFFCURVE",
"884 393 CURVE SMOOTH",
"884 646 OFFCURVE",
"707 816 OFFCURVE",
"472 816 CURVE SMOOTH",
"237 816 OFFCURVE",
"60 646 OFFCURVE",
"60 393 CURVE SMOOTH",
"60 140 OFFCURVE",
"237 -30 OFFCURVE",
"472 -30 CURVE SMOOTH"
);
},
{
closed = 1;
nodes = (
"316 110 OFFCURVE",
"200 219 OFFCURVE",
"200 393 CURVE SMOOTH",
"200 567 OFFCURVE",
"316 676 OFFCURVE",
"472 676 CURVE SMOOTH",
"628 676 OFFCURVE",
"744 567 OFFCURVE",
"744 393 CURVE SMOOTH",
"744 219 OFFCURVE",
"628 110 OFFCURVE",
"472 110 CURVE SMOOTH"
);
}
);
width = 944;
}
);
leftMetricsKey = "=H-20";
rightMetricsKey = "=|";
unicode = 004F;
},
{
glyphname = Oslash;
layers = (
{
components = (
{
name = O;
}
);
layerId = "F0262224-B9C7-46EB-9294-168F9DBDA589";
paths = (
{
closed = 1;
nodes = (
"780 800 LINE SMOOTH",
"787 810 OFFCURVE",
"785 821 OFFCURVE",
"776 828 CURVE SMOOTH",
"767 835 OFFCURVE",
"755 832 OFFCURVE",
"748 823 CURVE SMOOTH",
"109 -23 LINE SMOOTH",
"102 -33 OFFCURVE",
"104 -44 OFFCURVE",
"113 -51 CURVE SMOOTH",
"122 -58 OFFCURVE",
"134 -55 OFFCURVE",
"141 -46 CURVE SMOOTH"
);
}
);
width = 884;
},
{
components = (
{
name = O;
}
);
layerId = "2E7D65B2-411D-4607-BF7C-7C0096008F1D";
paths = (
{
closed = 1;
nodes = (
"810 775 LINE SMOOTH",
"825 795 OFFCURVE",
"821 821 OFFCURVE",
"801 837 CURVE SMOOTH",
"781 853 OFFCURVE",
"754 847 OFFCURVE",
"738 827 CURVE SMOOTH",
"76 -11 LINE SMOOTH",
"60 -31 OFFCURVE",
"65 -57 OFFCURVE",
"85 -73 CURVE SMOOTH",
"105 -89 OFFCURVE",
"131 -84 OFFCURVE",
"148 -63 CURVE SMOOTH"
);
}
);
width = 914;
}
);
unicode = 00D8;
},
{
glyphname = OE;
layers = (
{
layerId = "F0262224-B9C7-46EB-9294-168F9DBDA589";
paths = (
{
closed = 1;
nodes = (
"595 467 LINE",
"595 427 LINE",
"805 427 LINE SMOOTH",
"816 427 OFFCURVE",
"825 436 OFFCURVE",
"825 447 CURVE SMOOTH",
"825 458 OFFCURVE",
"816 467 OFFCURVE",
"805 467 CURVE SMOOTH"
);
},
{
closed = 1;
nodes = (
"568 25 LINE",
"568 10 OFFCURVE",
"577 1 OFFCURVE",
"592 1 CURVE SMOOTH",
"867 1 LINE SMOOTH",
"878 1 OFFCURVE",
"887 10 OFFCURVE",
"887 21 CURVE SMOOTH",
"887 32 OFFCURVE",
"878 41 OFFCURVE",
"867 41 CURVE SMOOTH",
"608 41 LINE",
"608 760 LINE",
"847 760 LINE SMOOTH",
"858 760 OFFCURVE",
"867 769 OFFCURVE",
"867 780 CURVE SMOOTH",
"867 791 OFFCURVE",
"858 800 OFFCURVE",
"847 800 CURVE SMOOTH",
"592 800 LINE SMOOTH",
"579 800 OFFCURVE",
"575 796 OFFCURVE",
"569 785 CURVE"
);
},
{
closed = 1;
nodes = (
"519 -20 OFFCURVE",
"604 157 OFFCURVE",
"604 393 CURVE SMOOTH",
"604 629 OFFCURVE",
"519 806 OFFCURVE",
"352 806 CURVE SMOOTH",
"185 806 OFFCURVE",
"60 629 OFFCURVE",
"60 393 CURVE SMOOTH",
"60 157 OFFCURVE",
"185 -20 OFFCURVE",
"352 -20 CURVE SMOOTH"
);
},
{
closed = 1;
nodes = (
"208 20 OFFCURVE",
"100 180 OFFCURVE",
"100 393 CURVE SMOOTH",
"100 606 OFFCURVE",
"208 766 OFFCURVE",
"352 766 CURVE SMOOTH",
"496 766 OFFCURVE",
"564 606 OFFCURVE",
"564 393 CURVE SMOOTH",
"564 180 OFFCURVE",
"496 20 OFFCURVE",
"352 20 CURVE SMOOTH"
);
}
);
width = 936;
},
{
layerId = "2E7D65B2-411D-4607-BF7C-7C0096008F1D";
paths = (
{
closed = 1;
nodes = (
"615 512 LINE",
"615 382 LINE",
"870 382 LINE SMOOTH",
"906 382 OFFCURVE",
"935 411 OFFCURVE",
"935 447 CURVE SMOOTH",
"935 483 OFFCURVE",
"906 512 OFFCURVE",
"870 512 CURVE SMOOTH"
);
},
{
closed = 1;
nodes = (
"588 55 LINE SMOOTH",
"588 15 OFFCURVE",
"617 -14 OFFCURVE",
"657 -14 CURVE SMOOTH",
"932 -14 LINE SMOOTH",
"968 -14 OFFCURVE",
"997 15 OFFCURVE",
"997 51 CURVE SMOOTH",
"997 87 OFFCURVE",
"968 116 OFFCURVE",
"932 116 CURVE SMOOTH",
"718 116 LINE",
"718 685 LINE",
"912 685 LINE SMOOTH",
"948 685 OFFCURVE",
"977 714 OFFCURVE",
"977 750 CURVE SMOOTH",
"977 786 OFFCURVE",
"948 815 OFFCURVE",
"912 815 CURVE SMOOTH",
"657 815 LINE SMOOTH",
"624 815 OFFCURVE",
"603 800 OFFCURVE",
"589 765 CURVE"
);
},
{
closed = 1;
nodes = (
"585 -35 OFFCURVE",
"694 123 OFFCURVE",
"694 393 CURVE SMOOTH",
"694 648 OFFCURVE",
"576 821 OFFCURVE",
"397 821 CURVE SMOOTH",
"198 821 OFFCURVE",
"60 646 OFFCURVE",
"60 393 CURVE SMOOTH",
"60 140 OFFCURVE",
"198 -35 OFFCURVE",
"397 -35 CURVE SMOOTH"
);
},
{
closed = 1;
nodes = (
"273 95 OFFCURVE",
"190 213 OFFCURVE",
"190 393 CURVE SMOOTH",
"190 573 OFFCURVE",
"273 691 OFFCURVE",
"397 691 CURVE SMOOTH",
"508 691 OFFCURVE",
"564 592 OFFCURVE",
"564 393 CURVE SMOOTH",
"564 194 OFFCURVE",
"508 95 OFFCURVE",
"397 95 CURVE SMOOTH"
);
}
);
width = 1042;
}
);
leftMetricsKey = "=O";
rightMetricsKey = "=E";
unicode = 0152;
},
{
glyphname = P;
layers = (
{
layerId = "F0262224-B9C7-46EB-9294-168F9DBDA589";
paths = (
{
closed = 1;
nodes = (
"297 427 LINE SMOOTH",
"433 427 OFFCURVE",
"514 498 OFFCURVE",
"514 618 CURVE SMOOTH",
"514 734 OFFCURVE",
"433 802 OFFCURVE",
"297 802 CURVE SMOOTH",
"271 802 OFFCURVE",
"121 801 OFFCURVE",
"104 800 CURVE SMOOTH",
"88 799 OFFCURVE",
"80 791 OFFCURVE",
"80 776 CURVE SMOOTH",
"80 19 LINE SMOOTH",
"80 8 OFFCURVE",
"89 -1 OFFCURVE",
"100 -1 CURVE SMOOTH",
"111 -1 OFFCURVE",
"120 8 OFFCURVE",
"120 19 CURVE SMOOTH",
"120 760 LINE",
"131 761 OFFCURVE",
"272 762 OFFCURVE",
"297 762 CURVE SMOOTH",
"408 762 OFFCURVE",
"474 709 OFFCURVE",
"474 618 CURVE SMOOTH",
"474 523 OFFCURVE",
"409 467 OFFCURVE",
"299 467 CURVE SMOOTH",
"111 467 LINE",
"111 427 LINE"
);
}
);
width = 554;
},
{
layerId = "2E7D65B2-411D-4607-BF7C-7C0096008F1D";
paths = (
{
closed = 1;
nodes = (
"349 362 LINE SMOOTH",
"508 362 OFFCURVE",
"609 454 OFFCURVE",
"609 598 CURVE SMOOTH",
"609 735 OFFCURVE",
"510 817 OFFCURVE",
"347 817 CURVE SMOOTH",
"319 817 OFFCURVE",
"169 816 OFFCURVE",
"151 815 CURVE SMOOTH",
"110 813 OFFCURVE",
"80 783 OFFCURVE",
"80 746 CURVE SMOOTH",
"80 59 LINE SMOOTH",
"80 24 OFFCURVE",
"112 -6 OFFCURVE",
"150 -6 CURVE SMOOTH",
"188 -6 OFFCURVE",
"220 24 OFFCURVE",
"220 59 CURVE SMOOTH",
"220 676 LINE",
"254 677 OFFCURVE",
"335 677 OFFCURVE",
"347 677 CURVE SMOOTH",
"433 677 OFFCURVE",
"469 652 OFFCURVE",
"469 598 CURVE SMOOTH",
"469 528 OFFCURVE",
"429 492 OFFCURVE",
"349 492 CURVE SMOOTH",
"116 492 LINE",
"116 362 LINE"
);
}
);
width = 634;
}
);
leftMetricsKey = "=H";
unicode = 0050;
},
{
glyphname = Thorn;
layers = (
{
layerId = "F0262224-B9C7-46EB-9294-168F9DBDA589";
paths = (
{
closed = 1;
nodes = (
"119 565 LINE",
"113 566 OFFCURVE",
"270 567 OFFCURVE",
"297 567 CURVE SMOOTH",
"408 567 OFFCURVE",
"474 514 OFFCURVE",
"474 423 CURVE SMOOTH",
"474 328 OFFCURVE",
"409 272 OFFCURVE",
"299 272 CURVE SMOOTH",
"111 272 LINE",
"111 232 LINE",
"297 232 LINE SMOOTH",
"433 232 OFFCURVE",
"514 303 OFFCURVE",
"514 423 CURVE SMOOTH",
"514 539 OFFCURVE",
"433 607 OFFCURVE",
"297 607 CURVE SMOOTH",
"271 607 OFFCURVE",
"121 606 OFFCURVE",
"104 605 CURVE"
);
},
{
closed = 1;
nodes = (
"87 800 OFFCURVE",
"80 791 OFFCURVE",
"80 776 CURVE SMOOTH",
"80 19 LINE SMOOTH",
"80 8 OFFCURVE",
"89 -1 OFFCURVE",
"100 -1 CURVE SMOOTH",
"111 -1 OFFCURVE",
"120 8 OFFCURVE",
"120 19 CURVE SMOOTH",
"120 776 LINE SMOOTH",
"120 791 OFFCURVE",
"112 800 OFFCURVE",
"99 800 CURVE SMOOTH"
);
}
);
width = 554;
},
{
layerId = "2E7D65B2-411D-4607-BF7C-7C0096008F1D";
paths = (
{
closed = 1;
nodes = (
"119 522 LINE",
"177 522 OFFCURVE",
"194 522 OFFCURVE",
"342 522 CURVE SMOOTH",
"429 522 OFFCURVE",
"474 487 OFFCURVE",
"474 423 CURVE SMOOTH",
"474 353 OFFCURVE",
"430 317 OFFCURVE",
"344 317 CURVE SMOOTH",
"111 317 LINE",
"111 187 LINE",
"342 187 LINE SMOOTH",
"503 187 OFFCURVE",
"604 278 OFFCURVE",
"604 423 CURVE SMOOTH",
"604 564 OFFCURVE",
"503 652 OFFCURVE",
"342 652 CURVE SMOOTH",
"360 652 OFFCURVE",
"318 652 OFFCURVE",
"134 650 CURVE"
);
},
{
closed = 1;
nodes = (
"107 825 OFFCURVE",
"80 796 OFFCURVE",
"80 756 CURVE SMOOTH",
"80 39 LINE SMOOTH",
"80 3 OFFCURVE",
"109 -26 OFFCURVE",
"145 -26 CURVE SMOOTH",
"181 -26 OFFCURVE",
"210 3 OFFCURVE",
"210 39 CURVE SMOOTH",
"210 756 LINE SMOOTH",
"210 796 OFFCURVE",
"182 825 OFFCURVE",
"144 825 CURVE SMOOTH"
);
}
);
width = 629;
}
);
leftMetricsKey = "=P";
rightMetricsKey = "=P";
unicode = 00DE;
},
{
glyphname = Q;
layers = (
{
components = (
{
name = O;
}
);
layerId = "F0262224-B9C7-46EB-9294-168F9DBDA589";
paths = (
{
closed = 1;
nodes = (
"701 -135 OFFCURVE",
"643 -98 OFFCURVE",
"586 -61 CURVE SMOOTH",
"525 -24 OFFCURVE",
"465 12 OFFCURVE",
"405 12 CURVE SMOOTH",
"327 12 OFFCURVE",
"265 -12 OFFCURVE",
"211 -65 CURVE SMOOTH",
"208 -68 OFFCURVE",
"205 -74 OFFCURVE",
"205 -79 CURVE SMOOTH",
"205 -90 OFFCURVE",
"213 -99 OFFCURVE",
"224 -99 CURVE SMOOTH",
"230 -99 OFFCURVE",
"235 -97 OFFCURVE",
"238 -94 CURVE SMOOTH",
"285 -47 OFFCURVE",
"336 -28 OFFCURVE",
"405 -28 CURVE SMOOTH",
"457 -28 OFFCURVE",
"512 -59 OFFCURVE",
"569 -94 CURVE SMOOTH",
"628 -131 OFFCURVE",
"690 -171 OFFCURVE",
"751 -183 CURVE SMOOTH",
"763 -185 OFFCURVE",
"773 -176 OFFCURVE",
"773 -164 CURVE SMOOTH",
"773 -153 OFFCURVE",
"765 -145 OFFCURVE",
"756 -144 CURVE SMOOTH"
);
}
);
width = 884;
},
{
components = (
{
name = O;
}
);
layerId = "2E7D65B2-411D-4607-BF7C-7C0096008F1D";
paths = (
{
closed = 1;
nodes = (
"705 -81 OFFCURVE",
"659 -55 OFFCURVE",
"609 -26 CURVE SMOOTH",
"555 6 OFFCURVE",
"496 40 OFFCURVE",
"438 40 CURVE SMOOTH",
"360 40 OFFCURVE",
"289 9 OFFCURVE",
"213 -59 CURVE SMOOTH",
"201 -69 OFFCURVE",
"193 -89 OFFCURVE",
"193 -105 CURVE SMOOTH",
"193 -141 OFFCURVE",
"221 -170 OFFCURVE",
"257 -170 CURVE SMOOTH",
"274 -170 OFFCURVE",
"291 -163 OFFCURVE",
"303 -152 CURVE SMOOTH",
"344 -111 OFFCURVE",
"381 -72 OFFCURVE",
"438 -72 CURVE SMOOTH",
"465 -72 OFFCURVE",
"500 -96 OFFCURVE",
"544 -126 CURVE SMOOTH",
"600 -164 OFFCURVE",
"667 -210 OFFCURVE",
"736 -210 CURVE SMOOTH",
"778 -210 OFFCURVE",
"807 -184 OFFCURVE",
"807 -146 CURVE SMOOTH",
"807 -112 OFFCURVE",
"777 -81 OFFCURVE",
"745 -81 CURVE SMOOTH"
);
}
);
width = 944;
}
);
leftMetricsKey = "=O";
rightMetricsKey = "=|";
unicode = 0051;
},
{
glyphname = R;
layers = (
{
layerId = "F0262224-B9C7-46EB-9294-168F9DBDA589";
paths = (
{
closed = 1;
nodes = (
"249 427 LINE",
"333 437 LINE",
"445 447 OFFCURVE",
"514 517 OFFCURVE",
"514 618 CURVE SMOOTH",
"514 738 OFFCURVE",
"431 802 OFFCURVE",
"297 802 CURVE SMOOTH",
"271 802 OFFCURVE",
"121 801 OFFCURVE",
"104 800 CURVE SMOOTH",
"88 799 OFFCURVE",
"80 791 OFFCURVE",
"80 776 CURVE SMOOTH",
"80 19 LINE SMOOTH",
"80 8 OFFCURVE",
"89 -1 OFFCURVE",
"100 -1 CURVE SMOOTH",
"111 -1 OFFCURVE",
"120 8 OFFCURVE",
"120 19 CURVE SMOOTH",
"120 760 LINE",
"131 761 OFFCURVE",
"272 762 OFFCURVE",
"297 762 CURVE SMOOTH",
"410 762 OFFCURVE",
"474 716 OFFCURVE",
"474 618 CURVE SMOOTH",
"474 515 OFFCURVE",
"411 467 OFFCURVE",
"299 467 CURVE SMOOTH",
"111 467 LINE",
"111 427 LINE"
);
},
{
closed = 1;
nodes = (
"513 41 OFFCURVE",
"495 86 OFFCURVE",
"489 154 CURVE SMOOTH",
"486 188 OFFCURVE",
"484 227 OFFCURVE",
"478 300 CURVE SMOOTH",
"469 411 OFFCURVE",
"336 450 OFFCURVE",
"254 459 CURVE",
"246 427 LINE",
"316 427 OFFCURVE",
"431 381 OFFCURVE",
"438 296 CURVE SMOOTH",
"444 223 OFFCURVE",
"446 184 OFFCURVE",
"449 150 CURVE SMOOTH",
"456 69 OFFCURVE",
"485 11 OFFCURVE",
"524 -7 CURVE SMOOTH",
"537 -13 OFFCURVE",
"552 -3 OFFCURVE",
"552 11 CURVE SMOOTH",
"552 20 OFFCURVE",
"546 27 OFFCURVE",
"539 30 CURVE SMOOTH"
);
}
);
width = 612;
},
{
layerId = "2E7D65B2-411D-4607-BF7C-7C0096008F1D";
paths = (
{
closed = 1;
nodes = (
"348 382 LINE",
"391 407 LINE",
"533 426 OFFCURVE",
"604 483 OFFCURVE",
"604 598 CURVE SMOOTH",
"604 727 OFFCURVE",
"496 817 OFFCURVE",
"342 817 CURVE SMOOTH",
"314 817 OFFCURVE",
"164 816 OFFCURVE",
"146 815 CURVE SMOOTH",
"107 813 OFFCURVE",
"80 785 OFFCURVE",
"80 746 CURVE SMOOTH",
"80 49 LINE SMOOTH",
"80 13 OFFCURVE",
"109 -16 OFFCURVE",
"145 -16 CURVE SMOOTH",
"181 -16 OFFCURVE",
"210 13 OFFCURVE",
"210 49 CURVE SMOOTH",
"210 686 LINE",
"245 687 OFFCURVE",
"330 687 OFFCURVE",
"342 687 CURVE SMOOTH",
"425 687 OFFCURVE",
"474 653 OFFCURVE",
"474 598 CURVE SMOOTH",
"474 525 OFFCURVE",
"435 502 OFFCURVE",
"344 502 CURVE SMOOTH",
"111 502 LINE",
"111 382 LINE"
);
},
{
closed = 1;
nodes = (
"589 111 OFFCURVE",
"582 130 OFFCURVE",
"579 169 CURVE SMOOTH",
"578 183 OFFCURVE",
"573 224 OFFCURVE",
"568 303 CURVE SMOOTH",
"560 409 OFFCURVE",
"481 453 OFFCURVE",
"305 458 CURVE",
"268 379 LINE",
"359 395 OFFCURVE",
"433 354 OFFCURVE",
"438 293 CURVE SMOOTH",
"443 228 OFFCURVE",
"448 161 OFFCURVE",
"449 156 CURVE SMOOTH",
"466 72 OFFCURVE",
"476 18 OFFCURVE",
"534 -14 CURVE SMOOTH",
"578 -38 OFFCURVE",
"642 -7 OFFCURVE",
"642 41 CURVE SMOOTH",
"642 69 OFFCURVE",
"615 90 OFFCURVE",
"604 99 CURVE SMOOTH"
);
}
);
width = 687;
},
{
associatedMasterId = "F0262224-B9C7-46EB-9294-168F9DBDA589";
layerId = "247ACDAB-EDAB-4122-BD51-2AC198AB46BF";
name = "Sep 30 19, 21:02";
paths = (
{
closed = 1;
nodes = (
"199 427 LINE SMOOTH",
"333 427 OFFCURVE",
"414 493 OFFCURVE",
"414 618 CURVE SMOOTH",
"414 738 OFFCURVE",
"331 802 OFFCURVE",
"197 802 CURVE SMOOTH",
"171 802 OFFCURVE",
"121 801 OFFCURVE",
"104 800 CURVE SMOOTH",
"88 799 OFFCURVE",
"80 791 OFFCURVE",
"80 776 CURVE SMOOTH",
"80 19 LINE SMOOTH",
"80 8 OFFCURVE",
"89 -1 OFFCURVE",
"100 -1 CURVE SMOOTH",
"111 -1 OFFCURVE",
"120 8 OFFCURVE",
"120 19 CURVE SMOOTH",
"120 760 LINE",
"131 761 OFFCURVE",
"172 762 OFFCURVE",
"197 762 CURVE SMOOTH",
"310 762 OFFCURVE",
"374 716 OFFCURVE",
"374 618 CURVE SMOOTH",
"374 515 OFFCURVE",
"311 467 OFFCURVE",
"199 467 CURVE SMOOTH",
"111 467 LINE",
"111 427 LINE"
);
},
{
closed = 1;
nodes = (
"413 41 OFFCURVE",
"395 86 OFFCURVE",
"389 154 CURVE SMOOTH",
"386 188 OFFCURVE",
"384 227 OFFCURVE",
"378 300 CURVE SMOOTH",
"369 404 OFFCURVE",
"286 450 OFFCURVE",
"204 459 CURVE",
"196 427 LINE",
"259 420 OFFCURVE",
"331 381 OFFCURVE",
"338 296 CURVE SMOOTH",
"344 223 OFFCURVE",
"346 184 OFFCURVE",
"349 150 CURVE SMOOTH",
"356 69 OFFCURVE",
"385 11 OFFCURVE",
"424 -7 CURVE SMOOTH",
"437 -13 OFFCURVE",
"452 -3 OFFCURVE",
"452 11 CURVE SMOOTH",
"452 20 OFFCURVE",
"446 27 OFFCURVE",
"439 30 CURVE SMOOTH"
);
}
);
width = 512;
}
);
leftMetricsKey = "=H";
unicode = 0052;
},
{
glyphname = S;
layers = (
{
layerId = "F0262224-B9C7-46EB-9294-168F9DBDA589";
paths = (
{
closed = 1;
nodes = (
"457 -9 OFFCURVE",
"547 78 OFFCURVE",
"547 194 CURVE SMOOTH",
"547 288 OFFCURVE",
"492 368 OFFCURVE",
"336 440 CURVE SMOOTH",
"202 502 OFFCURVE",
"148 552 OFFCURVE",
"148 623 CURVE SMOOTH",
"148 705 OFFCURVE",
"219 771 OFFCURVE",
"322 771 CURVE SMOOTH",
"407 771 OFFCURVE",
"466 742 OFFCURVE",
"503 682 CURVE SMOOTH",
"508 674 OFFCURVE",
"517 667 OFFCURVE",
"527 667 CURVE SMOOTH",
"539 667 OFFCURVE",
"549 685 OFFCURVE",
"539 699 CURVE SMOOTH",
"487 772 OFFCURVE",
"421 812 OFFCURVE",
"322 812 CURVE SMOOTH",
"202 812 OFFCURVE",
"108 729 OFFCURVE",
"108 623 CURVE SMOOTH",
"108 530 OFFCURVE",
"163 473 OFFCURVE",
"320 401 CURVE SMOOTH",
"448 342 OFFCURVE",
"507 264 OFFCURVE",
"507 194 CURVE SMOOTH",
"507 108 OFFCURVE",
"435 33 OFFCURVE",
"314 33 CURVE SMOOTH",
"227 33 OFFCURVE",
"176 65 OFFCURVE",
"128 133 CURVE SMOOTH",
"121 143 OFFCURVE",
"117 149 OFFCURVE",
"105 149 CURVE SMOOTH",
"96 149 OFFCURVE",
"88 139 OFFCURVE",
"88 126 CURVE SMOOTH",
"88 122 OFFCURVE",
"88 118 OFFCURVE",
"90 115 CURVE SMOOTH",
"140 40 OFFCURVE",
"224 -9 OFFCURVE",
"314 -9 CURVE SMOOTH"
);
}
);
width = 614;
},
{
layerId = "2E7D65B2-411D-4607-BF7C-7C0096008F1D";
paths = (
{
closed = 1;
nodes = (
"487 -20 OFFCURVE",
"599 71 OFFCURVE",
"599 214 CURVE SMOOTH",
"599 336 OFFCURVE",
"529 411 OFFCURVE",
"368 486 CURVE SMOOTH",
"243 544 OFFCURVE",
"216 557 OFFCURVE",
"216 603 CURVE SMOOTH",
"216 654 OFFCURVE",
"261 679 OFFCURVE",
"335 679 CURVE SMOOTH",
"400 679 OFFCURVE",
"442 661 OFFCURVE",
"473 620 CURVE SMOOTH",
"488 600 OFFCURVE",
"517 585 OFFCURVE",
"540 585 CURVE SMOOTH",
"588 585 OFFCURVE",
"614 642 OFFCURVE",
"589 686 CURVE SMOOTH",
"543 767 OFFCURVE",
"444 820 OFFCURVE",
"335 820 CURVE SMOOTH",
"187 820 OFFCURVE",
"76 731 OFFCURVE",
"76 603 CURVE SMOOTH",
"76 493 OFFCURVE",
"137 438 OFFCURVE",
"315 356 CURVE SMOOTH",
"413 311 OFFCURVE",
"459 272 OFFCURVE",
"459 214 CURVE SMOOTH",
"459 150 OFFCURVE",
"413 122 OFFCURVE",
"321 122 CURVE SMOOTH",
"266 122 OFFCURVE",
"206 152 OFFCURVE",
"183 192 CURVE SMOOTH",
"166 222 OFFCURVE",
"144 233 OFFCURVE",
"112 233 CURVE SMOOTH",
"74 233 OFFCURVE",
"50 204 OFFCURVE",
"50 160 CURVE SMOOTH",
"50 146 OFFCURVE",
"53 134 OFFCURVE",
"59 124 CURVE SMOOTH",
"112 35 OFFCURVE",
"216 -20 OFFCURVE",
"321 -20 CURVE SMOOTH"
);
}
);
width = 649;
}
);
unicode = 0053;
},
{
glyphname = T;
layers = (
{
layerId = "F0262224-B9C7-46EB-9294-168F9DBDA589";
paths = (
{
closed = 1;
nodes = (
"70 800 LINE SMOOTH",
"59 800 OFFCURVE",
"50 791 OFFCURVE",
"50 780 CURVE SMOOTH",
"50 769 OFFCURVE",
"59 760 OFFCURVE",
"70 760 CURVE SMOOTH",
"535 760 LINE SMOOTH",
"546 760 OFFCURVE",
"555 769 OFFCURVE",
"555 780 CURVE SMOOTH",
"555 791 OFFCURVE",
"546 800 OFFCURVE",
"535 800 CURVE SMOOTH"
);
},
{
closed = 1;
nodes = (
"323 782 LINE",
"283 782 LINE",
"283 28 LINE SMOOTH",
"283 17 OFFCURVE",
"292 8 OFFCURVE",
"303 8 CURVE SMOOTH",
"314 8 OFFCURVE",
"323 17 OFFCURVE",
"323 28 CURVE SMOOTH"
);
}
);
width = 605;
},
{
layerId = "2E7D65B2-411D-4607-BF7C-7C0096008F1D";
paths = (
{
closed = 1;
nodes = (
"100 800 LINE SMOOTH",
"64 800 OFFCURVE",
"35 771 OFFCURVE",
"35 735 CURVE SMOOTH",
"35 699 OFFCURVE",
"64 670 OFFCURVE",
"100 670 CURVE SMOOTH",
"645 670 LINE SMOOTH",
"681 670 OFFCURVE",
"710 699 OFFCURVE",
"710 735 CURVE SMOOTH",
"710 771 OFFCURVE",
"681 800 OFFCURVE",
"645 800 CURVE SMOOTH"
);
},
{
closed = 1;
nodes = (
"443 787 LINE",
"303 787 LINE",
"303 48 LINE SMOOTH",
"303 13 OFFCURVE",
"335 -17 OFFCURVE",
"373 -17 CURVE SMOOTH",
"411 -17 OFFCURVE",
"443 13 OFFCURVE",
"443 48 CURVE SMOOTH"
);
}
);
width = 745;
}
);
rightMetricsKey = "=|";
unicode = 0054;
},
{
glyphname = U;
layers = (
{
layerId = "F0262224-B9C7-46EB-9294-168F9DBDA589";
paths = (
{
closed = 1;
nodes = (
"575 272 LINE SMOOTH",
"575 129 OFFCURVE",
"492 22 OFFCURVE",
"347 22 CURVE SMOOTH",
"203 22 OFFCURVE",
"120 129 OFFCURVE",
"120 272 CURVE SMOOTH",
"120 785 LINE SMOOTH",
"120 796 OFFCURVE",
"111 805 OFFCURVE",
"100 805 CURVE SMOOTH",
"89 805 OFFCURVE",
"80 796 OFFCURVE",
"80 785 CURVE SMOOTH",
"80 272 LINE SMOOTH",
"80 107 OFFCURVE",
"181 -18 OFFCURVE",
"347 -18 CURVE SMOOTH",
"514 -18 OFFCURVE",
"615 107 OFFCURVE",
"615 272 CURVE SMOOTH",
"615 776 LINE SMOOTH",
"615 787 OFFCURVE",
"606 796 OFFCURVE",
"595 796 CURVE SMOOTH",
"584 796 OFFCURVE",
"575 787 OFFCURVE",
"575 776 CURVE SMOOTH"
);
}
);
width = 695;
},
{
layerId = "2E7D65B2-411D-4607-BF7C-7C0096008F1D";
paths = (
{
closed = 1;
nodes = (
"585 325 LINE SMOOTH",
"585 195 OFFCURVE",
"518 120 OFFCURVE",
"402 120 CURVE SMOOTH",
"287 120 OFFCURVE",
"220 195 OFFCURVE",
"220 325 CURVE SMOOTH",
"220 755 LINE SMOOTH",
"220 790 OFFCURVE",
"188 820 OFFCURVE",
"150 820 CURVE SMOOTH",
"112 820 OFFCURVE",
"80 790 OFFCURVE",
"80 755 CURVE SMOOTH",
"80 325 LINE SMOOTH",
"80 110 OFFCURVE",
"201 -20 OFFCURVE",
"402 -20 CURVE SMOOTH",
"604 -20 OFFCURVE",
"725 109 OFFCURVE",
"725 325 CURVE SMOOTH",
"725 746 LINE SMOOTH",
"725 781 OFFCURVE",
"693 811 OFFCURVE",
"655 811 CURVE SMOOTH",
"617 811 OFFCURVE",
"585 781 OFFCURVE",
"585 746 CURVE SMOOTH"
);
}
);
width = 805;
}
);
leftMetricsKey = "=H";
rightMetricsKey = "=|";
unicode = 0055;
},
{
glyphname = V;
layers = (
{
layerId = "F0262224-B9C7-46EB-9294-168F9DBDA589";
paths = (
{
closed = 1;
nodes = (
"594 545 OFFCURVE",
"506 340 OFFCURVE",
"402 100 CURVE",
"391 67 OFFCURVE",
"392 55 OFFCURVE",
"395 55 CURVE SMOOTH",
"398 55 OFFCURVE",
"398 69 OFFCURVE",
"387 100 CURVE",
"286 341 OFFCURVE",
"200 549 OFFCURVE",
"99 790 CURVE SMOOTH",
"96 798 OFFCURVE",
"89 803 OFFCURVE",
"80 803 CURVE SMOOTH",
"66 803 OFFCURVE",
"56 789 OFFCURVE",
"61 776 CURVE SMOOTH",
"380 9 LINE SMOOTH",
"389 -12 OFFCURVE",
"402 -13 OFFCURVE",
"411 8 CURVE SMOOTH",
"736 771 LINE SMOOTH",
"742 785 OFFCURVE",
"731 798 OFFCURVE",
"717 798 CURVE SMOOTH",
"708 798 OFFCURVE",
"701 792 OFFCURVE",
"698 785 CURVE SMOOTH"
);
}
);
width = 798;
},
{
layerId = "2E7D65B2-411D-4607-BF7C-7C0096008F1D";
paths = (
{
closed = 1;
nodes = (
"676 727 OFFCURVE",
"460 240 OFFCURVE",
"437 186 CURVE",
"396 75 OFFCURVE",
"384 30 OFFCURVE",
"441 30 CURVE SMOOTH",
"493 30 OFFCURVE",
"483 80 OFFCURVE",
"447 185 CURVE",
"430 226 OFFCURVE",
"221 714 OFFCURVE",
"192 787 CURVE SMOOTH",
"182 811 OFFCURVE",
"155 828 OFFCURVE",
"126 828 CURVE SMOOTH",
"79 828 OFFCURVE",
"46 781 OFFCURVE",
"65 739 CURVE SMOOTH",
"384 11 LINE SMOOTH",
"409 -47 OFFCURVE",
"473 -47 OFFCURVE",
"499 10 CURVE SMOOTH",
"824 733 LINE SMOOTH",
"843 776 OFFCURVE",
"810 823 OFFCURVE",
"763 823 CURVE SMOOTH",
"731 823 OFFCURVE",
"712 813 OFFCURVE",
"703 792 CURVE SMOOTH"
);
}
);
width = 889;
}
);
leftKerningGroup = V;
leftMetricsKey = "=A";
rightKerningGroup = V;
rightMetricsKey = "=|";
unicode = 0056;
},
{
glyphname = W;
layers = (
{
layerId = "F0262224-B9C7-46EB-9294-168F9DBDA589";
paths = (
{
closed = 1;
nodes = (
"565 551 LINE",
"353 71 LINE",
"348 51 OFFCURVE",
"345 44 OFFCURVE",
"348 44 CURVE SMOOTH",
"351 44 OFFCURVE",
"353 55 OFFCURVE",
"347 72 CURVE",
"99 791 LINE SMOOTH",
"96 799 OFFCURVE",
"89 806 OFFCURVE",
"80 806 CURVE SMOOTH",
"68 806 OFFCURVE",
"57 794 OFFCURVE",
"61 781 CURVE SMOOTH",
"324 9 LINE SMOOTH",
"328 -2 OFFCURVE",
"336 -9 OFFCURVE",
"347 -9 CURVE SMOOTH",
"358 -9 OFFCURVE",
"365 -2 OFFCURVE",
"370 8 CURVE SMOOTH",
"585 489 LINE"
);
},
{
closed = 1;
nodes = (
"469 794 OFFCURVE",
"460 783 OFFCURVE",
"460 772 CURVE SMOOTH",
"460 751 OFFCURVE",
"476 719 OFFCURVE",
"480 708 CURVE SMOOTH",
"762 12 LINE SMOOTH",
"766 1 OFFCURVE",
"774 -6 OFFCURVE",
"785 -6 CURVE SMOOTH",
"796 -6 OFFCURVE",
"805 0 OFFCURVE",
"808 11 CURVE SMOOTH",
"1044 791 LINE SMOOTH",
"1048 803 OFFCURVE",
"1038 816 OFFCURVE",
"1025 816 CURVE SMOOTH",
"1016 816 OFFCURVE",
"1009 810 OFFCURVE",
"1006 801 CURVE SMOOTH",
"788 75 LINE",
"783 59 OFFCURVE",
"783 49 OFFCURVE",
"786 49 CURVE SMOOTH",
"789 49 OFFCURVE",
"790 58 OFFCURVE",
"784 75 CURVE",
"503 776 LINE SMOOTH",
"499 787 OFFCURVE",
"491 794 OFFCURVE",
"480 794 CURVE SMOOTH"
);
}
);
width = 1105;
},
{
layerId = "2E7D65B2-411D-4607-BF7C-7C0096008F1D";
paths = (
{
closed = 1;
nodes = (
"581 624 LINE",
"379 197 LINE",
"363 151 OFFCURVE",
"352 104 OFFCURVE",
"384 104 CURVE SMOOTH",
"417 104 OFFCURVE",
"407 139 OFFCURVE",
"394 195 CURVE",
"192 774 LINE SMOOTH",
"182 802 OFFCURVE",
"158 822 OFFCURVE",
"130 822 CURVE SMOOTH",
"85 822 OFFCURVE",
"49 780 OFFCURVE",
"63 740 CURVE SMOOTH",
"305 36 LINE SMOOTH",
"315 7 OFFCURVE",
"344 -14 OFFCURVE",
"376 -14 CURVE SMOOTH",
"404 -14 OFFCURVE",
"428 4 OFFCURVE",
"442 34 CURVE SMOOTH",
"641 472 LINE"
);
},
{
closed = 1;
nodes = (
"498 817 OFFCURVE",
"467 790 OFFCURVE",
"467 757 CURVE SMOOTH",
"467 730 OFFCURVE",
"479 702 OFFCURVE",
"487 682 CURVE SMOOTH",
"739 29 LINE SMOOTH",
"751 -1 OFFCURVE",
"779 -21 OFFCURVE",
"810 -21 CURVE SMOOTH",
"843 -21 OFFCURVE",
"872 0 OFFCURVE",
"881 29 CURVE SMOOTH",
"1092 736 LINE SMOOTH",
"1104 776 OFFCURVE",
"1068 818 OFFCURVE",
"1025 818 CURVE SMOOTH",
"996 818 OFFCURVE",
"972 798 OFFCURVE",
"963 769 CURVE SMOOTH",
"794 198 LINE",
"787 132 OFFCURVE",
"775 104 OFFCURVE",
"806 104 CURVE SMOOTH",
"839 104 OFFCURVE",
"833 149 OFFCURVE",
"814 200 CURVE SMOOTH",
"600 774 LINE SMOOTH",
"589 803 OFFCURVE",
"568 817 OFFCURVE",
"535 817 CURVE SMOOTH"
);
}
);
width = 1154;
}
);
leftKerningGroup = V;
leftMetricsKey = "=A";
rightKerningGroup = V;
rightMetricsKey = "=A";
unicode = 0057;
},
{
glyphname = X;
layers = (
{
layerId = "F0262224-B9C7-46EB-9294-168F9DBDA589";
paths = (
{
closed = 1;
nodes = (
"111 798 LINE SMOOTH",
"108 803 OFFCURVE",
"101 806 OFFCURVE",
"95 806 CURVE SMOOTH",
"84 806 OFFCURVE",
"75 797 OFFCURVE",
"75 786 CURVE SMOOTH",
"75 781 OFFCURVE",
"77 777 OFFCURVE",
"79 774 CURVE SMOOTH",
"655 2 LINE SMOOTH",
"658 -3 OFFCURVE",
"665 -6 OFFCURVE",
"671 -6 CURVE SMOOTH",
"682 -6 OFFCURVE",
"691 3 OFFCURVE",
"691 14 CURVE SMOOTH",
"691 19 OFFCURVE",
"689 23 OFFCURVE",
"687 26 CURVE SMOOTH"
);
},
{
closed = 1;
nodes = (
"662 774 LINE SMOOTH",
"664 777 OFFCURVE",
"666 781 OFFCURVE",
"666 786 CURVE SMOOTH",
"666 797 OFFCURVE",
"657 806 OFFCURVE",
"646 806 CURVE SMOOTH",
"639 806 OFFCURVE",
"632 803 OFFCURVE",
"629 798 CURVE SMOOTH",
"64 26 LINE SMOOTH",
"62 23 OFFCURVE",
"60 19 OFFCURVE",
"60 14 CURVE SMOOTH",
"60 3 OFFCURVE",
"69 -6 OFFCURVE",
"80 -6 CURVE SMOOTH",
"87 -6 OFFCURVE",
"94 -2 OFFCURVE",
"97 3 CURVE SMOOTH"
);
}
);
width = 751;
},
{
layerId = "2E7D65B2-411D-4607-BF7C-7C0096008F1D";
paths = (
{
closed = 1;
nodes = (
"193 784 LINE SMOOTH",
"179 801 OFFCURVE",
"160 811 OFFCURVE",
"140 811 CURVE SMOOTH",
"104 811 OFFCURVE",
"75 782 OFFCURVE",
"75 746 CURVE SMOOTH",
"75 733 OFFCURVE",
"79 719 OFFCURVE",
"88 708 CURVE SMOOTH",
"663 16 LINE SMOOTH",
"677 -1 OFFCURVE",
"696 -11 OFFCURVE",
"716 -11 CURVE SMOOTH",
"752 -11 OFFCURVE",
"781 18 OFFCURVE",
"781 54 CURVE SMOOTH",
"781 67 OFFCURVE",
"777 81 OFFCURVE",
"768 92 CURVE SMOOTH"
);
},
{
closed = 1;
nodes = (
"743 708 LINE SMOOTH",
"752 719 OFFCURVE",
"756 733 OFFCURVE",
"756 746 CURVE SMOOTH",
"756 782 OFFCURVE",
"727 811 OFFCURVE",
"691 811 CURVE SMOOTH",
"671 811 OFFCURVE",
"650 800 OFFCURVE",
"637 784 CURVE SMOOTH",
"72 92 LINE SMOOTH",
"64 82 OFFCURVE",
"60 68 OFFCURVE",
"60 54 CURVE SMOOTH",
"60 18 OFFCURVE",
"89 -11 OFFCURVE",
"125 -11 CURVE SMOOTH",
"145 -11 OFFCURVE",
"165 0 OFFCURVE",
"179 17 CURVE SMOOTH"
);
}
);
width = 841;
}
);
leftMetricsKey = "=A";
rightMetricsKey = "=|";
unicode = 0058;
},
{
glyphname = Y;
layers = (
{
layerId = "F0262224-B9C7-46EB-9294-168F9DBDA589";
paths = (
{
closed = 1;
nodes = (
"512 679 OFFCURVE",
"398 479 OFFCURVE",
"338 383 CURVE",
"330 362 OFFCURVE",
"330 354 OFFCURVE",
"333 354 CURVE SMOOTH",
"336 354 OFFCURVE",
"338 363 OFFCURVE",
"331 383 CURVE",
"276 483 OFFCURVE",
"186 641 OFFCURVE",
"102 790 CURVE SMOOTH",
"97 798 OFFCURVE",
"87 803 OFFCURVE",
"78 803 CURVE SMOOTH",
"64 803 OFFCURVE",
"56 783 OFFCURVE",
"63 770 CURVE SMOOTH",
"318 329 LINE",
"349 328 LINE",
"609 764 LINE SMOOTH",
"617 778 OFFCURVE",
"609 798 OFFCURVE",
"595 798 CURVE SMOOTH",
"586 798 OFFCURVE",
"575 793 OFFCURVE",
"571 785 CURVE SMOOTH"
);
},
{
closed = 1;
nodes = (
"354 359 LINE",
"314 359 LINE",
"314 21 LINE SMOOTH",
"314 7 OFFCURVE",
"323 -3 OFFCURVE",
"334 -3 CURVE SMOOTH",
"345 -3 OFFCURVE",
"354 7 OFFCURVE",
"354 21 CURVE SMOOTH"
);
}
);
width = 672;
},
{
layerId = "2E7D65B2-411D-4607-BF7C-7C0096008F1D";
paths = (
{
closed = 1;
nodes = (
"517 682 OFFCURVE",
"429 562 OFFCURVE",
"380 464 CURVE SMOOTH",
"326 354 OFFCURVE",
"323 368 OFFCURVE",
"385 368 CURVE SMOOTH",
"449 368 OFFCURVE",
"425 396 OFFCURVE",
"387 465 CURVE SMOOTH",
"342 536 OFFCURVE",
"257 680 OFFCURVE",
"191 794 CURVE SMOOTH",
"179 816 OFFCURVE",
"152 831 OFFCURVE",
"126 831 CURVE SMOOTH",
"75 831 OFFCURVE",
"43 771 OFFCURVE",
"69 726 CURVE SMOOTH",
"338 282 LINE",
"423 279 LINE",
"698 719 LINE SMOOTH",
"726 765 OFFCURVE",
"695 826 OFFCURVE",
"643 826 CURVE SMOOTH",
"617 826 OFFCURVE",
"589 810 OFFCURVE",
"577 788 CURVE SMOOTH"
);
},
{
closed = 1;
nodes = (
"450 407 LINE",
"314 407 LINE",
"314 41 LINE SMOOTH",
"314 1 OFFCURVE",
"344 -31 OFFCURVE",
"382 -31 CURVE SMOOTH",
"420 -31 OFFCURVE",
"450 1 OFFCURVE",
"450 41 CURVE SMOOTH"
);
}
);
width = 769;
}
);
leftKerningGroup = Y;
leftMetricsKey = "=A";
rightKerningGroup = Y;
rightMetricsKey = "=|";
unicode = 0059;
},
{
glyphname = Z;
layers = (
{
layerId = "F0262224-B9C7-46EB-9294-168F9DBDA589";
paths = (
{
closed = 1;
nodes = (
"106 40 LINE",
"104 35 OFFCURVE",
"99 34 OFFCURVE",
"99 25 CURVE SMOOTH",
"99 20 OFFCURVE",
"107 25 OFFCURVE",
"139 56 CURVE",
"709 771 LINE SMOOTH",
"722 787 OFFCURVE",
"714 800 OFFCURVE",
"694 800 CURVE SMOOTH",
"102 800 LINE SMOOTH",
"91 800 OFFCURVE",
"82 791 OFFCURVE",
"82 780 CURVE SMOOTH",
"82 769 OFFCURVE",
"91 760 OFFCURVE",
"102 760 CURVE SMOOTH",
"669 760 LINE",
"670 764 OFFCURVE",
"672 767 OFFCURVE",
"672 771 CURVE SMOOTH",
"672 776 OFFCURVE",
"655 763 OFFCURVE",
"641 750 CURVE",
"66 29 LINE SMOOTH",
"53 13 OFFCURVE",
"61 0 OFFCURVE",
"81 0 CURVE SMOOTH",
"700 0 LINE SMOOTH",
"711 0 OFFCURVE",
"720 9 OFFCURVE",
"720 20 CURVE SMOOTH",
"720 31 OFFCURVE",
"711 40 OFFCURVE",
"700 40 CURVE SMOOTH"
);
}
);
width = 780;
},
{
layerId = "2E7D65B2-411D-4607-BF7C-7C0096008F1D";
paths = (
{
closed = 1;
nodes = (
"129 125 LINE",
"113 112 OFFCURVE",
"100 85 OFFCURVE",
"100 65 CURVE SMOOTH",
"100 12 OFFCURVE",
"218 68 OFFCURVE",
"273 129 CURVE SMOOTH",
"789 702 LINE SMOOTH",
"829 746 OFFCURVE",
"800 805 OFFCURVE",
"740 805 CURVE SMOOTH",
"148 805 LINE SMOOTH",
"112 805 OFFCURVE",
"83 776 OFFCURVE",
"83 740 CURVE SMOOTH",
"83 704 OFFCURVE",
"112 675 OFFCURVE",
"148 675 CURVE SMOOTH",
"715 675 LINE SMOOTH",
"736 675 OFFCURVE",
"763 708 OFFCURVE",
"763 731 CURVE SMOOTH",
"763 782 OFFCURVE",
"658 736 OFFCURVE",
"604 683 CURVE",
"78 98 LINE SMOOTH",
"39 54 OFFCURVE",
"68 -5 OFFCURVE",
"127 -5 CURVE SMOOTH",
"746 -5 LINE SMOOTH",
"782 -5 OFFCURVE",
"811 24 OFFCURVE",
"811 60 CURVE SMOOTH",
"811 96 OFFCURVE",
"782 125 OFFCURVE",
"746 125 CURVE SMOOTH"
);
}
);
width = 871;
}
);
leftMetricsKey = "=A";
rightMetricsKey = "=|";
unicode = 005A;
},
{
glyphname = W.ss01;
layers = (
{
layerId = "F0262224-B9C7-46EB-9294-168F9DBDA589";
paths = (
{
closed = 1;
nodes = (
"68 806 OFFCURVE",
"58 794 OFFCURVE",
"61 781 CURVE SMOOTH",
"254 19 LINE SMOOTH",
"257 8 OFFCURVE",
"266 1 OFFCURVE",
"277 1 CURVE SMOOTH",
"288 1 OFFCURVE",
"297 8 OFFCURVE",
"300 18 CURVE SMOOTH",
"498 711 LINE SMOOTH",
"502 726 OFFCURVE",
"503 736 OFFCURVE",
"500 736 CURVE SMOOTH",
"497 737 OFFCURVE",
"497 725 OFFCURVE",
"501 708 CURVE SMOOTH",
"677 12 LINE SMOOTH",
"680 1 OFFCURVE",
"689 -6 OFFCURVE",
"700 -6 CURVE SMOOTH",
"711 -6 OFFCURVE",
"720 0 OFFCURVE",
"723 11 CURVE SMOOTH",
"934 791 LINE SMOOTH",
"937 803 OFFCURVE",
"928 816 OFFCURVE",
"915 816 CURVE SMOOTH",
"906 816 OFFCURVE",
"898 810 OFFCURVE",
"896 801 CURVE SMOOTH",
"703 85 LINE SMOOTH",
"699 69 OFFCURVE",
"698 59 OFFCURVE",
"701 59 CURVE SMOOTH",
"704 59 OFFCURVE",
"703 68 OFFCURVE",
"699 85 CURVE SMOOTH",
"523 782 LINE SMOOTH",
"520 793 OFFCURVE",
"511 800 OFFCURVE",
"500 800 CURVE SMOOTH",
"489 800 OFFCURVE",
"480 793 OFFCURVE",
"477 783 CURVE SMOOTH",
"279 90 LINE SMOOTH",
"275 75 OFFCURVE",
"275 64 OFFCURVE",
"278 64 CURVE SMOOTH",
"281 64 OFFCURVE",
"280 73 OFFCURVE",
"276 90 CURVE SMOOTH",
"99 791 LINE SMOOTH",
"97 799 OFFCURVE",
"89 806 OFFCURVE",
"80 806 CURVE SMOOTH"
);
}
);
width = 995;
},
{
layerId = "2E7D65B2-411D-4607-BF7C-7C0096008F1D";
paths = (
{
closed = 1;
nodes = (
"83 821 OFFCURVE",
"52 782 OFFCURVE",
"62 740 CURVE SMOOTH",
"245 27 LINE SMOOTH",
"253 -3 OFFCURVE",
"280 -24 OFFCURVE",
"312 -24 CURVE SMOOTH",
"342 -24 OFFCURVE",
"369 -4 OFFCURVE",
"378 26 CURVE SMOOTH",
"547 594 LINE",
"566 727 OFFCURVE",
"591 751 OFFCURVE",
"545 751 CURVE SMOOTH",
"494 751 OFFCURVE",
"516 706 OFFCURVE",
"533 594 CURVE",
"689 20 LINE SMOOTH",
"698 -11 OFFCURVE",
"724 -31 OFFCURVE",
"755 -31 CURVE SMOOTH",
"787 -31 OFFCURVE",
"813 -12 OFFCURVE",
"821 19 CURVE SMOOTH",
"1022 749 LINE SMOOTH",
"1034 790 OFFCURVE",
"1002 831 OFFCURVE",
"960 831 CURVE SMOOTH",
"931 831 OFFCURVE",
"905 811 OFFCURVE",
"898 782 CURVE SMOOTH",
"766 251 LINE",
"750 140 OFFCURVE",
"707 34 OFFCURVE",
"756 34 CURVE SMOOTH",
"802 34 OFFCURVE",
"768 127 OFFCURVE",
"756 251 CURVE",
"611 754 LINE SMOOTH",
"602 785 OFFCURVE",
"576 805 OFFCURVE",
"545 805 CURVE SMOOTH",
"515 805 OFFCURVE",
"488 785 OFFCURVE",
"479 755 CURVE SMOOTH",
"322 251 LINE",
"301 147 OFFCURVE",
"267 39 OFFCURVE",
"313 39 CURVE SMOOTH",
"359 39 OFFCURVE",
"325 147 OFFCURVE",
"310 251 CURVE",
"188 771 LINE SMOOTH",
"181 800 OFFCURVE",
"154 821 OFFCURVE",
"125 821 CURVE SMOOTH"
);
}
);
width = 1085;
}
);
leftKerningGroup = V;
leftMetricsKey = "=A";
rightKerningGroup = V;
rightMetricsKey = "=A";
},
{
glyphname = a;
layers = (
{
layerId = "F0262224-B9C7-46EB-9294-168F9DBDA589";
paths = (
{
closed = 1;
nodes = (
"486 -15 OFFCURVE",
"495 -6 OFFCURVE",
"495 4 CURVE SMOOTH",
"495 16 OFFCURVE",
"484 25 OFFCURVE",
"473 24 CURVE SMOOTH",
"454 22 OFFCURVE",
"431 39 OFFCURVE",
"426 65 CURVE SMOOTH",
"416 115 OFFCURVE",
"417 209 OFFCURVE",
"430 362 CURVE SMOOTH",
"437 446 OFFCURVE",
"374 513 OFFCURVE",
"268 513 CURVE SMOOTH",
"196 513 OFFCURVE",
"89 466 OFFCURVE",
"89 411 CURVE SMOOTH",
"89 400 OFFCURVE",
"99 391 OFFCURVE",
"110 391 CURVE SMOOTH",
"117 391 OFFCURVE",
"124 396 OFFCURVE",
"127 402 CURVE SMOOTH",
"150 449 OFFCURVE",
"201 473 OFFCURVE",
"268 473 CURVE SMOOTH",
"360 473 OFFCURVE",
"395 426 OFFCURVE",
"390 366 CURVE SMOOTH",
"379 239 OFFCURVE",
"375 113 OFFCURVE",
"386 57 CURVE SMOOTH",
"395 10 OFFCURVE",
"438 -20 OFFCURVE",
"477 -16 CURVE SMOOTH"
);
},
{
closed = 1;
nodes = (
"240 -20 OFFCURVE",
"290 11 OFFCURVE",
"331 67 CURVE SMOOTH",
"333 70 OFFCURVE",
"335 75 OFFCURVE",
"335 79 CURVE SMOOTH",
"335 90 OFFCURVE",
"326 99 OFFCURVE",
"315 99 CURVE SMOOTH",
"308 99 OFFCURVE",
"301 96 OFFCURVE",
"298 91 CURVE SMOOTH",
"265 44 OFFCURVE",
"227 20 OFFCURVE",
"189 20 CURVE SMOOTH",
"137 20 OFFCURVE",
"100 52 OFFCURVE",
"100 99 CURVE SMOOTH",
"100 166 OFFCURVE",
"176 198 OFFCURVE",
"268 227 CURVE SMOOTH",
"321 244 OFFCURVE",
"395 275 OFFCURVE",
"419 320 CURVE",
"390 366 LINE",
"390 309 OFFCURVE",
"325 289 OFFCURVE",
"255 263 CURVE SMOOTH",
"166 230 OFFCURVE",
"60 191 OFFCURVE",
"60 99 CURVE SMOOTH",
"60 30 OFFCURVE",
"115 -20 OFFCURVE",
"189 -20 CURVE SMOOTH"
);
}
);
width = 525;
},
{
layerId = "2E7D65B2-411D-4607-BF7C-7C0096008F1D";
paths = (
{
closed = 1;
nodes = (
"539 -31 OFFCURVE",
"575 -2 OFFCURVE",
"575 34 CURVE SMOOTH",
"575 65 OFFCURVE",
"558 82 OFFCURVE",
"519 93 CURVE SMOOTH",
"506 97 OFFCURVE",
"500 126 OFFCURVE",
"500 147 CURVE SMOOTH",
"500 164 OFFCURVE",
"502 261 OFFCURVE",
"505 353 CURVE SMOOTH",
"509 471 OFFCURVE",
"438 533 OFFCURVE",
"303 533 CURVE SMOOTH",
"187 533 OFFCURVE",
"79 464 OFFCURVE",
"79 386 CURVE SMOOTH",
"79 350 OFFCURVE",
"109 321 OFFCURVE",
"145 321 CURVE SMOOTH",
"169 321 OFFCURVE",
"192 336 OFFCURVE",
"203 358 CURVE SMOOTH",
"218 390 OFFCURVE",
"255 409 OFFCURVE",
"303 409 CURVE SMOOTH",
"352 409 OFFCURVE",
"382 390 OFFCURVE",
"380 364 CURVE SMOOTH",
"368 240 OFFCURVE",
"367 140 OFFCURVE",
"376 70 CURVE SMOOTH",
"384 11 OFFCURVE",
"434 -31 OFFCURVE",
"496 -31 CURVE SMOOTH"
);
},
{
closed = 1;
nodes = (
"265 -31 OFFCURVE",
"305 -18 OFFCURVE",
"333 12 CURVE SMOOTH",
"344 24 OFFCURVE",
"353 47 OFFCURVE",
"353 61 CURVE SMOOTH",
"353 96 OFFCURVE",
"330 122 OFFCURVE",
"293 122 CURVE SMOOTH",
"271 122 OFFCURVE",
"254 106 OFFCURVE",
"246 103 CURVE SMOOTH",
"231 98 OFFCURVE",
"218 95 OFFCURVE",
"209 95 CURVE SMOOTH",
"189 95 OFFCURVE",
"175 105 OFFCURVE",
"175 118 CURVE SMOOTH",
"175 142 OFFCURVE",
"203 162 OFFCURVE",
"275 188 CURVE SMOOTH",
"386 227 OFFCURVE",
"443 273 OFFCURVE",
"450 330 CURVE",
"380 372 LINE",
"380 348 OFFCURVE",
"341 324 OFFCURVE",
"256 297 CURVE SMOOTH",
"120 256 OFFCURVE",
"50 190 OFFCURVE",
"50 102 CURVE SMOOTH",
"50 22 OFFCURVE",
"114 -31 OFFCURVE",
"209 -31 CURVE SMOOTH"
);
}
);
width = 605;
}
);
leftKerningGroup = o;
leftMetricsKey = "=h";
rightKerningGroup = o;
rightMetricsKey = "=h-10";
unicode = 0061;
},
{
glyphname = ae;
layers = (
{
layerId = "F0262224-B9C7-46EB-9294-168F9DBDA589";
paths = (
{
closed = 1;
nodes = (
"386 334 OFFCURVE",
"422 324 OFFCURVE",
"430 362 CURVE",
"437 446 OFFCURVE",
"374 513 OFFCURVE",
"268 513 CURVE SMOOTH",
"196 513 OFFCURVE",
"89 466 OFFCURVE",
"89 411 CURVE SMOOTH",
"89 400 OFFCURVE",
"99 391 OFFCURVE",
"110 391 CURVE SMOOTH",
"117 391 OFFCURVE",
"124 396 OFFCURVE",
"127 402 CURVE SMOOTH",
"150 449 OFFCURVE",
"201 473 OFFCURVE",
"268 473 CURVE SMOOTH",
"360 473 OFFCURVE",
"395 426 OFFCURVE",
"390 366 CURVE"
);
},
{
closed = 1;
nodes = (
"240 -20 OFFCURVE",
"290 11 OFFCURVE",
"331 67 CURVE SMOOTH",
"333 70 OFFCURVE",
"335 75 OFFCURVE",
"335 79 CURVE SMOOTH",
"335 90 OFFCURVE",
"326 99 OFFCURVE",
"315 99 CURVE SMOOTH",
"308 99 OFFCURVE",
"301 96 OFFCURVE",
"298 91 CURVE SMOOTH",
"265 44 OFFCURVE",
"227 20 OFFCURVE",
"189 20 CURVE SMOOTH",
"137 20 OFFCURVE",
"100 52 OFFCURVE",
"100 99 CURVE SMOOTH",
"100 166 OFFCURVE",
"176 198 OFFCURVE",
"268 227 CURVE SMOOTH",
"321 244 OFFCURVE",
"395 275 OFFCURVE",
"419 320 CURVE",
"390 366 LINE",
"390 309 OFFCURVE",
"325 289 OFFCURVE",
"255 263 CURVE SMOOTH",
"166 230 OFFCURVE",
"60 191 OFFCURVE",
"60 99 CURVE SMOOTH",
"60 30 OFFCURVE",
"115 -20 OFFCURVE",
"189 -20 CURVE SMOOTH"
);
},
{
closed = 1;
nodes = (
"657 -19 OFFCURVE",
"739 11 OFFCURVE",
"771 54 CURVE SMOOTH",
"774 58 OFFCURVE",
"777 64 OFFCURVE",
"777 68 CURVE SMOOTH",
"777 79 OFFCURVE",
"768 88 OFFCURVE",
"757 88 CURVE SMOOTH",
"751 88 OFFCURVE",
"744 85 OFFCURVE",
"742 82 CURVE SMOOTH",
"718 47 OFFCURVE",
"650 21 OFFCURVE",
"582 21 CURVE SMOOTH",
"487 21 OFFCURVE",
"416 113 OFFCURVE",
"416 236 CURVE SMOOTH",
"416 370 OFFCURVE",
"492 470 OFFCURVE",
"593 470 CURVE SMOOTH",
"664 470 OFFCURVE",
"718 425 OFFCURVE",
"718 365 CURVE SMOOTH",
"718 318 OFFCURVE",
"664 282 OFFCURVE",
"593 282 CURVE SMOOTH",
"524 282 OFFCURVE",
"453 316 OFFCURVE",
"426 361 CURVE",
"409 323 LINE",
"430 277 OFFCURVE",
"509 242 OFFCURVE",
"593 242 CURVE SMOOTH",
"687 242 OFFCURVE",
"758 295 OFFCURVE",
"758 365 CURVE SMOOTH",
"758 448 OFFCURVE",
"687 510 OFFCURVE",
"593 510 CURVE SMOOTH",
"448 510 OFFCURVE",
"373 397 OFFCURVE",
"376 240 CURVE SMOOTH",
"379 95 OFFCURVE",
"443 -19 OFFCURVE",
"582 -19 CURVE SMOOTH"
);
}
);
width = 827;
},
{
layerId = "2E7D65B2-411D-4607-BF7C-7C0096008F1D";
paths = (
{
closed = 1;
nodes = (
"380 232 OFFCURVE",
"461 230 OFFCURVE",
"505 353 CURVE",
"510 470 OFFCURVE",
"438 533 OFFCURVE",
"303 533 CURVE SMOOTH",
"187 533 OFFCURVE",
"79 464 OFFCURVE",
"79 386 CURVE SMOOTH",
"79 350 OFFCURVE",
"109 321 OFFCURVE",
"145 321 CURVE SMOOTH",
"169 321 OFFCURVE",
"192 336 OFFCURVE",
"203 358 CURVE SMOOTH",
"218 390 OFFCURVE",
"255 409 OFFCURVE",
"303 409 CURVE SMOOTH",
"352 409 OFFCURVE",
"380 390 OFFCURVE",
"380 364 CURVE SMOOTH"
);
},
{
closed = 1;
nodes = (
"265 -31 OFFCURVE",
"317 -10 OFFCURVE",
"344 21 CURVE SMOOTH",
"355 33 OFFCURVE",
"364 56 OFFCURVE",
"364 70 CURVE SMOOTH",
"364 105 OFFCURVE",
"336 131 OFFCURVE",
"299 131 CURVE SMOOTH",
"281 131 OFFCURVE",
"266 120 OFFCURVE",
"256 112 CURVE SMOOTH",
"234 97 OFFCURVE",
"233 95 OFFCURVE",
"209 95 CURVE SMOOTH",
"189 95 OFFCURVE",
"175 105 OFFCURVE",
"175 118 CURVE SMOOTH",
"175 142 OFFCURVE",
"203 162 OFFCURVE",
"275 188 CURVE SMOOTH",
"386 227 OFFCURVE",
"443 273 OFFCURVE",
"450 330 CURVE",
"380 372 LINE",
"380 348 OFFCURVE",
"341 324 OFFCURVE",
"256 297 CURVE SMOOTH",
"120 256 OFFCURVE",
"50 190 OFFCURVE",
"50 102 CURVE SMOOTH",
"50 22 OFFCURVE",
"114 -31 OFFCURVE",
"209 -31 CURVE SMOOTH"
);
},
{
closed = 1;
nodes = (
"692 -34 OFFCURVE",
"759 -2 OFFCURVE",
"809 51 CURVE SMOOTH",
"824 67 OFFCURVE",
"825 88 OFFCURVE",
"825 100 CURVE SMOOTH",
"825 132 OFFCURVE",
"796 157 OFFCURVE",
"760 157 CURVE SMOOTH",
"745 157 OFFCURVE",
"728 149 OFFCURVE",
"711 135 CURVE SMOOTH",
"682 110 OFFCURVE",
"651 96 OFFCURVE",
"629 96 CURVE SMOOTH",
"544 96 OFFCURVE",
"508 136 OFFCURVE",
"508 231 CURVE SMOOTH",
"508 331 OFFCURVE",
"557 405 OFFCURVE",
"622 405 CURVE SMOOTH",
"662 405 OFFCURVE",
"690 384 OFFCURVE",
"690 356 CURVE SMOOTH",
"690 334 OFFCURVE",
"664 317 OFFCURVE",
"627 317 CURVE SMOOTH",
"581 317 OFFCURVE",
"519 342 OFFCURVE",
"495 373 CURVE",
"420 315 LINE",
"451 255 OFFCURVE",
"487 194 OFFCURVE",
"627 194 CURVE SMOOTH",
"737 194 OFFCURVE",
"820 263 OFFCURVE",
"820 356 CURVE SMOOTH",
"820 458 OFFCURVE",
"735 535 OFFCURVE",
"622 535 CURVE SMOOTH",
"478 535 OFFCURVE",
"378 412 OFFCURVE",
"378 235 CURVE SMOOTH",
"378 68 OFFCURVE",
"472 -34 OFFCURVE",
"629 -34 CURVE SMOOTH"
);
}
);
width = 865;
}
);
leftMetricsKey = "=a";
rightMetricsKey = "=e";
unicode = 00E6;
},
{
glyphname = b;
layers = (
{
hints = (
{
origin = "{2, 5}";
target = "{2, 6}";
type = Cap;
name = _cap.top;
}
);
layerId = "F0262224-B9C7-46EB-9294-168F9DBDA589";
paths = (
{
closed = 1;
nodes = (
"464 -17 OFFCURVE",
"581 98 OFFCURVE",
"581 252 CURVE SMOOTH",
"581 405 OFFCURVE",
"464 510 OFFCURVE",
"334 510 CURVE SMOOTH",
"204 510 OFFCURVE",
"106 405 OFFCURVE",
"106 252 CURVE SMOOTH",
"106 98 OFFCURVE",
"173 -17 OFFCURVE",
"334 -17 CURVE SMOOTH"
);
},
{
closed = 1;
nodes = (
"227 23 OFFCURVE",
"134 121 OFFCURVE",
"134 252 CURVE SMOOTH",
"134 382 OFFCURVE",
"227 470 OFFCURVE",
"334 470 CURVE SMOOTH",
"441 470 OFFCURVE",
"541 382 OFFCURVE",
"541 252 CURVE SMOOTH",
"541 121 OFFCURVE",
"441 23 OFFCURVE",
"334 23 CURVE SMOOTH"
);
},
{
closed = 1;
nodes = (
"208 15 OFFCURVE",
"127 138 OFFCURVE",
"127 210 CURVE SMOOTH",
"127 430 OFFCURVE",
"133 660 OFFCURVE",
"136 880 CURVE",
"96 880 LINE",
"93 621 OFFCURVE",
"89 428 OFFCURVE",
"87 248 CURVE SMOOTH",
"86 157 OFFCURVE",
"133 74 OFFCURVE",
"184 34 CURVE SMOOTH"
);
}
);
width = 631;
},
{
hints = (
{
origin = "{2, 5}";
target = "{2, 6}";
type = Cap;
name = _cap.top;
}
);
layerId = "2E7D65B2-411D-4607-BF7C-7C0096008F1D";
paths = (
{
closed = 1;
nodes = (
"542 -32 OFFCURVE",
"660 87 OFFCURVE",
"660 252 CURVE SMOOTH",
"660 413 OFFCURVE",
"539 535 OFFCURVE",
"378 535 CURVE SMOOTH",
"228 535 OFFCURVE",
"115 413 OFFCURVE",
"115 252 CURVE SMOOTH",
"115 81 OFFCURVE",
"186 -32 OFFCURVE",
"378 -32 CURVE SMOOTH"
);
},
{
closed = 1;
nodes = (
"293 98 OFFCURVE",
"235 160 OFFCURVE",
"235 252 CURVE SMOOTH",
"235 340 OFFCURVE",
"296 405 OFFCURVE",
"378 405 CURVE SMOOTH",
"465 405 OFFCURVE",
"530 340 OFFCURVE",
"530 252 CURVE SMOOTH",
"530 161 OFFCURVE",
"468 98 OFFCURVE",
"378 98 CURVE SMOOTH"
);
},
{
closed = 1;
nodes = (
"283 -43 OFFCURVE",
"211 84 OFFCURVE",
"211 199 CURVE SMOOTH",
"211 429 OFFCURVE",
"213 648 OFFCURVE",
"216 879 CURVE",
"86 879 LINE",
"85 672 OFFCURVE",
"83 464 OFFCURVE",
"83 257 CURVE SMOOTH",
"83 160 OFFCURVE",
"118 87 OFFCURVE",
"188 32 CURVE SMOOTH"
);
}
);
width = 700;
}
);
leftMetricsKey = "=h-20";
rightKerningGroup = o;
rightMetricsKey = "=o";
unicode = 0062;
},
{
glyphname = c;
layers = (
{
layerId = "F0262224-B9C7-46EB-9294-168F9DBDA589";
paths = (
{
closed = 1;
nodes = (
"374 -19 OFFCURVE",
"453 12 OFFCURVE",
"485 54 CURVE SMOOTH",
"488 59 OFFCURVE",
"491 65 OFFCURVE",
"491 68 CURVE SMOOTH",
"491 79 OFFCURVE",
"482 88 OFFCURVE",
"471 88 CURVE SMOOTH",
"465 88 OFFCURVE",
"458 85 OFFCURVE",
"456 82 CURVE SMOOTH",
"431 47 OFFCURVE",
"364 21 OFFCURVE",
"292 21 CURVE SMOOTH",
"180 21 OFFCURVE",
"90 111 OFFCURVE",
"90 231 CURVE SMOOTH",
"90 368 OFFCURVE",
"179 470 OFFCURVE",
"290 470 CURVE SMOOTH",
"370 470 OFFCURVE",
"428 428 OFFCURVE",
"432 371 CURVE SMOOTH",
"436 331 OFFCURVE",
"475 333 OFFCURVE",
"472 371 CURVE SMOOTH",
"465 450 OFFCURVE",
"391 510 OFFCURVE",
"290 510 CURVE SMOOTH",
"153 510 OFFCURVE",
"47 392 OFFCURVE",
"50 235 CURVE SMOOTH",
"52 90 OFFCURVE",
"159 -19 OFFCURVE",
"292 -19 CURVE SMOOTH"
);
}
);
width = 541;
},
{
layerId = "2E7D65B2-411D-4607-BF7C-7C0096008F1D";
paths = (
{
closed = 1;
nodes = (
"398 -24 OFFCURVE",
"487 14 OFFCURVE",
"529 66 CURVE SMOOTH",
"538 77 OFFCURVE",
"544 95 OFFCURVE",
"544 108 CURVE SMOOTH",
"544 145 OFFCURVE",
"516 173 OFFCURVE",
"479 173 CURVE SMOOTH",
"463 173 OFFCURVE",
"443 164 OFFCURVE",
"429 151 CURVE SMOOTH",
"399 124 OFFCURVE",
"358 106 OFFCURVE",
"311 106 CURVE SMOOTH",
"233 106 OFFCURVE",
"170 160 OFFCURVE",
"170 240 CURVE SMOOTH",
"170 337 OFFCURVE",
"227 387 OFFCURVE",
"309 387 CURVE SMOOTH",
"359 387 OFFCURVE",
"399 361 OFFCURVE",
"402 329 CURVE SMOOTH",
"411 230 OFFCURVE",
"539 240 OFFCURVE",
"532 336 CURVE SMOOTH",
"524 440 OFFCURVE",
"427 517 OFFCURVE",
"309 517 CURVE SMOOTH",
"150 517 OFFCURVE",
"37 412 OFFCURVE",
"40 244 CURVE SMOOTH",
"42 88 OFFCURVE",
"161 -24 OFFCURVE",
"311 -24 CURVE SMOOTH"
);
}
);
width = 584;
}
);
leftKerningGroup = o;
leftMetricsKey = "=o";
rightKerningGroup = o;
rightMetricsKey = "=|";
unicode = 0063;
},
{
glyphname = d;
layers = (
{
hints = (
{
origin = "{2, 12}";
target = "{2, 0}";
type = Cap;
name = _cap.top;
}
);
layerId = "F0262224-B9C7-46EB-9294-168F9DBDA589";
paths = (
{
closed = 1;
nodes = (
"427 -7 OFFCURVE",
"525 108 OFFCURVE",
"525 262 CURVE SMOOTH",
"525 409 OFFCURVE",
"427 520 OFFCURVE",
"297 520 CURVE SMOOTH",
"156 520 OFFCURVE",
"50 409 OFFCURVE",
"50 262 CURVE SMOOTH",
"50 108 OFFCURVE",
"156 -7 OFFCURVE",
"297 -7 CURVE SMOOTH"
);
},
{
closed = 1;
nodes = (
"179 33 OFFCURVE",
"90 131 OFFCURVE",
"90 262 CURVE SMOOTH",
"90 387 OFFCURVE",
"179 480 OFFCURVE",
"297 480 CURVE SMOOTH",
"410 480 OFFCURVE",
"495 387 OFFCURVE",
"495 262 CURVE SMOOTH",
"495 131 OFFCURVE",
"410 33 OFFCURVE",
"297 33 CURVE SMOOTH"
);
},
{
closed = 1;
nodes = (
"533 0 LINE",
"533 57 OFFCURVE",
"542 828 OFFCURVE",
"542 870 CURVE SMOOTH",
"542 881 OFFCURVE",
"533 890 OFFCURVE",
"522 890 CURVE",
"511 890 OFFCURVE",
"502 881 OFFCURVE",
"502 870 CURVE SMOOTH",
"502 822 OFFCURVE",
"493 60 OFFCURVE",
"493 0 CURVE"
);
}
);
width = 629;
},
{
hints = (
{
origin = "{2, 12}";
target = "{2, 0}";
type = Cap;
name = _cap.top;
}
);
layerId = "2E7D65B2-411D-4607-BF7C-7C0096008F1D";
paths = (
{
closed = 1;
nodes = (
"475 -22 OFFCURVE",
"585 87 OFFCURVE",
"585 252 CURVE SMOOTH",
"585 413 OFFCURVE",
"472 535 OFFCURVE",
"322 535 CURVE SMOOTH",
"161 535 OFFCURVE",
"40 413 OFFCURVE",
"40 252 CURVE SMOOTH",
"40 87 OFFCURVE",
"158 -22 OFFCURVE",
"322 -22 CURVE SMOOTH"
);
},
{
closed = 1;
nodes = (
"232 108 OFFCURVE",
"171 160 OFFCURVE",
"171 251 CURVE SMOOTH",
"171 339 OFFCURVE",
"236 404 OFFCURVE",
"323 404 CURVE SMOOTH",
"405 404 OFFCURVE",
"465 340 OFFCURVE",
"465 252 CURVE SMOOTH",
"465 160 OFFCURVE",
"407 108 OFFCURVE",
"322 108 CURVE SMOOTH"
);
},
{
closed = 1;
nodes = (
"594 0 LINE",
"594 22 OFFCURVE",
"603 824 OFFCURVE",
"603 831 CURVE SMOOTH",
"603 869 OFFCURVE",
"576 895 OFFCURVE",
"536 895 CURVE SMOOTH",
"501 895 OFFCURVE",
"473 866 OFFCURVE",
"473 831 CURVE SMOOTH",
"473 826 OFFCURVE",
"464 24 OFFCURVE",
"464 0 CURVE"
);
}
);
width = 690;
},
{
associatedMasterId = "F0262224-B9C7-46EB-9294-168F9DBDA589";
hints = (
{
origin = "{2, 3}";
target = "{2, 4}";
type = Cap;
name = _cap.top;
},
{
origin = "{2, 7}";
target = "{2, 0}";
type = Cap;
name = _cap.top;
}
);
layerId = "04EC7864-68EF-48C4-9D0B-E1F48A5E3E14";
name = "Sep 24 19, 00:04";
paths = (
{
closed = 1;
nodes = (
"427 -7 OFFCURVE",
"525 108 OFFCURVE",
"525 262 CURVE SMOOTH",
"525 409 OFFCURVE",
"427 520 OFFCURVE",
"297 520 CURVE SMOOTH",
"156 520 OFFCURVE",
"50 409 OFFCURVE",
"50 262 CURVE SMOOTH",
"50 108 OFFCURVE",
"156 -7 OFFCURVE",
"297 -7 CURVE SMOOTH"
);
},
{
closed = 1;
nodes = (
"179 33 OFFCURVE",
"90 131 OFFCURVE",
"90 262 CURVE SMOOTH",
"90 387 OFFCURVE",
"179 480 OFFCURVE",
"297 480 CURVE SMOOTH",
"410 480 OFFCURVE",
"495 387 OFFCURVE",
"495 262 CURVE SMOOTH",
"495 131 OFFCURVE",
"410 33 OFFCURVE",
"297 33 CURVE SMOOTH"
);
},
{
closed = 1;
nodes = (
"533 0 LINE",
"533 57 OFFCURVE",
"542 841 OFFCURVE",
"542 880 CURVE",
"502 880 LINE",
"502 838 OFFCURVE",
"493 60 OFFCURVE",
"493 0 CURVE"
);
}
);
width = 629;
},
{
associatedMasterId = "2E7D65B2-411D-4607-BF7C-7C0096008F1D";
hints = (
{
origin = "{2, 3}";
target = "{2, 4}";
type = Cap;
name = _cap.top;
},
{
origin = "{2, 7}";
target = "{2, 0}";
type = Cap;
name = _cap.top;
}
);
layerId = "CCC2E2F6-F56F-4B50-8A08-782A501A5D4D";
name = "Sep 24 19, 00:04";
paths = (
{
closed = 1;
nodes = (
"454 -17 OFFCURVE",
"555 98 OFFCURVE",
"555 252 CURVE SMOOTH",
"555 399 OFFCURVE",
"454 520 OFFCURVE",
"307 520 CURVE SMOOTH",
"149 520 OFFCURVE",
"40 399 OFFCURVE",
"40 252 CURVE SMOOTH",
"40 98 OFFCURVE",
"149 -17 OFFCURVE",
"307 -17 CURVE SMOOTH"
);
},
{
closed = 1;
nodes = (
"206 83 OFFCURVE",
"140 155 OFFCURVE",
"140 252 CURVE SMOOTH",
"140 342 OFFCURVE",
"206 420 OFFCURVE",
"307 420 CURVE SMOOTH",
"403 420 OFFCURVE",
"465 342 OFFCURVE",
"465 252 CURVE SMOOTH",
"465 155 OFFCURVE",
"403 83 OFFCURVE",
"307 83 CURVE SMOOTH"
);
},
{
closed = 1;
nodes = (
"564 0 LINE",
"564 31 OFFCURVE",
"573 862 OFFCURVE",
"573 880 CURVE",
"473 880 LINE",
"473 861 OFFCURVE",
"464 33 OFFCURVE",
"464 0 CURVE"
);
}
);
width = 670;
}
);
leftKerningGroup = o;
leftMetricsKey = "=o";
rightKerningGroup = o;
rightMetricsKey = "=h";
unicode = 0064;
},
{
glyphname = eth;
layers = (
{
layerId = "F0262224-B9C7-46EB-9294-168F9DBDA589";
paths = (
{
closed = 1;
nodes = (
"486 410 OFFCURVE",
"414 510 OFFCURVE",
"287 510 CURVE SMOOTH",
"160 510 OFFCURVE",
"50 400 OFFCURVE",
"50 246 CURVE SMOOTH",
"50 105 OFFCURVE",
"155 -10 OFFCURVE",
"286 -10 CURVE SMOOTH",
"429 -10 OFFCURVE",
"527 113 OFFCURVE",
"527 277 CURVE SMOOTH",
"527 451 OFFCURVE",
"416 736 OFFCURVE",
"291 880 CURVE SMOOTH",
"288 884 OFFCURVE",
"281 887 OFFCURVE",
"275 887 CURVE SMOOTH",
"264 887 OFFCURVE",
"255 878 OFFCURVE",
"255 866 CURVE SMOOTH",
"255 861 OFFCURVE",
"257 856 OFFCURVE",
"260 853 CURVE SMOOTH",
"397 697 OFFCURVE",
"487 424 OFFCURVE",
"487 277 CURVE SMOOTH",
"487 136 OFFCURVE",
"407 30 OFFCURVE",
"286 30 CURVE SMOOTH",
"177 30 OFFCURVE",
"90 127 OFFCURVE",
"90 246 CURVE SMOOTH",
"90 378 OFFCURVE",
"183 470 OFFCURVE",
"287 470 CURVE SMOOTH",
"396 470 OFFCURVE",
"481 378 OFFCURVE",
"487 277 CURVE",
"521 300 LINE"
);
},
{
closed = 1;
nodes = (
"275 680 LINE SMOOTH",
"268 677 OFFCURVE",
"262 670 OFFCURVE",
"262 662 CURVE SMOOTH",
"262 648 OFFCURVE",
"278 638 OFFCURVE",
"290 643 CURVE SMOOTH",
"499 730 LINE SMOOTH",
"506 733 OFFCURVE",
"512 740 OFFCURVE",
"512 748 CURVE SMOOTH",
"512 762 OFFCURVE",
"496 772 OFFCURVE",
"484 767 CURVE SMOOTH"
);
}
);
width = 577;
},
{
layerId = "2E7D65B2-411D-4607-BF7C-7C0096008F1D";
paths = (
{
closed = 1;
nodes = (
"568 459 OFFCURVE",
"465 555 OFFCURVE",
"322 555 CURVE SMOOTH",
"162 555 OFFCURVE",
"40 425 OFFCURVE",
"40 256 CURVE SMOOTH",
"40 93 OFFCURVE",
"163 -35 OFFCURVE",
"321 -35 CURVE SMOOTH",
"489 -35 OFFCURVE",
"607 98 OFFCURVE",
"607 287 CURVE SMOOTH",
"607 471 OFFCURVE",
"486 735 OFFCURVE",
"361 888 CURVE SMOOTH",
"349 902 OFFCURVE",
"328 912 OFFCURVE",
"310 912 CURVE SMOOTH",
"274 912 OFFCURVE",
"245 883 OFFCURVE",
"245 846 CURVE SMOOTH",
"245 830 OFFCURVE",
"252 813 OFFCURVE",
"262 802 CURVE SMOOTH",
"403 662 OFFCURVE",
"477 427 OFFCURVE",
"477 287 CURVE SMOOTH",
"477 170 OFFCURVE",
"415 95 OFFCURVE",
"321 95 CURVE SMOOTH",
"235 95 OFFCURVE",
"170 164 OFFCURVE",
"170 256 CURVE SMOOTH",
"170 354 OFFCURVE",
"234 425 OFFCURVE",
"322 425 CURVE SMOOTH",
"411 425 OFFCURVE",
"481 356 OFFCURVE",
"477 268 CURVE",
"610 284 LINE"
);
},
{
closed = 1;
nodes = (
"292 722 LINE SMOOTH",
"268 711 OFFCURVE",
"252 687 OFFCURVE",
"252 662 CURVE SMOOTH",
"252 616 OFFCURVE",
"300 584 OFFCURVE",
"343 601 CURVE SMOOTH",
"552 688 LINE SMOOTH",
"576 699 OFFCURVE",
"592 723 OFFCURVE",
"592 748 CURVE SMOOTH",
"592 794 OFFCURVE",
"544 826 OFFCURVE",
"501 809 CURVE SMOOTH"
);
}
);
width = 650;
}
);
leftMetricsKey = "=o";
rightMetricsKey = "=o";
unicode = 00F0;
},
{
glyphname = e;
layers = (
{
layerId = "F0262224-B9C7-46EB-9294-168F9DBDA589";
paths = (
{
closed = 1;
nodes = (
"385 -9 OFFCURVE",
"469 18 OFFCURVE",
"505 64 CURVE SMOOTH",
"509 69 OFFCURVE",
"511 73 OFFCURVE",
"511 78 CURVE SMOOTH",
"511 89 OFFCURVE",
"502 98 OFFCURVE",
"491 98 CURVE SMOOTH",
"486 98 OFFCURVE",
"478 95 OFFCURVE",
"476 92 CURVE SMOOTH",
"448 51 OFFCURVE",
"380 31 OFFCURVE",
"296 31 CURVE SMOOTH",
"178 31 OFFCURVE",
"90 116 OFFCURVE",
"90 236 CURVE SMOOTH",
"90 373 OFFCURVE",
"187 470 OFFCURVE",
"307 470 CURVE SMOOTH",
"394 470 OFFCURVE",
"452 422 OFFCURVE",
"452 365 CURVE SMOOTH",
"452 314 OFFCURVE",
"397 282 OFFCURVE",
"307 282 CURVE SMOOTH",
"201 282 OFFCURVE",
"120 327 OFFCURVE",
"100 361 CURVE",
"83 323 LINE",
"101 284 OFFCURVE",
"206 242 OFFCURVE",
"307 242 CURVE SMOOTH",
"420 242 OFFCURVE",
"492 291 OFFCURVE",
"492 365 CURVE SMOOTH",
"492 444 OFFCURVE",
"417 510 OFFCURVE",
"307 510 CURVE SMOOTH",
"162 510 OFFCURVE",
"47 397 OFFCURVE",
"50 240 CURVE SMOOTH",
"52 95 OFFCURVE",
"157 -9 OFFCURVE",
"296 -9 CURVE SMOOTH"
);
}
);
width = 561;
},
{
layerId = "2E7D65B2-411D-4607-BF7C-7C0096008F1D";
paths = (
{
closed = 1;
nodes = (
"408 -34 OFFCURVE",
"492 -2 OFFCURVE",
"541 51 CURVE SMOOTH",
"556 67 OFFCURVE",
"557 88 OFFCURVE",
"557 100 CURVE SMOOTH",
"557 132 OFFCURVE",
"536 157 OFFCURVE",
"500 157 CURVE SMOOTH",
"477 157 OFFCURVE",
"461 148 OFFCURVE",
"444 136 CURVE SMOOTH",
"409 111 OFFCURVE",
"382 96 OFFCURVE",
"321 96 CURVE SMOOTH",
"227 96 OFFCURVE",
"170 147 OFFCURVE",
"170 231 CURVE SMOOTH",
"170 344 OFFCURVE",
"221 395 OFFCURVE",
"314 395 CURVE SMOOTH",
"377 395 OFFCURVE",
"422 375 OFFCURVE",
"422 348 CURVE SMOOTH",
"422 327 OFFCURVE",
"380 307 OFFCURVE",
"319 307 CURVE SMOOTH",
"244 307 OFFCURVE",
"189 336 OFFCURVE",
"156 373 CURVE",
"82 315 LINE",
"119 236 OFFCURVE",
"202 194 OFFCURVE",
"319 194 CURVE SMOOTH",
"455 194 OFFCURVE",
"552 260 OFFCURVE",
"552 356 CURVE SMOOTH",
"552 460 OFFCURVE",
"451 525 OFFCURVE",
"314 525 CURVE SMOOTH",
"162 525 OFFCURVE",
"40 402 OFFCURVE",
"40 235 CURVE SMOOTH",
"40 77 OFFCURVE",
"156 -34 OFFCURVE",
"321 -34 CURVE SMOOTH"
);
}
);
width = 597;
}
);
leftKerningGroup = o;
leftMetricsKey = "=o";
rightKerningGroup = o;
rightMetricsKey = "=o";
unicode = 0065;
},
{
glyphname = f;
layers = (
{
layerId = "F0262224-B9C7-46EB-9294-168F9DBDA589";
paths = (
{
closed = 1;
nodes = (
"165 -7 OFFCURVE",
"174 2 OFFCURVE",
"174 13 CURVE SMOOTH",
"176 673 LINE SMOOTH",
"176 767 OFFCURVE",
"217 836 OFFCURVE",
"278 843 CURVE SMOOTH",
"287 844 OFFCURVE",
"295 852 OFFCURVE",
"295 862 CURVE SMOOTH",
"295 875 OFFCURVE",
"283 884 OFFCURVE",
"272 882 CURVE SMOOTH",
"190 867 OFFCURVE",
"136 787 OFFCURVE",
"136 673 CURVE SMOOTH",
"134 13 LINE SMOOTH",
"134 2 OFFCURVE",
"143 -7 OFFCURVE",
"154 -7 CURVE SMOOTH"
);
},
{
closed = 1;
nodes = (
"293 460 LINE SMOOTH",
"304 460 OFFCURVE",
"313 469 OFFCURVE",
"313 480 CURVE SMOOTH",
"313 491 OFFCURVE",
"304 500 OFFCURVE",
"293 500 CURVE SMOOTH",
"70 500 LINE SMOOTH",
"59 500 OFFCURVE",
"50 491 OFFCURVE",
"50 480 CURVE SMOOTH",
"50 469 OFFCURVE",
"59 460 OFFCURVE",
"70 460 CURVE SMOOTH"
);
}
);
width = 353;
},
{
layerId = "2E7D65B2-411D-4607-BF7C-7C0096008F1D";
paths = (
{
closed = 1;
nodes = (
"214 -22 OFFCURVE",
"243 7 OFFCURVE",
"243 43 CURVE SMOOTH",
"245 653 LINE SMOOTH",
"245 722 OFFCURVE",
"271 772 OFFCURVE",
"308 778 CURVE SMOOTH",
"340 783 OFFCURVE",
"364 811 OFFCURVE",
"364 842 CURVE SMOOTH",
"364 882 OFFCURVE",
"328 913 OFFCURVE",
"289 907 CURVE SMOOTH",
"184 890 OFFCURVE",
"115 788 OFFCURVE",
"115 653 CURVE SMOOTH",
"113 43 LINE SMOOTH",
"113 7 OFFCURVE",
"142 -22 OFFCURVE",
"178 -22 CURVE SMOOTH"
);
},
{
closed = 1;
nodes = (
"317 395 LINE SMOOTH",
"353 395 OFFCURVE",
"382 424 OFFCURVE",
"382 460 CURVE SMOOTH",
"382 496 OFFCURVE",
"353 525 OFFCURVE",
"317 525 CURVE SMOOTH",
"90 525 LINE SMOOTH",
"54 525 OFFCURVE",
"25 496 OFFCURVE",
"25 460 CURVE SMOOTH",
"25 424 OFFCURVE",
"54 395 OFFCURVE",
"90 395 CURVE SMOOTH"
);
}
);
width = 407;
}
);
leftMetricsKey = "=t";
unicode = 0066;
},
{
glyphname = g;
layers = (
{
layerId = "F0262224-B9C7-46EB-9294-168F9DBDA589";
paths = (
{
closed = 1;
nodes = (
"389 -300 OFFCURVE",
"487 -239 OFFCURVE",
"487 -136 CURVE SMOOTH",
"487 -46 OFFCURVE",
"431 -10 OFFCURVE",
"285 11 CURVE SMOOTH",
"227 19 OFFCURVE",
"200 38 OFFCURVE",
"200 61 CURVE SMOOTH",
"200 87 OFFCURVE",
"235 118 OFFCURVE",
"281 118 CURVE",
"244 142 LINE",
"186 137 OFFCURVE",
"155 100 OFFCURVE",
"155 61 CURVE SMOOTH",
"155 18 OFFCURVE",
"196 -15 OFFCURVE",
"285 -29 CURVE SMOOTH",
"399 -47 OFFCURVE",
"447 -74 OFFCURVE",
"447 -136 CURVE SMOOTH",
"447 -214 OFFCURVE",
"364 -260 OFFCURVE",
"262 -260 CURVE SMOOTH",
"178 -260 OFFCURVE",
"109 -217 OFFCURVE",
"77 -159 CURVE SMOOTH",
"74 -154 OFFCURVE",
"67 -149 OFFCURVE",
"60 -149 CURVE SMOOTH",
"49 -149 OFFCURVE",
"40 -158 OFFCURVE",
"40 -169 CURVE SMOOTH",
"40 -173 OFFCURVE",
"41 -176 OFFCURVE",
"43 -179 CURVE SMOOTH",
"86 -255 OFFCURVE",
"171 -300 OFFCURVE",
"262 -300 CURVE SMOOTH"
);
},
{
closed = 1;
nodes = (
"385 118 OFFCURVE",
"474 201 OFFCURVE",
"474 312 CURVE SMOOTH",
"474 425 OFFCURVE",
"385 510 OFFCURVE",
"267 510 CURVE SMOOTH",
"148 510 OFFCURVE",
"59 425 OFFCURVE",
"59 312 CURVE SMOOTH",
"59 201 OFFCURVE",
"148 118 OFFCURVE",
"267 118 CURVE SMOOTH"
);
},
{
closed = 1;
nodes = (
"171 158 OFFCURVE",
"99 224 OFFCURVE",
"99 312 CURVE SMOOTH",
"99 402 OFFCURVE",
"171 470 OFFCURVE",
"267 470 CURVE SMOOTH",
"362 470 OFFCURVE",
"434 402 OFFCURVE",
"434 312 CURVE SMOOTH",
"434 224 OFFCURVE",
"362 158 OFFCURVE",
"267 158 CURVE SMOOTH"
);
},
{
closed = 1;
nodes = (
"449 439 OFFCURVE",
"491 459 OFFCURVE",
"523 454 CURVE SMOOTH",
"535 452 OFFCURVE",
"547 461 OFFCURVE",
"547 473 CURVE SMOOTH",
"547 483 OFFCURVE",
"540 491 OFFCURVE",
"531 493 CURVE SMOOTH",
"487 503 OFFCURVE",
"435 483 OFFCURVE",
"407 442 CURVE",
"432 411 LINE"
);
}
);
width = 567;
},
{
layerId = "2E7D65B2-411D-4607-BF7C-7C0096008F1D";
paths = (
{
closed = 1;
nodes = (
"449 -325 OFFCURVE",
"557 -241 OFFCURVE",
"557 -131 CURVE SMOOTH",
"557 -25 OFFCURVE",
"489 24 OFFCURVE",
"315 44 CURVE SMOOTH",
"285 47 OFFCURVE",
"269 58 OFFCURVE",
"269 70 CURVE SMOOTH",
"269 80 OFFCURVE",
"278 88 OFFCURVE",
"292 88 CURVE",
"249 160 LINE",
"230 169 OFFCURVE",
"135 126 OFFCURVE",
"135 52 CURVE SMOOTH",
"135 -15 OFFCURVE",
"197 -56 OFFCURVE",
"316 -69 CURVE SMOOTH",
"397 -78 OFFCURVE",
"427 -97 OFFCURVE",
"427 -131 CURVE SMOOTH",
"427 -171 OFFCURVE",
"385 -195 OFFCURVE",
"310 -195 CURVE SMOOTH",
"217 -195 OFFCURVE",
"177 -176 OFFCURVE",
"141 -116 CURVE SMOOTH",
"129 -97 OFFCURVE",
"107 -84 OFFCURVE",
"85 -84 CURVE SMOOTH",
"49 -84 OFFCURVE",
"20 -113 OFFCURVE",
"20 -149 CURVE SMOOTH",
"20 -161 OFFCURVE",
"24 -174 OFFCURVE",
"30 -184 CURVE SMOOTH",
"92 -283 OFFCURVE",
"177 -325 OFFCURVE",
"310 -325 CURVE SMOOTH"
);
},
{
closed = 1;
nodes = (
"430 88 OFFCURVE",
"534 183 OFFCURVE",
"534 310 CURVE SMOOTH",
"534 438 OFFCURVE",
"430 535 OFFCURVE",
"292 535 CURVE SMOOTH",
"154 535 OFFCURVE",
"49 438 OFFCURVE",
"49 310 CURVE SMOOTH",
"49 184 OFFCURVE",
"154 88 OFFCURVE",
"292 88 CURVE SMOOTH"
);
},
{
closed = 1;
nodes = (
"227 218 OFFCURVE",
"179 257 OFFCURVE",
"179 310 CURVE SMOOTH",
"179 364 OFFCURVE",
"227 405 OFFCURVE",
"292 405 CURVE SMOOTH",
"357 405 OFFCURVE",
"404 365 OFFCURVE",
"404 310 CURVE SMOOTH",
"404 257 OFFCURVE",
"357 218 OFFCURVE",
"292 218 CURVE SMOOTH"
);
},
{
closed = 1;
nodes = (
"492 403 OFFCURVE",
"505 409 OFFCURVE",
"541 404 CURVE SMOOTH",
"584 398 OFFCURVE",
"617 422 OFFCURVE",
"617 459 CURVE SMOOTH",
"617 489 OFFCURVE",
"596 515 OFFCURVE",
"566 522 CURVE SMOOTH",
"488 540 OFFCURVE",
"401 492 OFFCURVE",
"376 413 CURVE",
"497 388 LINE"
);
}
);
width = 637;
}
);
leftKerningGroup = o;
rightKerningGroup = o;
unicode = 0067;
},
{
glyphname = h;
layers = (
{
components = (
{
name = nh_curve;
transform = "{1, 0, 0, 1, -2, 0}";
}
);
hints = (
{
origin = "{0, 5}";
target = "{0, 6}";
type = Cap;
name = _cap.top;
}
);
layerId = "F0262224-B9C7-46EB-9294-168F9DBDA589";
paths = (
{
closed = 1;
nodes = (
"138 -2 OFFCURVE",
"147 7 OFFCURVE",
"147 18 CURVE SMOOTH",
"147 75 OFFCURVE",
"157 860 OFFCURVE",
"156 880 CURVE",
"116 880 LINE",
"116 862 OFFCURVE",
"107 78 OFFCURVE",
"107 18 CURVE SMOOTH",
"107 7 OFFCURVE",
"116 -2 OFFCURVE",
"127 -2 CURVE SMOOTH"
);
}
);
width = 582;
},
{
components = (
{
name = nh_curve;
transform = "{1, 0, 0, 1, 29, 0}";
}
);
hints = (
{
origin = "{0, 5}";
target = "{0, 6}";
type = Cap;
name = _cap.top;
}
);
layerId = "2E7D65B2-411D-4607-BF7C-7C0096008F1D";
paths = (
{
closed = 1;
nodes = (
"198 -27 OFFCURVE",
"227 2 OFFCURVE",
"227 38 CURVE SMOOTH",
"227 57 OFFCURVE",
"233 646 OFFCURVE",
"236 880 CURVE",
"103 880 LINE",
"101 645 OFFCURVE",
"97 72 OFFCURVE",
"97 38 CURVE SMOOTH",
"97 2 OFFCURVE",
"126 -27 OFFCURVE",
"162 -27 CURVE SMOOTH"
);
}
);
width = 663;
}
);
unicode = 0068;
},
{
glyphname = i;
layers = (
{
components = (
{
name = idotless;
}
);
layerId = "F0262224-B9C7-46EB-9294-168F9DBDA589";
paths = (
{
closed = 1;
nodes = (
"165 675 OFFCURVE",
"180 690 OFFCURVE",
"180 711 CURVE SMOOTH",
"180 730 OFFCURVE",
"165 745 OFFCURVE",
"146 745 CURVE SMOOTH",
"125 745 OFFCURVE",
"110 730 OFFCURVE",
"110 711 CURVE SMOOTH",
"110 690 OFFCURVE",
"125 675 OFFCURVE",
"146 675 CURVE SMOOTH"
);
}
);
width = 279;
},
{
components = (
{
name = idotless;
transform = "{1, 0, 0, 1, 15, 0}";
}
);
layerId = "2E7D65B2-411D-4607-BF7C-7C0096008F1D";
paths = (
{
closed = 1;
nodes = (
"204 630 OFFCURVE",
"239 665 OFFCURVE",
"239 708 CURVE SMOOTH",
"239 751 OFFCURVE",
"205 785 OFFCURVE",
"162 785 CURVE SMOOTH",
"119 785 OFFCURVE",
"84 750 OFFCURVE",
"84 708 CURVE SMOOTH",
"84 665 OFFCURVE",
"119 630 OFFCURVE",
"162 630 CURVE SMOOTH"
);
}
);
width = 304;
}
);
leftMetricsKey = "=n+15";
unicode = 0069;
},
{
glyphname = idotless;
layers = (
{
hints = (
{
origin = "{0, 5}";
target = "{0, 6}";
type = Cap;
name = _cap.top;
}
);
layerId = "F0262224-B9C7-46EB-9294-168F9DBDA589";
paths = (
{
closed = 1;
nodes = (
"154 -12 OFFCURVE",
"163 -3 OFFCURVE",
"163 8 CURVE SMOOTH",
"163 65 OFFCURVE",
"171 422 OFFCURVE",
"171 500 CURVE",
"131 500 LINE",
"131 422 OFFCURVE",
"123 68 OFFCURVE",
"123 8 CURVE SMOOTH",
"123 -3 OFFCURVE",
"132 -12 OFFCURVE",
"143 -12 CURVE SMOOTH"
);
}
);
width = 279;
},
{
hints = (
{
origin = "{0, 5}";
target = "{0, 6}";
type = Cap;
name = _cap.top;
}
);
layerId = "2E7D65B2-411D-4607-BF7C-7C0096008F1D";
paths = (
{
closed = 1;
nodes = (
"186 -12 OFFCURVE",
"226 6 OFFCURVE",
"226 48 CURVE SMOOTH",
"226 83 OFFCURVE",
"235 430 OFFCURVE",
"235 502 CURVE",
"105 500 LINE",
"102 367 OFFCURVE",
"96 90 OFFCURVE",
"96 48 CURVE SMOOTH",
"96 11 OFFCURVE",
"130 -12 OFFCURVE",
"158 -12 CURVE SMOOTH"
);
}
);
width = 262;
}
);
unicode = 0131;
},
{
glyphname = j;
layers = (
{
hints = (
{
origin = "{0, 8}";
type = Cap;
name = _cap.top;
}
);
layerId = "F0262224-B9C7-46EB-9294-168F9DBDA589";
paths = (
{
closed = 1;
nodes = (
"54 -269 OFFCURVE",
"57 -269 OFFCURVE",
"60 -267 CURVE SMOOTH",
"121 -226 OFFCURVE",
"171 -137 OFFCURVE",
"171 11 CURVE SMOOTH",
"171 14 OFFCURVE",
"169 396 OFFCURVE",
"170 500 CURVE",
"130 500 LINE",
"129 404 OFFCURVE",
"133 125 OFFCURVE",
"132 38 CURVE SMOOTH",
"130 -96 OFFCURVE",
"91 -197 OFFCURVE",
"40 -231 CURVE SMOOTH",
"34 -235 OFFCURVE",
"30 -241 OFFCURVE",
"30 -249 CURVE SMOOTH",
"30 -260 OFFCURVE",
"39 -269 OFFCURVE",
"50 -269 CURVE SMOOTH"
);
},
{
closed = 1;
nodes = (
"170 675 OFFCURVE",
"184 689 OFFCURVE",
"184 708 CURVE SMOOTH",
"184 726 OFFCURVE",
"170 740 OFFCURVE",
"152 740 CURVE SMOOTH",
"133 740 OFFCURVE",
"119 726 OFFCURVE",
"119 708 CURVE SMOOTH",
"119 689 OFFCURVE",
"133 675 OFFCURVE",
"152 675 CURVE SMOOTH"
);
}
);
width = 283;
},
{
hints = (
{
origin = "{0, 8}";
target = "{0, 9}";
type = Cap;
name = _cap.top;
}
);
layerId = "2E7D65B2-411D-4607-BF7C-7C0096008F1D";
paths = (
{
closed = 1;
nodes = (
"71 -309 OFFCURVE",
"93 -304 OFFCURVE",
"106 -295 CURVE SMOOTH",
"199 -230 OFFCURVE",
"216 -103 OFFCURVE",
"222 49 CURVE SMOOTH",
"230 249 OFFCURVE",
"217 346 OFFCURVE",
"223 509 CURVE",
"91 509 LINE",
"92 488 OFFCURVE",
"97 205 OFFCURVE",
"92 39 CURVE SMOOTH",
"88 -83 OFFCURVE",
"71 -176 OFFCURVE",
"24 -201 CURVE SMOOTH",
"3 -212 OFFCURVE",
"-8 -246 OFFCURVE",
"2 -274 CURVE SMOOTH",
"11 -300 OFFCURVE",
"37 -309 OFFCURVE",
"57 -309 CURVE SMOOTH"
);
},
{
closed = 1;
nodes = (
"204 630 OFFCURVE",
"239 665 OFFCURVE",
"239 708 CURVE SMOOTH",
"239 751 OFFCURVE",
"205 785 OFFCURVE",
"162 785 CURVE SMOOTH",
"119 785 OFFCURVE",
"84 750 OFFCURVE",
"84 708 CURVE SMOOTH",
"84 664 OFFCURVE",
"118 630 OFFCURVE",
"162 630 CURVE SMOOTH"
);
}
);
width = 296;
}
);
rightMetricsKey = "=i";
unicode = 006A;
},
{
glyphname = k;
layers = (
{
hints = (
{
origin = "{1, 5}";
type = Cap;
name = _cap.top;
}
);
layerId = "F0262224-B9C7-46EB-9294-168F9DBDA589";
paths = (
{
closed = 1;
nodes = (
"499 -5 OFFCURVE",
"508 4 OFFCURVE",
"508 15 CURVE SMOOTH",
"508 21 OFFCURVE",
"506 27 OFFCURVE",
"502 30 CURVE SMOOTH",
"164 328 LINE",
"162 304 LINE",
"488 477 LINE SMOOTH",
"494 480 OFFCURVE",
"498 487 OFFCURVE",
"498 494 CURVE SMOOTH",
"498 505 OFFCURVE",
"489 514 OFFCURVE",
"478 514 CURVE SMOOTH",
"474 514 OFFCURVE",
"471 513 OFFCURVE",
"468 511 CURVE SMOOTH",
"137 336 LINE SMOOTH",
"123 328 OFFCURVE",
"120 314 OFFCURVE",
"133 303 CURVE SMOOTH",
"474 1 LINE SMOOTH",
"478 -3 OFFCURVE",
"482 -5 OFFCURVE",
"488 -5 CURVE SMOOTH"
);
},
{
closed = 1;
nodes = (
"138 -2 OFFCURVE",
"147 7 OFFCURVE",
"147 18 CURVE SMOOTH",
"147 75 OFFCURVE",
"157 860 OFFCURVE",
"156 880 CURVE",
"116 880 LINE",
"116 862 OFFCURVE",
"107 78 OFFCURVE",
"107 18 CURVE SMOOTH",
"107 7 OFFCURVE",
"116 -2 OFFCURVE",
"127 -2 CURVE SMOOTH"
);
}
);
width = 548;
},
{
hints = (
{
origin = "{1, 5}";
target = "{1, 6}";
type = Cap;
name = _cap.top;
}
);
layerId = "2E7D65B2-411D-4607-BF7C-7C0096008F1D";
paths = (
{
closed = 1;
nodes = (
"564 -30 OFFCURVE",
"593 -1 OFFCURVE",
"593 35 CURVE SMOOTH",
"593 54 OFFCURVE",
"584 75 OFFCURVE",
"572 84 CURVE",
"259 360 LINE",
"244 252 LINE",
"551 409 LINE SMOOTH",
"570 418 OFFCURVE",
"583 441 OFFCURVE",
"583 464 CURVE SMOOTH",
"583 500 OFFCURVE",
"554 529 OFFCURVE",
"518 529 CURVE SMOOTH",
"508 529 OFFCURVE",
"495 525 OFFCURVE",
"485 519 CURVE SMOOTH",
"194 364 LINE SMOOTH",
"153 342 OFFCURVE",
"147 292 OFFCURVE",
"182 260 CURVE SMOOTH",
"483 -12 LINE SMOOTH",
"496 -24 OFFCURVE",
"512 -30 OFFCURVE",
"528 -30 CURVE SMOOTH"
);
},
{
closed = 1;
nodes = (
"197 -12 OFFCURVE",
"227 10 OFFCURVE",
"227 56 CURVE SMOOTH",
"227 302 OFFCURVE",
"233 624 OFFCURVE",
"236 880 CURVE",
"106 879 LINE",
"103 623 OFFCURVE",
"97 312 OFFCURVE",
"97 56 CURVE SMOOTH",
"97 28 OFFCURVE",
"111 -12 OFFCURVE",
"169 -12 CURVE SMOOTH"
);
}
);
width = 618;
}
);
leftMetricsKey = "=h";
unicode = 006B;
},
{
glyphname = l;
layers = (
{
hints = (
{
origin = "{0, 8}";
target = "{0, 0}";
type = Cap;
name = _cap.top;
}
);
layerId = "F0262224-B9C7-46EB-9294-168F9DBDA589";
paths = (
{
closed = 1;
nodes = (
"119 0 LINE",
"128 868 LINE SMOOTH",
"128 877 OFFCURVE",
"123 890 OFFCURVE",
"108 890 CURVE SMOOTH",
"94 890 OFFCURVE",
"88 879 OFFCURVE",
"88 868 CURVE SMOOTH",
"79 0 LINE"
);
}
);
width = 225;
},
{
hints = (
{
origin = "{0, 8}";
target = "{0, 0}";
type = Cap;
name = _cap.top;
}
);
layerId = "2E7D65B2-411D-4607-BF7C-7C0096008F1D";
paths = (
{
closed = 1;
nodes = (
"228 0 LINE",
"235 821 LINE SMOOTH",
"235 864 OFFCURVE",
"206 890 OFFCURVE",
"167 890 CURVE",
"134 890 OFFCURVE",
"105 859 OFFCURVE",
"105 817 CURVE SMOOTH",
"98 0 LINE"
);
}
);
width = 334;
},
{
associatedMasterId = "F0262224-B9C7-46EB-9294-168F9DBDA589";
hints = (
{
origin = "{0, 1}";
type = Cap;
name = _cap.top;
},
{
origin = "{0, 3}";
target = "{0, 0}";
type = Cap;
name = _cap.top;
}
);
layerId = "D9297715-B26B-4A7C-9315-A7B2EF3ADFA3";
name = "Sep 24 19, 00:01";
paths = (
{
closed = 1;
nodes = (
"147 0 LINE",
"156 880 LINE",
"116 880 LINE",
"107 0 LINE"
);
}
);
width = 263;
},
{
associatedMasterId = "2E7D65B2-411D-4607-BF7C-7C0096008F1D";
hints = (
{
origin = "{0, 1}";
target = "{0, 2}";
type = Cap;
name = _cap.top;
},
{
origin = "{0, 3}";
target = "{0, 0}";
type = Cap;
name = _cap.top;
}
);
layerId = "42ED195E-60B5-4B52-9FD3-D874742775BD";
name = "Sep 24 19, 00:01";
paths = (
{
closed = 1;
nodes = (
"197 0 LINE",
"206 880 LINE",
"106 880 LINE",
"97 0 LINE"
);
}
);
width = 303;
}
);
rightMetricsKey = "=h+10";
unicode = 006C;
},
{
glyphname = m;
layers = (
{
hints = (
{
origin = "{1, 5}";
type = Cap;
name = _cap.top;
},
{
origin = "{0, 24}";
target = "{0, 0}";
type = Cap;
name = _cap.top;
}
);
layerId = "F0262224-B9C7-46EB-9294-168F9DBDA589";
paths = (
{
closed = 1;
nodes = (
"808 0 LINE",
"807 35 OFFCURVE",
"810 166 OFFCURVE",
"811 308 CURVE SMOOTH",
"812 423 OFFCURVE",
"750 510 OFFCURVE",
"638 510 CURVE SMOOTH",
"562 510 OFFCURVE",
"484 460 OFFCURVE",
"455 354 CURVE SMOOTH",
"451 339 OFFCURVE",
"457 327 OFFCURVE",
"474 327 CURVE SMOOTH",
"481 327 OFFCURVE",
"482 300 OFFCURVE",
"484 318 CURVE SMOOTH",
"494 405 OFFCURVE",
"549 470 OFFCURVE",
"638 470 CURVE SMOOTH",
"727 470 OFFCURVE",
"772 401 OFFCURVE",
"771 308 CURVE SMOOTH",
"770 197 OFFCURVE",
"768 66 OFFCURVE",
"768 0 CURVE"
);
},
{
closed = 1;
nodes = (
"138 -2 OFFCURVE",
"147 7 OFFCURVE",
"147 18 CURVE SMOOTH",
"147 76 OFFCURVE",
"156 481 OFFCURVE",
"156 500 CURVE",
"116 500 LINE",
"116 480 OFFCURVE",
"107 78 OFFCURVE",
"107 18 CURVE SMOOTH",
"107 7 OFFCURVE",
"116 -2 OFFCURVE",
"127 -2 CURVE SMOOTH"
);
},
{
closed = 1;
nodes = (
"471 0 OFFCURVE",
"480 8 OFFCURVE",
"480 18 CURVE SMOOTH",
"480 51 OFFCURVE",
"482 168 OFFCURVE",
"483 308 CURVE SMOOTH",
"484 423 OFFCURVE",
"412 510 OFFCURVE",
"316 510 CURVE SMOOTH",
"240 510 OFFCURVE",
"157 460 OFFCURVE",
"123 354 CURVE SMOOTH",
"118 339 OFFCURVE",
"125 327 OFFCURVE",
"142 327 CURVE SMOOTH",
"149 327 OFFCURVE",
"150 300 OFFCURVE",
"152 318 CURVE SMOOTH",
"162 405 OFFCURVE",
"227 470 OFFCURVE",
"316 470 CURVE SMOOTH",
"390 470 OFFCURVE",
"444 401 OFFCURVE",
"443 308 CURVE SMOOTH",
"442 197 OFFCURVE",
"440 72 OFFCURVE",
"440 18 CURVE SMOOTH",
"440 8 OFFCURVE",
"448 0 OFFCURVE",
"459 0 CURVE"
);
}
);
width = 904;
},
{
hints = (
{
origin = "{1, 5}";
type = Cap;
name = _cap.top;
},
{
origin = "{0, 24}";
target = "{0, 0}";
type = Cap;
name = _cap.top;
}
);
layerId = "2E7D65B2-411D-4607-BF7C-7C0096008F1D";
paths = (
{
closed = 1;
nodes = (
"891 -10 LINE",
"891 29 OFFCURVE",
"894 215 OFFCURVE",
"894 312 CURVE SMOOTH",
"894 450 OFFCURVE",
"811 518 OFFCURVE",
"682 518 CURVE SMOOTH",
"593 518 OFFCURVE",
"523 461 OFFCURVE",
"505 384 CURVE SMOOTH",
"497 350 OFFCURVE",
"482 285 OFFCURVE",
"517 285 CURVE SMOOTH",
"539 285 OFFCURVE",
"559 270 OFFCURVE",
"559 291 CURVE SMOOTH",
"559 339 OFFCURVE",
"588 398 OFFCURVE",
"671 398 CURVE SMOOTH",
"732 398 OFFCURVE",
"766 353 OFFCURVE",
"764 293 CURVE SMOOTH",
"761 196 OFFCURVE",
"761 59 OFFCURVE",
"761 -10 CURVE"
);
},
{
closed = 1;
nodes = (
"198 -12 OFFCURVE",
"227 10 OFFCURVE",
"227 48 CURVE SMOOTH",
"227 80 OFFCURVE",
"236 485 OFFCURVE",
"236 500 CURVE",
"106 500 LINE",
"106 481 OFFCURVE",
"97 102 OFFCURVE",
"97 48 CURVE SMOOTH",
"97 10 OFFCURVE",
"129 -12 OFFCURVE",
"157 -12 CURVE SMOOTH"
);
},
{
closed = 1;
nodes = (
"524 -10 OFFCURVE",
"556 10 OFFCURVE",
"556 48 CURVE SMOOTH",
"556 98 OFFCURVE",
"557 194 OFFCURVE",
"559 291 CURVE SMOOTH",
"561 409 OFFCURVE",
"475 518 OFFCURVE",
"356 518 CURVE SMOOTH",
"267 518 OFFCURVE",
"198 467 OFFCURVE",
"180 384 CURVE SMOOTH",
"173 350 OFFCURVE",
"157 285 OFFCURVE",
"192 285 CURVE SMOOTH",
"214 285 OFFCURVE",
"232 278 OFFCURVE",
"232 299 CURVE SMOOTH",
"232 347 OFFCURVE",
"268 403 OFFCURVE",
"343 403 CURVE SMOOTH",
"405 403 OFFCURVE",
"431 353 OFFCURVE",
"429 293 CURVE SMOOTH",
"426 196 OFFCURVE",
"426 127 OFFCURVE",
"426 48 CURVE SMOOTH",
"426 11 OFFCURVE",
"467 -10 OFFCURVE",
"497 -10 CURVE SMOOTH"
);
}
);
width = 987;
}
);
leftKerningGroup = n;
leftMetricsKey = "=h";
rightKerningGroup = n;
rightMetricsKey = "=h";
unicode = 006D;
},
{
glyphname = n;
layers = (
{
components = (
{
name = nh_curve;
transform = "{1, 0, 0, 1, -2, 0}";
}
);
hints = (
{
origin = "{0, 5}";
target = "{0, 6}";
type = Cap;
name = _cap.top;
}
);
layerId = "F0262224-B9C7-46EB-9294-168F9DBDA589";
paths = (
{
closed = 1;
nodes = (
"138 -2 OFFCURVE",
"147 7 OFFCURVE",
"147 18 CURVE SMOOTH",
"147 76 OFFCURVE",
"156 481 OFFCURVE",
"156 500 CURVE",
"116 500 LINE",
"116 480 OFFCURVE",
"107 78 OFFCURVE",
"107 18 CURVE SMOOTH",
"107 7 OFFCURVE",
"116 -2 OFFCURVE",
"127 -2 CURVE SMOOTH"
);
}
);
width = 582;
},
{
components = (
{
name = nh_curve;
transform = "{1, 0, 0, 1, 31, 0}";
}
);
hints = (
{
origin = "{0, 5}";
target = "{0, 6}";
type = Cap;
name = _cap.top;
}
);
layerId = "2E7D65B2-411D-4607-BF7C-7C0096008F1D";
paths = (
{
closed = 1;
nodes = (
"205 -12 OFFCURVE",
"227 10 OFFCURVE",
"227 38 CURVE SMOOTH",
"227 70 OFFCURVE",
"236 485 OFFCURVE",
"236 500 CURVE",
"106 500 LINE",
"106 481 OFFCURVE",
"97 92 OFFCURVE",
"97 38 CURVE SMOOTH",
"97 10 OFFCURVE",
"149 -12 OFFCURVE",
"177 -12 CURVE SMOOTH"
);
}
);
width = 665;
}
);
leftKerningGroup = n;
leftMetricsKey = "=h";
rightKerningGroup = n;
rightMetricsKey = "=h";
unicode = 006E;
},
{
glyphname = o;
layers = (
{
layerId = "F0262224-B9C7-46EB-9294-168F9DBDA589";
paths = (
{
closed = 1;
nodes = (
"429 -7 OFFCURVE",
"525 104 OFFCURVE",
"525 252 CURVE SMOOTH",
"525 399 OFFCURVE",
"429 510 OFFCURVE",
"288 510 CURVE SMOOTH",
"146 510 OFFCURVE",
"50 399 OFFCURVE",
"50 252 CURVE SMOOTH",
"50 104 OFFCURVE",
"146 -7 OFFCURVE",
"288 -7 CURVE SMOOTH"
);
},
{
closed = 1;
nodes = (
"169 33 OFFCURVE",
"90 127 OFFCURVE",
"90 252 CURVE SMOOTH",
"90 377 OFFCURVE",
"169 470 OFFCURVE",
"288 470 CURVE SMOOTH",
"406 470 OFFCURVE",
"485 377 OFFCURVE",
"485 252 CURVE SMOOTH",
"485 127 OFFCURVE",
"406 33 OFFCURVE",
"288 33 CURVE SMOOTH"
);
}
);
width = 575;
},
{
layerId = "2E7D65B2-411D-4607-BF7C-7C0096008F1D";
paths = (
{
closed = 1;
nodes = (
"471 -32 OFFCURVE",
"585 87 OFFCURVE",
"585 252 CURVE SMOOTH",
"585 416 OFFCURVE",
"471 535 OFFCURVE",
"313 535 CURVE SMOOTH",
"155 535 OFFCURVE",
"40 416 OFFCURVE",
"40 252 CURVE SMOOTH",
"40 87 OFFCURVE",
"154 -32 OFFCURVE",
"313 -32 CURVE SMOOTH"
);
},
{
closed = 1;
nodes = (
"228 98 OFFCURVE",
"170 160 OFFCURVE",
"170 252 CURVE SMOOTH",
"170 343 OFFCURVE",
"228 405 OFFCURVE",
"313 405 CURVE SMOOTH",
"397 405 OFFCURVE",
"455 343 OFFCURVE",
"455 252 CURVE SMOOTH",
"455 160 OFFCURVE",
"397 98 OFFCURVE",
"313 98 CURVE SMOOTH"
);
}
);
width = 625;
}
);
leftKerningGroup = o;
rightKerningGroup = o;
unicode = 006F;
},
{
glyphname = oslash;
layers = (
{
components = (
{
name = o;
}
);
layerId = "F0262224-B9C7-46EB-9294-168F9DBDA589";
paths = (
{
closed = 1;
nodes = (
"493 508 LINE SMOOTH",
"500 518 OFFCURVE",
"498 529 OFFCURVE",
"489 536 CURVE SMOOTH",
"480 543 OFFCURVE",
"468 540 OFFCURVE",
"461 531 CURVE SMOOTH",
"81 5 LINE SMOOTH",
"74 -5 OFFCURVE",
"76 -16 OFFCURVE",
"85 -23 CURVE SMOOTH",
"94 -30 OFFCURVE",
"106 -27 OFFCURVE",
"113 -18 CURVE SMOOTH"
);
}
);
width = 575;
},
{
components = (
{
name = o;
}
);
layerId = "2E7D65B2-411D-4607-BF7C-7C0096008F1D";
paths = (
{
closed = 1;
nodes = (
"521 489 LINE SMOOTH",
"536 509 OFFCURVE",
"532 535 OFFCURVE",
"512 551 CURVE SMOOTH",
"492 567 OFFCURVE",
"464 562 OFFCURVE",
"449 541 CURVE SMOOTH",
"69 14 LINE SMOOTH",
"54 -6 OFFCURVE",
"58 -32 OFFCURVE",
"78 -48 CURVE SMOOTH",
"98 -64 OFFCURVE",
"126 -59 OFFCURVE",
"141 -38 CURVE SMOOTH"
);
}
);
width = 595;
}
);
unicode = 00F8;
},
{
glyphname = oe;
layers = (
{
layerId = "F0262224-B9C7-46EB-9294-168F9DBDA589";
paths = (
{
closed = 1;
nodes = (
"372 -7 OFFCURVE",
"465 104 OFFCURVE",
"465 252 CURVE SMOOTH",
"465 399 OFFCURVE",
"372 510 OFFCURVE",
"248 510 CURVE SMOOTH",
"135 510 OFFCURVE",
"50 399 OFFCURVE",
"50 252 CURVE SMOOTH",
"50 104 OFFCURVE",
"135 -7 OFFCURVE",
"248 -7 CURVE SMOOTH"
);
},
{
closed = 1;
nodes = (
"158 33 OFFCURVE",
"90 127 OFFCURVE",
"90 252 CURVE SMOOTH",
"90 377 OFFCURVE",
"158 470 OFFCURVE",
"248 470 CURVE SMOOTH",
"349 470 OFFCURVE",
"425 377 OFFCURVE",
"425 252 CURVE SMOOTH",
"425 127 OFFCURVE",
"349 33 OFFCURVE",
"248 33 CURVE SMOOTH"
);
},
{
closed = 1;
nodes = (
"731 -19 OFFCURVE",
"812 12 OFFCURVE",
"843 54 CURVE SMOOTH",
"846 59 OFFCURVE",
"849 65 OFFCURVE",
"849 68 CURVE SMOOTH",
"849 79 OFFCURVE",
"840 88 OFFCURVE",
"829 88 CURVE SMOOTH",
"823 88 OFFCURVE",
"816 85 OFFCURVE",
"814 82 CURVE SMOOTH",
"790 47 OFFCURVE",
"722 21 OFFCURVE",
"654 21 CURVE SMOOTH",
"548 21 OFFCURVE",
"468 113 OFFCURVE",
"468 236 CURVE SMOOTH",
"468 370 OFFCURVE",
"552 470 OFFCURVE",
"665 470 CURVE SMOOTH",
"736 470 OFFCURVE",
"790 425 OFFCURVE",
"790 365 CURVE SMOOTH",
"790 318 OFFCURVE",
"736 282 OFFCURVE",
"665 282 CURVE SMOOTH",
"585 282 OFFCURVE",
"505 316 OFFCURVE",
"478 361 CURVE",
"461 323 LINE",
"482 277 OFFCURVE",
"570 242 OFFCURVE",
"665 242 CURVE SMOOTH",
"759 242 OFFCURVE",
"830 295 OFFCURVE",
"830 365 CURVE SMOOTH",
"830 448 OFFCURVE",
"759 510 OFFCURVE",
"665 510 CURVE SMOOTH",
"527 510 OFFCURVE",
"425 394 OFFCURVE",
"428 240 CURVE SMOOTH",
"431 92 OFFCURVE",
"528 -19 OFFCURVE",
"654 -19 CURVE SMOOTH"
);
}
);
width = 899;
},
{
layerId = "2E7D65B2-411D-4607-BF7C-7C0096008F1D";
paths = (
{
closed = 1;
nodes = (
"406 -32 OFFCURVE",
"505 90 OFFCURVE",
"505 252 CURVE SMOOTH",
"505 413 OFFCURVE",
"405 535 OFFCURVE",
"273 535 CURVE SMOOTH",
"140 535 OFFCURVE",
"40 413 OFFCURVE",
"40 252 CURVE SMOOTH",
"40 90 OFFCURVE",
"140 -32 OFFCURVE",
"273 -32 CURVE SMOOTH"
);
},
{
closed = 1;
nodes = (
"215 98 OFFCURVE",
"170 164 OFFCURVE",
"170 252 CURVE SMOOTH",
"170 339 OFFCURVE",
"215 405 OFFCURVE",
"273 405 CURVE SMOOTH",
"331 405 OFFCURVE",
"375 340 OFFCURVE",
"375 252 CURVE SMOOTH",
"375 164 OFFCURVE",
"331 98 OFFCURVE",
"273 98 CURVE SMOOTH"
);
},
{
closed = 1;
nodes = (
"687 -34 OFFCURVE",
"767 2 OFFCURVE",
"816 50 CURVE SMOOTH",
"825 60 OFFCURVE",
"832 81 OFFCURVE",
"832 100 CURVE SMOOTH",
"832 133 OFFCURVE",
"804 157 OFFCURVE",
"767 157 CURVE SMOOTH",
"754 157 OFFCURVE",
"733 148 OFFCURVE",
"718 135 CURVE SMOOTH",
"692 113 OFFCURVE",
"653 96 OFFCURVE",
"626 96 CURVE SMOOTH",
"559 96 OFFCURVE",
"505 156 OFFCURVE",
"505 231 CURVE SMOOTH",
"505 326 OFFCURVE",
"557 405 OFFCURVE",
"619 405 CURVE SMOOTH",
"664 405 OFFCURVE",
"697 383 OFFCURVE",
"697 356 CURVE SMOOTH",
"697 335 OFFCURVE",
"666 317 OFFCURVE",
"624 317 CURVE SMOOTH",
"578 317 OFFCURVE",
"516 342 OFFCURVE",
"492 373 CURVE",
"417 315 LINE",
"445 249 OFFCURVE",
"541 194 OFFCURVE",
"624 194 CURVE SMOOTH",
"739 194 OFFCURVE",
"827 264 OFFCURVE",
"827 356 CURVE SMOOTH",
"827 458 OFFCURVE",
"737 535 OFFCURVE",
"619 535 CURVE SMOOTH",
"483 535 OFFCURVE",
"375 403 OFFCURVE",
"375 235 CURVE SMOOTH",
"375 85 OFFCURVE",
"486 -34 OFFCURVE",
"626 -34 CURVE SMOOTH"
);
}
);
width = 872;
}
);
leftMetricsKey = "=o";
rightMetricsKey = "=e";
unicode = 0153;
},
{
glyphname = p;
layers = (
{
components = (
{
name = bp_curve;
}
);
hints = (
{
origin = "{0, 5}";
target = "{0, 6}";
type = Cap;
name = _cap.top;
}
);
layerId = "F0262224-B9C7-46EB-9294-168F9DBDA589";
paths = (
{
closed = 1;
nodes = (
"138 -279 OFFCURVE",
"147 -270 OFFCURVE",
"147 -259 CURVE SMOOTH",
"147 -202 OFFCURVE",
"156 480 OFFCURVE",
"156 500 CURVE",
"116 500 LINE",
"117 480 OFFCURVE",
"107 -199 OFFCURVE",
"107 -259 CURVE SMOOTH",
"107 -270 OFFCURVE",
"116 -279 OFFCURVE",
"127 -279 CURVE SMOOTH"
);
}
);
width = 649;
},
{
components = (
{
name = bp_curve;
transform = "{1, 0, 0, 1, 40, 0}";
}
);
hints = (
{
origin = "{0, 5}";
target = "{0, 6}";
type = Cap;
name = _cap.top;
}
);
layerId = "2E7D65B2-411D-4607-BF7C-7C0096008F1D";
paths = (
{
closed = 1;
nodes = (
"205 -309 OFFCURVE",
"227 -273 OFFCURVE",
"227 -245 CURVE SMOOTH",
"227 -211 OFFCURVE",
"236 452 OFFCURVE",
"236 500 CURVE",
"106 499 LINE",
"106 457 OFFCURVE",
"97 -221 OFFCURVE",
"97 -245 CURVE SMOOTH",
"97 -273 OFFCURVE",
"120 -309 OFFCURVE",
"159 -309 CURVE SMOOTH"
);
}
);
width = 714;
}
);
leftKerningGroup = n;
leftMetricsKey = "=h";
rightKerningGroup = o;
rightMetricsKey = "=o";
unicode = 0070;
},
{
glyphname = thorn;
layers = (
{
components = (
{
name = bp_curve;
transform = "{1, 0, 0, 1, -47, 0}";
}
);
layerId = "F0262224-B9C7-46EB-9294-168F9DBDA589";
paths = (
{
closed = 1;
nodes = (
"91 -279 OFFCURVE",
"100 -270 OFFCURVE",
"100 -259 CURVE SMOOTH",
"100 -207 OFFCURVE",
"109 589 OFFCURVE",
"109 767 CURVE SMOOTH",
"109 785 OFFCURVE",
"100 798 OFFCURVE",
"89 798 CURVE SMOOTH",
"78 798 OFFCURVE",
"69 785 OFFCURVE",
"69 767 CURVE SMOOTH",
"69 590 OFFCURVE",
"60 -205 OFFCURVE",
"60 -259 CURVE SMOOTH",
"60 -270 OFFCURVE",
"69 -279 OFFCURVE",
"80 -279 CURVE SMOOTH"
);
}
);
width = 602;
},
{
components = (
{
name = bp_curve;
transform = "{1, 0, 0, 1, -22, 0}";
}
);
layerId = "2E7D65B2-411D-4607-BF7C-7C0096008F1D";
paths = (
{
closed = 1;
nodes = (
"151 -324 OFFCURVE",
"180 -295 OFFCURVE",
"180 -259 CURVE SMOOTH",
"180 -256 OFFCURVE",
"189 609 OFFCURVE",
"189 767 CURVE SMOOTH",
"189 806 OFFCURVE",
"160 835 OFFCURVE",
"123 834 CURVE SMOOTH",
"86 833 OFFCURVE",
"59 806 OFFCURVE",
"59 769 CURVE SMOOTH",
"59 610 OFFCURVE",
"50 -256 OFFCURVE",
"50 -259 CURVE SMOOTH",
"50 -295 OFFCURVE",
"79 -324 OFFCURVE",
"115 -324 CURVE SMOOTH"
);
}
);
width = 652;
}
);
leftMetricsKey = "=h";
rightMetricsKey = "=o";
unicode = 00FE;
},
{
glyphname = q;
layers = (
{
components = (
{
name = bp_curve;
transform = "{-1, 0, 0, 1, 649, 0}";
}
);
layerId = "F0262224-B9C7-46EB-9294-168F9DBDA589";
paths = (
{
closed = 1;
nodes = (
"519 -279 OFFCURVE",
"528 -270 OFFCURVE",
"528 -259 CURVE SMOOTH",
"528 -202 OFFCURVE",
"536 454 OFFCURVE",
"536 478 CURVE SMOOTH",
"536 491 OFFCURVE",
"527 500 OFFCURVE",
"516 500 CURVE",
"505 500 OFFCURVE",
"496 491 OFFCURVE",
"496 478 CURVE SMOOTH",
"496 454 OFFCURVE",
"488 -199 OFFCURVE",
"488 -259 CURVE SMOOTH",
"488 -270 OFFCURVE",
"497 -279 OFFCURVE",
"508 -279 CURVE SMOOTH"
);
}
);
width = 617;
},
{
components = (
{
name = bp_curve;
transform = "{-1, 0, 0, 1, 674, 0}";
}
);
layerId = "2E7D65B2-411D-4607-BF7C-7C0096008F1D";
paths = (
{
closed = 1;
nodes = (
"563 -324 OFFCURVE",
"592 -295 OFFCURVE",
"592 -259 CURVE SMOOTH",
"592 -250 OFFCURVE",
"601 424 OFFCURVE",
"601 459 CURVE SMOOTH",
"601 500 OFFCURVE",
"571 534 OFFCURVE",
"534 534 CURVE SMOOTH",
"501 534 OFFCURVE",
"471 502 OFFCURVE",
"471 467 CURVE SMOOTH",
"471 445 OFFCURVE",
"462 -246 OFFCURVE",
"462 -259 CURVE SMOOTH",
"462 -295 OFFCURVE",
"491 -324 OFFCURVE",
"527 -324 CURVE SMOOTH"
);
}
);
width = 666;
}
);
leftKerningGroup = o;
leftMetricsKey = "=o";
unicode = 0071;
},
{
glyphname = r;
layers = (
{
layerId = "F0262224-B9C7-46EB-9294-168F9DBDA589";
paths = (
{
closed = 1;
nodes = (
"369 319 OFFCURVE",
"404 357 OFFCURVE",
"404 402 CURVE SMOOTH",
"404 462 OFFCURVE",
"352 502 OFFCURVE",
"291 502 CURVE SMOOTH",
"239 502 OFFCURVE",
"147 500 OFFCURVE",
"78 500 CURVE",
"130 462 LINE",
"174 462 OFFCURVE",
"240 462 OFFCURVE",
"291 462 CURVE SMOOTH",
"330 462 OFFCURVE",
"364 440 OFFCURVE",
"364 402 CURVE SMOOTH",
"364 374 OFFCURVE",
"338 349 OFFCURVE",
"314 339 CURVE SMOOTH",
"307 336 OFFCURVE",
"301 329 OFFCURVE",
"301 320 CURVE SMOOTH",
"301 306 OFFCURVE",
"317 297 OFFCURVE",
"329 302 CURVE SMOOTH"
);
},
{
closed = 1;
nodes = (
"138 -12 OFFCURVE",
"147 -3 OFFCURVE",
"147 8 CURVE SMOOTH",
"147 65 OFFCURVE",
"156 379 OFFCURVE",
"156 399 CURVE SMOOTH",
"156 454 OFFCURVE",
"124 500 OFFCURVE",
"78 500 CURVE SMOOTH",
"68 500 OFFCURVE",
"60 491 OFFCURVE",
"60 480 CURVE SMOOTH",
"60 468 OFFCURVE",
"72 464 OFFCURVE",
"83 460 CURVE SMOOTH",
"100 454 OFFCURVE",
"116 428 OFFCURVE",
"116 397 CURVE SMOOTH",
"116 379 OFFCURVE",
"107 68 OFFCURVE",
"107 8 CURVE SMOOTH",
"107 -3 OFFCURVE",
"116 -12 OFFCURVE",
"127 -12 CURVE SMOOTH"
);
}
);
width = 444;
},
{
layerId = "2E7D65B2-411D-4607-BF7C-7C0096008F1D";
paths = (
{
closed = 1;
nodes = (
"443 265 OFFCURVE",
"484 322 OFFCURVE",
"484 382 CURVE SMOOTH",
"484 464 OFFCURVE",
"415 527 OFFCURVE",
"326 527 CURVE SMOOTH",
"316 527 OFFCURVE",
"127 525 OFFCURVE",
"113 525 CURVE",
"146 407 LINE",
"191 407 OFFCURVE",
"265 407 OFFCURVE",
"326 407 CURVE SMOOTH",
"340 407 OFFCURVE",
"354 394 OFFCURVE",
"354 382 CURVE SMOOTH",
"354 376 OFFCURVE",
"343 365 OFFCURVE",
"332 361 CURVE SMOOTH",
"308 352 OFFCURVE",
"291 327 OFFCURVE",
"291 300 CURVE SMOOTH",
"291 254 OFFCURVE",
"339 223 OFFCURVE",
"382 240 CURVE SMOOTH"
);
},
{
closed = 1;
nodes = (
"198 -34 OFFCURVE",
"227 -5 OFFCURVE",
"227 31 CURVE SMOOTH",
"227 50 OFFCURVE",
"235 296 OFFCURVE",
"236 329 CURVE SMOOTH",
"239 423 OFFCURVE",
"177 525 OFFCURVE",
"113 525 CURVE SMOOTH",
"78 525 OFFCURVE",
"50 496 OFFCURVE",
"50 460 CURVE SMOOTH",
"50 440 OFFCURVE",
"59 429 OFFCURVE",
"79 415 CURVE SMOOTH",
"104 400 OFFCURVE",
"106 383 OFFCURVE",
"106 340 CURVE SMOOTH",
"106 318 OFFCURVE",
"97 56 OFFCURVE",
"97 31 CURVE SMOOTH",
"97 -5 OFFCURVE",
"126 -34 OFFCURVE",
"162 -34 CURVE SMOOTH"
);
}
);
width = 524;
}
);
leftKerningGroup = n;
leftMetricsKey = "=h";
unicode = 0072;
},
{
glyphname = s;
layers = (
{
layerId = "F0262224-B9C7-46EB-9294-168F9DBDA589";
paths = (
{
closed = 1;
nodes = (
"366 -7 OFFCURVE",
"435 39 OFFCURVE",
"435 117 CURVE SMOOTH",
"435 194 OFFCURVE",
"393 235 OFFCURVE",
"270 275 CURVE SMOOTH",
"208 295 OFFCURVE",
"122 322 OFFCURVE",
"122 386 CURVE SMOOTH",
"122 436 OFFCURVE",
"179 473 OFFCURVE",
"256 473 CURVE SMOOTH",
"323 473 OFFCURVE",
"380 439 OFFCURVE",
"400 393 CURVE SMOOTH",
"403 386 OFFCURVE",
"411 381 OFFCURVE",
"419 381 CURVE SMOOTH",
"434 381 OFFCURVE",
"442 396 OFFCURVE",
"437 409 CURVE SMOOTH",
"414 468 OFFCURVE",
"341 513 OFFCURVE",
"256 513 CURVE SMOOTH",
"161 513 OFFCURVE",
"82 459 OFFCURVE",
"82 386 CURVE SMOOTH",
"82 292 OFFCURVE",
"192 261 OFFCURVE",
"252 239 CURVE SMOOTH",
"358 200 OFFCURVE",
"395 169 OFFCURVE",
"395 117 CURVE SMOOTH",
"395 64 OFFCURVE",
"341 33 OFFCURVE",
"250 33 CURVE SMOOTH",
"187 33 OFFCURVE",
"111 69 OFFCURVE",
"87 117 CURVE SMOOTH",
"84 123 OFFCURVE",
"77 127 OFFCURVE",
"70 127 CURVE SMOOTH",
"59 127 OFFCURVE",
"50 118 OFFCURVE",
"50 107 CURVE SMOOTH",
"50 103 OFFCURVE",
"51 100 OFFCURVE",
"53 97 CURVE SMOOTH",
"93 38 OFFCURVE",
"183 -7 OFFCURVE",
"250 -7 CURVE SMOOTH"
);
}
);
width = 488;
},
{
layerId = "2E7D65B2-411D-4607-BF7C-7C0096008F1D";
paths = (
{
closed = 1;
nodes = (
"416 -26 OFFCURVE",
"502 30 OFFCURVE",
"505 132 CURVE SMOOTH",
"508 234 OFFCURVE",
"408 278 OFFCURVE",
"302 310 CURVE SMOOTH",
"207 345 OFFCURVE",
"192 351 OFFCURVE",
"192 374 CURVE SMOOTH",
"192 396 OFFCURVE",
"219 410 OFFCURVE",
"264 410 CURVE SMOOTH",
"316 410 OFFCURVE",
"352 388 OFFCURVE",
"374 354 CURVE SMOOTH",
"388 332 OFFCURVE",
"410 316 OFFCURVE",
"434 316 CURVE SMOOTH",
"483 316 OFFCURVE",
"513 368 OFFCURVE",
"491 412 CURVE SMOOTH",
"451 493 OFFCURVE",
"373 530 OFFCURVE",
"273 530 CURVE SMOOTH",
"156 530 OFFCURVE",
"62 462 OFFCURVE",
"62 366 CURVE SMOOTH",
"62 237 OFFCURVE",
"211 210 OFFCURVE",
"270 193 CURVE SMOOTH",
"354 167 OFFCURVE",
"375 158 OFFCURVE",
"375 136 CURVE SMOOTH",
"375 108 OFFCURVE",
"323 94 OFFCURVE",
"275 94 CURVE SMOOTH",
"240 94 OFFCURVE",
"192 109 OFFCURVE",
"160 160 CURVE SMOOTH",
"146 182 OFFCURVE",
"125 192 OFFCURVE",
"105 192 CURVE SMOOTH",
"69 192 OFFCURVE",
"40 163 OFFCURVE",
"40 127 CURVE SMOOTH",
"40 117 OFFCURVE",
"43 105 OFFCURVE",
"49 94 CURVE SMOOTH",
"85 21 OFFCURVE",
"180 -26 OFFCURVE",
"275 -26 CURVE SMOOTH"
);
}
);
width = 545;
},
{
associatedMasterId = "2E7D65B2-411D-4607-BF7C-7C0096008F1D";
layerId = "C1B64C04-91E2-410E-90A7-837A2AD3A22D";
name = "Sep 23 19, 21:40";
paths = (
{
closed = 1;
nodes = (
"121 -3 OFFCURVE",
"210 -20 OFFCURVE",
"262 -20 CURVE SMOOTH",
"398 -20 OFFCURVE",
"482 24 OFFCURVE",
"482 95 CURVE SMOOTH",
"482 150 OFFCURVE",
"424 173 OFFCURVE",
"294 229 CURVE SMOOTH",
"225 259 OFFCURVE",
"152 288 OFFCURVE",
"152 344 CURVE SMOOTH",
"152 391 OFFCURVE",
"212 423 OFFCURVE",
"268 423 CURVE SMOOTH",
"342 423 OFFCURVE",
"393 391 OFFCURVE",
"387 335 CURVE SMOOTH",
"384 305 OFFCURVE",
"408 281 OFFCURVE",
"439 281 CURVE SMOOTH",
"465 281 OFFCURVE",
"487 301 OFFCURVE",
"490 327 CURVE SMOOTH",
"503 442 OFFCURVE",
"402 523 OFFCURVE",
"268 523 CURVE SMOOTH",
"157 523 OFFCURVE",
"50 441 OFFCURVE",
"50 344 CURVE SMOOTH",
"50 250 OFFCURVE",
"123 211 OFFCURVE",
"258 150 CURVE SMOOTH",
"322 121 OFFCURVE",
"379 111 OFFCURVE",
"379 92 CURVE SMOOTH",
"379 73 OFFCURVE",
"328 67 OFFCURVE",
"268 67 CURVE SMOOTH",
"225 67 OFFCURVE",
"157 87 OFFCURVE",
"132 98 CURVE SMOOTH",
"125 101 OFFCURVE",
"114 105 OFFCURVE",
"105 105 CURVE SMOOTH",
"77 105 OFFCURVE",
"54 89 OFFCURVE",
"54 61 CURVE SMOOTH",
"54 43 OFFCURVE",
"63 26 OFFCURVE",
"83 16 CURVE SMOOTH"
);
}
);
width = 511;
},
{
associatedMasterId = "F0262224-B9C7-46EB-9294-168F9DBDA589";
layerId = "D63430B0-7209-402A-BA3B-18DE8FE369C9";
name = "Sep 23 19, 21:40";
paths = (
{
closed = 1;
nodes = (
"112 -6 OFFCURVE",
"198 -20 OFFCURVE",
"238 -20 CURVE SMOOTH",
"344 -20 OFFCURVE",
"418 13 OFFCURVE",
"418 64 CURVE SMOOTH",
"418 112 OFFCURVE",
"379 132 OFFCURVE",
"267 195 CURVE SMOOTH",
"173 249 OFFCURVE",
"108 295 OFFCURVE",
"108 374 CURVE SMOOTH",
"108 435 OFFCURVE",
"175 483 OFFCURVE",
"244 483 CURVE SMOOTH",
"325 483 OFFCURVE",
"390 445 OFFCURVE",
"383 362 CURVE SMOOTH",
"382 350 OFFCURVE",
"392 341 OFFCURVE",
"405 341 CURVE SMOOTH",
"416 341 OFFCURVE",
"425 349 OFFCURVE",
"426 360 CURVE SMOOTH",
"436 466 OFFCURVE",
"349 523 OFFCURVE",
"244 523 CURVE SMOOTH",
"153 523 OFFCURVE",
"66 457 OFFCURVE",
"66 374 CURVE SMOOTH",
"66 279 OFFCURVE",
"139 222 OFFCURVE",
"246 161 CURVE SMOOTH",
"343 106 OFFCURVE",
"376 93 OFFCURVE",
"376 64 CURVE SMOOTH",
"376 42 OFFCURVE",
"316 20 OFFCURVE",
"238 20 CURVE SMOOTH",
"203 20 OFFCURVE",
"117 31 OFFCURVE",
"91 48 CURVE SMOOTH",
"88 50 OFFCURVE",
"84 50 OFFCURVE",
"81 50 CURVE SMOOTH",
"70 50 OFFCURVE",
"60 42 OFFCURVE",
"60 31 CURVE SMOOTH",
"60 23 OFFCURVE",
"66 16 OFFCURVE",
"72 13 CURVE SMOOTH"
);
}
);
width = 487;
}
);
leftKerningGroup = o;
leftMetricsKey = "=o";
rightKerningGroup = o;
rightMetricsKey = "=o";
unicode = 0073;
},
{
glyphname = germandbls;
layers = (
{
layerId = "F0262224-B9C7-46EB-9294-168F9DBDA589";
paths = (
{
closed = 1;
nodes = (
"60 8 OFFCURVE",
"69 -1 OFFCURVE",
"80 -1 CURVE SMOOTH",
"91 -1 OFFCURVE",
"100 8 OFFCURVE",
"100 19 CURVE SMOOTH",
"100 584 LINE SMOOTH",
"100 761 OFFCURVE",
"163 835 OFFCURVE",
"251 835 CURVE SMOOTH",
"339 835 OFFCURVE",
"401 773 OFFCURVE",
"401 671 CURVE SMOOTH",
"401 574 OFFCURVE",
"333 469 OFFCURVE",
"241 460 CURVE SMOOTH",
"231 459 OFFCURVE",
"223 450 OFFCURVE",
"223 439 CURVE SMOOTH",
"223 428 OFFCURVE",
"233 420 OFFCURVE",
"244 420 CURVE SMOOTH",
"377 420 OFFCURVE",
"459 322 OFFCURVE",
"459 218 CURVE SMOOTH",
"459 105 OFFCURVE",
"371 27 OFFCURVE",
"221 27 CURVE SMOOTH",
"210 27 OFFCURVE",
"202 18 OFFCURVE",
"202 7 CURVE SMOOTH",
"202 -4 OFFCURVE",
"212 -13 OFFCURVE",
"223 -13 CURVE SMOOTH",
"394 -13 OFFCURVE",
"499 81 OFFCURVE",
"499 218 CURVE SMOOTH",
"499 324 OFFCURVE",
"435 415 OFFCURVE",
"325 440 CURVE",
"300 443 OFFCURVE",
"283 444 OFFCURVE",
"283 438 CURVE SMOOTH",
"283 434 OFFCURVE",
"302 438 OFFCURVE",
"325 444 CURVE",
"395 481 OFFCURVE",
"441 585 OFFCURVE",
"441 671 CURVE SMOOTH",
"441 795 OFFCURVE",
"361 875 OFFCURVE",
"251 875 CURVE SMOOTH",
"139 875 OFFCURVE",
"60 783 OFFCURVE",
"60 584 CURVE SMOOTH",
"60 19 LINE SMOOTH"
);
}
);
width = 549;
},
{
layerId = "2E7D65B2-411D-4607-BF7C-7C0096008F1D";
paths = (
{
closed = 1;
nodes = (
"50 13 OFFCURVE",
"79 -16 OFFCURVE",
"115 -16 CURVE SMOOTH",
"151 -16 OFFCURVE",
"180 13 OFFCURVE",
"180 49 CURVE SMOOTH",
"180 604 LINE SMOOTH",
"180 705 OFFCURVE",
"215 760 OFFCURVE",
"276 760 CURVE SMOOTH",
"344 760 OFFCURVE",
"391 712 OFFCURVE",
"391 641 CURVE SMOOTH",
"391 561 OFFCURVE",
"337 500 OFFCURVE",
"272 495 CURVE SMOOTH",
"239 492 OFFCURVE",
"213 464 OFFCURVE",
"213 429 CURVE SMOOTH",
"213 395 OFFCURVE",
"242 366 OFFCURVE",
"277 365 CURVE SMOOTH",
"380 361 OFFCURVE",
"449 302 OFFCURVE",
"449 218 CURVE SMOOTH",
"449 162 OFFCURVE",
"363 116 OFFCURVE",
"270 112 CURVE SMOOTH",
"235 110 OFFCURVE",
"208 82 OFFCURVE",
"208 47 CURVE SMOOTH",
"208 9 OFFCURVE",
"241 -18 OFFCURVE",
"279 -18 CURVE SMOOTH",
"463 -18 OFFCURVE",
"579 65 OFFCURVE",
"579 218 CURVE SMOOTH",
"579 324 OFFCURVE",
"533 407 OFFCURVE",
"401 428 CURVE",
"337 442 OFFCURVE",
"273 477 OFFCURVE",
"273 428 CURVE SMOOTH",
"273 373 OFFCURVE",
"327 420 OFFCURVE",
"401 442 CURVE",
"482 482 OFFCURVE",
"521 527 OFFCURVE",
"521 641 CURVE SMOOTH",
"521 785 OFFCURVE",
"417 890 OFFCURVE",
"276 890 CURVE SMOOTH",
"138 890 OFFCURVE",
"50 778 OFFCURVE",
"50 604 CURVE SMOOTH",
"50 49 LINE SMOOTH"
);
}
);
width = 619;
}
);
leftMetricsKey = "=h";
rightMetricsKey = "=o";
unicode = 00DF;
},
{
glyphname = t;
layers = (
{
layerId = "F0262224-B9C7-46EB-9294-168F9DBDA589";
paths = (
{
closed = 1;
nodes = (
"250 0 OFFCURVE",
"262 5 OFFCURVE",
"262 20 CURVE SMOOTH",
"262 32 OFFCURVE",
"254 42 OFFCURVE",
"240 45 CURVE SMOOTH",
"212 52 OFFCURVE",
"176 65 OFFCURVE",
"176 123 CURVE SMOOTH",
"174 682 LINE SMOOTH",
"174 693 OFFCURVE",
"165 702 OFFCURVE",
"154 702 CURVE SMOOTH",
"143 702 OFFCURVE",
"134 693 OFFCURVE",
"134 682 CURVE SMOOTH",
"136 105 LINE SMOOTH",
"136 36 OFFCURVE",
"195 0 OFFCURVE",
"240 0 CURVE SMOOTH"
);
},
{
closed = 1;
nodes = (
"293 460 LINE SMOOTH",
"304 460 OFFCURVE",
"313 469 OFFCURVE",
"313 480 CURVE SMOOTH",
"313 491 OFFCURVE",
"304 500 OFFCURVE",
"293 500 CURVE SMOOTH",
"70 500 LINE SMOOTH",
"59 500 OFFCURVE",
"50 491 OFFCURVE",
"50 480 CURVE SMOOTH",
"50 469 OFFCURVE",
"59 460 OFFCURVE",
"70 460 CURVE SMOOTH"
);
}
);
width = 353;
},
{
layerId = "2E7D65B2-411D-4607-BF7C-7C0096008F1D";
paths = (
{
closed = 1;
nodes = (
"325 -25 OFFCURVE",
"356 2 OFFCURVE",
"356 35 CURVE SMOOTH",
"356 66 OFFCURVE",
"331 96 OFFCURVE",
"301 102 CURVE SMOOTH",
"257 110 OFFCURVE",
"240 130 OFFCURVE",
"240 175 CURVE SMOOTH",
"239 662 LINE SMOOTH",
"239 698 OFFCURVE",
"210 727 OFFCURVE",
"174 727 CURVE SMOOTH",
"138 727 OFFCURVE",
"109 698 OFFCURVE",
"109 662 CURVE SMOOTH",
"110 175 LINE SMOOTH",
"110 43 OFFCURVE",
"170 -25 OFFCURVE",
"289 -25 CURVE SMOOTH"
);
},
{
closed = 1;
nodes = (
"313 375 LINE SMOOTH",
"349 375 OFFCURVE",
"378 404 OFFCURVE",
"378 440 CURVE SMOOTH",
"378 476 OFFCURVE",
"349 505 OFFCURVE",
"313 505 CURVE SMOOTH",
"90 505 LINE SMOOTH",
"54 505 OFFCURVE",
"25 476 OFFCURVE",
"25 440 CURVE SMOOTH",
"25 404 OFFCURVE",
"54 375 OFFCURVE",
"90 375 CURVE SMOOTH"
);
}
);
width = 403;
}
);
unicode = 0074;
},
{
glyphname = u;
layers = (
{
hints = (
{
origin = "{1, 7}";
target = "{1, 8}";
type = Cap;
name = _cap.top;
},
{
origin = "{0, 12}";
target = "{0, 13}";
type = Cap;
name = _cap.top;
}
);
layerId = "F0262224-B9C7-46EB-9294-168F9DBDA589";
paths = (
{
closed = 1;
nodes = (
"405 -9 OFFCURVE",
"467 108 OFFCURVE",
"475 179 CURVE",
"453 214 LINE",
"454 132 OFFCURVE",
"361 31 OFFCURVE",
"276 31 CURVE SMOOTH",
"207 31 OFFCURVE",
"154 83 OFFCURVE",
"153 159 CURVE SMOOTH",
"152 243 OFFCURVE",
"156 359 OFFCURVE",
"156 500 CURVE",
"116 500 LINE",
"116 359 OFFCURVE",
"112 243 OFFCURVE",
"113 159 CURVE SMOOTH",
"114 60 OFFCURVE",
"184 -9 OFFCURVE",
"276 -9 CURVE SMOOTH"
);
},
{
closed = 1;
nodes = (
"497 483 LINE SMOOTH",
"497 494 OFFCURVE",
"488 503 OFFCURVE",
"477 503 CURVE SMOOTH",
"466 503 OFFCURVE",
"457 495 OFFCURVE",
"457 484 CURVE SMOOTH",
"449 2 LINE",
"489 1 LINE"
);
}
);
width = 585;
},
{
hints = (
{
origin = "{1, 7}";
type = Cap;
name = _cap.top;
},
{
origin = "{0, 12}";
target = "{0, 13}";
type = Cap;
name = _cap.top;
}
);
layerId = "2E7D65B2-411D-4607-BF7C-7C0096008F1D";
paths = (
{
closed = 1;
nodes = (
"429 -14 OFFCURVE",
"527 70 OFFCURVE",
"536 200 CURVE",
"453 214 LINE",
"454 141 OFFCURVE",
"376 116 OFFCURVE",
"326 116 CURVE SMOOTH",
"274 116 OFFCURVE",
"234 160 OFFCURVE",
"233 219 CURVE SMOOTH",
"232 262 OFFCURVE",
"236 418 OFFCURVE",
"236 500 CURVE",
"106 500 LINE",
"106 419 OFFCURVE",
"102 232 OFFCURVE",
"103 189 CURVE SMOOTH",
"106 74 OFFCURVE",
"191 -14 OFFCURVE",
"326 -14 CURVE SMOOTH"
);
},
{
closed = 1;
nodes = (
"587 460 LINE SMOOTH",
"588 500 OFFCURVE",
"550 520 OFFCURVE",
"522 520 CURVE SMOOTH",
"494 520 OFFCURVE",
"458 500 OFFCURVE",
"457 461 CURVE SMOOTH",
"449 3 LINE",
"578 0 LINE"
);
}
);
width = 676;
}
);
leftKerningGroup = n;
leftMetricsKey = "=h";
rightKerningGroup = n;
rightMetricsKey = "=h";
unicode = 0075;
},
{
glyphname = v;
layers = (
{
layerId = "F0262224-B9C7-46EB-9294-168F9DBDA589";
paths = (
{
closed = 1;
nodes = (
"511 477 LINE SMOOTH",
"517 490 OFFCURVE",
"507 505 OFFCURVE",
"493 505 CURVE SMOOTH",
"485 505 OFFCURVE",
"478 500 OFFCURVE",
"475 493 CURVE SMOOTH",
"272 38 LINE",
"292 38 LINE",
"88 492 LINE SMOOTH",
"85 499 OFFCURVE",
"78 504 OFFCURVE",
"70 504 CURVE SMOOTH",
"56 504 OFFCURVE",
"46 489 OFFCURVE",
"52 476 CURVE SMOOTH",
"264 6 LINE SMOOTH",
"273 -14 OFFCURVE",
"287 -14 OFFCURVE",
"296 5 CURVE SMOOTH"
);
}
);
width = 563;
},
{
layerId = "2E7D65B2-411D-4607-BF7C-7C0096008F1D";
paths = (
{
closed = 1;
nodes = (
"580 439 LINE SMOOTH",
"600 481 OFFCURVE",
"568 531 OFFCURVE",
"521 531 CURVE SMOOTH",
"496 531 OFFCURVE",
"473 516 OFFCURVE",
"462 492 CURVE SMOOTH",
"262 42 LINE",
"367 28 LINE",
"164 492 LINE SMOOTH",
"153 516 OFFCURVE",
"130 531 OFFCURVE",
"105 531 CURVE SMOOTH",
"58 531 OFFCURVE",
"27 481 OFFCURVE",
"46 440 CURVE SMOOTH",
"251 -12 LINE SMOOTH",
"276 -67 OFFCURVE",
"339 -68 OFFCURVE",
"365 -14 CURVE SMOOTH"
);
}
);
width = 626;
}
);
leftKerningGroup = v;
rightKerningGroup = v;
rightMetricsKey = "=|";
unicode = 0076;
},
{
glyphname = w;
layers = (
{
layerId = "F0262224-B9C7-46EB-9294-168F9DBDA589";
paths = (
{
closed = 1;
nodes = (
"760 477 LINE SMOOTH",
"765 490 OFFCURVE",
"756 505 OFFCURVE",
"742 505 CURVE SMOOTH",
"734 505 OFFCURVE",
"727 500 OFFCURVE",
"724 493 CURVE SMOOTH",
"541 38 LINE",
"561 38 LINE",
"344 476 LINE SMOOTH",
"341 483 OFFCURVE",
"334 488 OFFCURVE",
"326 488 CURVE SMOOTH",
"312 488 OFFCURVE",
"302 473 OFFCURVE",
"308 460 CURVE SMOOTH",
"533 6 LINE SMOOTH",
"543 -14 OFFCURVE",
"557 -14 OFFCURVE",
"565 5 CURVE SMOOTH"
);
},
{
closed = 1;
nodes = (
"417 272 LINE",
"398 309 LINE",
"251 38 LINE",
"271 38 LINE",
"87 492 LINE SMOOTH",
"84 499 OFFCURVE",
"77 504 OFFCURVE",
"69 504 CURVE SMOOTH",
"55 504 OFFCURVE",
"46 489 OFFCURVE",
"51 476 CURVE SMOOTH",
"243 6 LINE SMOOTH",
"251 -14 OFFCURVE",
"265 -14 OFFCURVE",
"275 5 CURVE SMOOTH"
);
}
);
width = 811;
},
{
layerId = "2E7D65B2-411D-4607-BF7C-7C0096008F1D";
paths = (
{
closed = 1;
nodes = (
"820 436 LINE SMOOTH",
"839 478 OFFCURVE",
"808 528 OFFCURVE",
"761 528 CURVE SMOOTH",
"736 528 OFFCURVE",
"713 513 OFFCURVE",
"702 489 CURVE SMOOTH",
"522 68 LINE",
"638 63 LINE",
"437 488 LINE SMOOTH",
"426 512 OFFCURVE",
"403 527 OFFCURVE",
"378 527 CURVE SMOOTH",
"331 527 OFFCURVE",
"300 477 OFFCURVE",
"319 435 CURVE SMOOTH",
"521 16 LINE SMOOTH",
"548 -40 OFFCURVE",
"611 -40 OFFCURVE",
"635 14 CURVE SMOOTH"
);
},
{
closed = 1;
nodes = (
"474 265 LINE",
"396 417 LINE",
"227 54 LINE",
"343 54 LINE",
"163 488 LINE SMOOTH",
"152 512 OFFCURVE",
"129 527 OFFCURVE",
"104 527 CURVE SMOOTH",
"58 527 OFFCURVE",
"27 477 OFFCURVE",
"45 436 CURVE SMOOTH",
"227 16 LINE SMOOTH",
"252 -41 OFFCURVE",
"310 -43 OFFCURVE",
"340 13 CURVE SMOOTH"
);
}
);
width = 866;
}
);
leftKerningGroup = v;
leftMetricsKey = "=v";
rightKerningGroup = v;
rightMetricsKey = "=|";
unicode = 0077;
},
{
glyphname = x;
layers = (
{
layerId = "F0262224-B9C7-46EB-9294-168F9DBDA589";
paths = (
{
closed = 1;
nodes = (
"76 -4 OFFCURVE",
"82 -1 OFFCURVE",
"86 4 CURVE SMOOTH",
"465 474 LINE SMOOTH",
"467 477 OFFCURVE",
"469 481 OFFCURVE",
"469 486 CURVE SMOOTH",
"469 497 OFFCURVE",
"460 506 OFFCURVE",
"449 506 CURVE SMOOTH",
"443 506 OFFCURVE",
"437 503 OFFCURVE",
"433 498 CURVE SMOOTH",
"54 28 LINE SMOOTH",
"52 25 OFFCURVE",
"50 21 OFFCURVE",
"50 16 CURVE SMOOTH",
"50 5 OFFCURVE",
"59 -4 OFFCURVE",
"70 -4 CURVE SMOOTH"
);
},
{
closed = 1;
nodes = (
"460 -3 OFFCURVE",
"469 6 OFFCURVE",
"469 17 CURVE SMOOTH",
"469 22 OFFCURVE",
"467 26 OFFCURVE",
"465 29 CURVE SMOOTH",
"99 500 LINE SMOOTH",
"96 504 OFFCURVE",
"89 508 OFFCURVE",
"83 508 CURVE SMOOTH",
"72 508 OFFCURVE",
"63 499 OFFCURVE",
"63 488 CURVE SMOOTH",
"63 483 OFFCURVE",
"65 479 OFFCURVE",
"67 476 CURVE SMOOTH",
"433 5 LINE SMOOTH",
"436 1 OFFCURVE",
"443 -3 OFFCURVE",
"449 -3 CURVE SMOOTH"
);
}
);
width = 519;
},
{
layerId = "2E7D65B2-411D-4607-BF7C-7C0096008F1D";
paths = (
{
closed = 1;
nodes = (
"118 -29 OFFCURVE",
"137 -20 OFFCURVE",
"152 -3 CURVE SMOOTH",
"510 417 LINE SMOOTH",
"519 427 OFFCURVE",
"524 441 OFFCURVE",
"524 456 CURVE SMOOTH",
"524 492 OFFCURVE",
"495 521 OFFCURVE",
"459 521 CURVE SMOOTH",
"441 521 OFFCURVE",
"422 512 OFFCURVE",
"407 495 CURVE SMOOTH",
"49 75 LINE SMOOTH",
"40 65 OFFCURVE",
"35 51 OFFCURVE",
"35 36 CURVE SMOOTH",
"35 0 OFFCURVE",
"64 -29 OFFCURVE",
"100 -29 CURVE SMOOTH"
);
},
{
closed = 1;
nodes = (
"495 -28 OFFCURVE",
"524 1 OFFCURVE",
"524 37 CURVE SMOOTH",
"524 53 OFFCURVE",
"519 67 OFFCURVE",
"510 77 CURVE SMOOTH",
"165 498 LINE SMOOTH",
"152 513 OFFCURVE",
"132 523 OFFCURVE",
"113 523 CURVE SMOOTH",
"77 523 OFFCURVE",
"48 494 OFFCURVE",
"48 458 CURVE SMOOTH",
"48 442 OFFCURVE",
"53 428 OFFCURVE",
"62 418 CURVE SMOOTH",
"407 -3 LINE SMOOTH",
"420 -18 OFFCURVE",
"440 -28 OFFCURVE",
"459 -28 CURVE SMOOTH"
);
}
);
width = 559;
}
);
leftKerningGroup = n;
rightKerningGroup = n;
unicode = 0078;
},
{
glyphname = y;
layers = (
{
layerId = "F0262224-B9C7-46EB-9294-168F9DBDA589";
paths = (
{
closed = 1;
nodes = (
"150 -283 OFFCURVE",
"191 -227 OFFCURVE",
"243 -114 CURVE SMOOTH",
"517 478 LINE SMOOTH",
"523 491 OFFCURVE",
"512 507 OFFCURVE",
"498 507 CURVE SMOOTH",
"489 507 OFFCURVE",
"482 501 OFFCURVE",
"479 494 CURVE SMOOTH",
"207 -98 LINE SMOOTH",
"160 -201 OFFCURVE",
"126 -248 OFFCURVE",
"66 -263 CURVE SMOOTH",
"58 -265 OFFCURVE",
"50 -273 OFFCURVE",
"50 -282 CURVE SMOOTH",
"50 -296 OFFCURVE",
"63 -305 OFFCURVE",
"75 -302 CURVE SMOOTH"
);
},
{
closed = 1;
nodes = (
"282 24 LINE",
"102 491 LINE SMOOTH",
"99 498 OFFCURVE",
"92 504 OFFCURVE",
"83 504 CURVE SMOOTH",
"69 504 OFFCURVE",
"60 489 OFFCURVE",
"65 477 CURVE SMOOTH",
"261 -31 LINE"
);
}
);
width = 569;
},
{
layerId = "2E7D65B2-411D-4607-BF7C-7C0096008F1D";
paths = (
{
closed = 1;
nodes = (
"191 -307 OFFCURVE",
"266 -215 OFFCURVE",
"342 -51 CURVE SMOOTH",
"569 440 LINE SMOOTH",
"588 483 OFFCURVE",
"555 532 OFFCURVE",
"508 532 CURVE SMOOTH",
"482 532 OFFCURVE",
"459 517 OFFCURVE",
"447 492 CURVE SMOOTH",
"220 -14 LINE SMOOTH",
"170 -124 OFFCURVE",
"122 -190 OFFCURVE",
"85 -199 CURVE SMOOTH",
"56 -207 OFFCURVE",
"35 -233 OFFCURVE",
"35 -262 CURVE SMOOTH",
"35 -305 OFFCURVE",
"75 -336 OFFCURVE",
"116 -326 CURVE SMOOTH"
);
},
{
closed = 1;
nodes = (
"340 33 LINE",
"164 487 LINE SMOOTH",
"155 512 OFFCURVE",
"130 529 OFFCURVE",
"103 529 CURVE SMOOTH",
"58 529 OFFCURVE",
"27 483 OFFCURVE",
"43 441 CURVE SMOOTH",
"256 -92 LINE"
);
}
);
width = 609;
}
);
leftKerningGroup = v;
leftMetricsKey = "=x";
rightKerningGroup = v;
rightMetricsKey = "=|";
unicode = 0079;
},
{
glyphname = z;
layers = (
{
layerId = "F0262224-B9C7-46EB-9294-168F9DBDA589";
paths = (
{
closed = 1;
nodes = (
"462 0 LINE SMOOTH",
"473 0 OFFCURVE",
"482 9 OFFCURVE",
"482 20 CURVE SMOOTH",
"482 31 OFFCURVE",
"473 40 OFFCURVE",
"462 40 CURVE SMOOTH",
"101 40 LINE",
"105 24 LINE",
"456 471 LINE",
"468 487 OFFCURVE",
"462 500 OFFCURVE",
"442 500 CURVE SMOOTH",
"83 500 LINE SMOOTH",
"72 500 OFFCURVE",
"63 491 OFFCURVE",
"63 480 CURVE SMOOTH",
"63 469 OFFCURVE",
"72 460 OFFCURVE",
"83 460 CURVE SMOOTH",
"416 460 LINE",
"408 476 LINE",
"56 29 LINE",
"44 13 OFFCURVE",
"51 0 OFFCURVE",
"71 0 CURVE SMOOTH"
);
}
);
width = 532;
},
{
layerId = "2E7D65B2-411D-4607-BF7C-7C0096008F1D";
paths = (
{
closed = 1;
nodes = (
"478 -2 LINE SMOOTH",
"514 -2 OFFCURVE",
"543 27 OFFCURVE",
"543 63 CURVE SMOOTH",
"543 99 OFFCURVE",
"514 128 OFFCURVE",
"478 128 CURVE SMOOTH",
"101 128 LINE",
"188 41 LINE",
"508 409 LINE SMOOTH",
"547 453 OFFCURVE",
"517 511 OFFCURVE",
"458 511 CURVE SMOOTH",
"119 511 LINE SMOOTH",
"83 511 OFFCURVE",
"54 482 OFFCURVE",
"54 446 CURVE SMOOTH",
"54 410 OFFCURVE",
"83 381 OFFCURVE",
"119 381 CURVE SMOOTH",
"435 381 LINE",
"414 501 LINE",
"67 100 LINE SMOOTH",
"29 57 OFFCURVE",
"60 -2 OFFCURVE",
"117 -2 CURVE SMOOTH"
);
}
);
width = 593;
}
);
leftKerningGroup = n;
rightKerningGroup = n;
unicode = 007A;
},
{
glyphname = w.ss01;
layers = (
{
layerId = "F0262224-B9C7-46EB-9294-168F9DBDA589";
paths = (
{
closed = 1;
nodes = (
"761 477 LINE SMOOTH",
"767 490 OFFCURVE",
"757 505 OFFCURVE",
"743 505 CURVE SMOOTH",
"735 505 OFFCURVE",
"728 500 OFFCURVE",
"725 493 CURVE SMOOTH",
"522 38 LINE",
"542 38 LINE",
"338 492 LINE SMOOTH",
"335 499 OFFCURVE",
"328 504 OFFCURVE",
"320 504 CURVE SMOOTH",
"306 504 OFFCURVE",
"296 489 OFFCURVE",
"302 476 CURVE SMOOTH",
"514 6 LINE SMOOTH",
"523 -14 OFFCURVE",
"537 -14 OFFCURVE",
"546 5 CURVE SMOOTH"
);
},
{
closed = 1;
nodes = (
"511 477 LINE SMOOTH",
"517 490 OFFCURVE",
"507 505 OFFCURVE",
"493 505 CURVE SMOOTH",
"485 505 OFFCURVE",
"478 500 OFFCURVE",
"475 493 CURVE SMOOTH",
"272 38 LINE",
"292 38 LINE",
"88 492 LINE SMOOTH",
"85 499 OFFCURVE",
"78 504 OFFCURVE",
"70 504 CURVE SMOOTH",
"56 504 OFFCURVE",
"46 489 OFFCURVE",
"52 476 CURVE SMOOTH",
"264 6 LINE SMOOTH",
"273 -14 OFFCURVE",
"287 -14 OFFCURVE",
"296 5 CURVE SMOOTH"
);
}
);
width = 813;
},
{
layerId = "2E7D65B2-411D-4607-BF7C-7C0096008F1D";
paths = (
{
closed = 1;
nodes = (
"820 435 LINE SMOOTH",
"842 478 OFFCURVE",
"810 528 OFFCURVE",
"762 528 CURVE SMOOTH",
"737 528 OFFCURVE",
"716 514 OFFCURVE",
"704 490 CURVE SMOOTH",
"491 68 LINE",
"610 63 LINE",
"397 489 LINE SMOOTH",
"385 513 OFFCURVE",
"364 527 OFFCURVE",
"339 527 CURVE SMOOTH",
"292 527 OFFCURVE",
"259 476 OFFCURVE",
"281 435 CURVE SMOOTH",
"493 15 LINE SMOOTH",
"520 -39 OFFCURVE",
"578 -39 OFFCURVE",
"605 13 CURVE SMOOTH"
);
},
{
closed = 1;
nodes = (
"586 435 LINE SMOOTH",
"608 478 OFFCURVE",
"576 528 OFFCURVE",
"528 528 CURVE SMOOTH",
"503 528 OFFCURVE",
"482 514 OFFCURVE",
"470 490 CURVE SMOOTH",
"258 54 LINE",
"376 54 LINE",
"163 489 LINE SMOOTH",
"151 513 OFFCURVE",
"130 527 OFFCURVE",
"105 527 CURVE SMOOTH",
"58 527 OFFCURVE",
"25 476 OFFCURVE",
"47 435 CURVE SMOOTH",
"259 15 LINE SMOOTH",
"286 -39 OFFCURVE",
"344 -39 OFFCURVE",
"371 13 CURVE SMOOTH"
);
}
);
width = 867;
}
);
leftMetricsKey = "=v";
rightMetricsKey = "=|";
},
{
glyphname = ordfeminine;
layers = (
{
layerId = "F0262224-B9C7-46EB-9294-168F9DBDA589";
paths = (
{
closed = 1;
nodes = (
"419 430 OFFCURVE",
"427 438 OFFCURVE",
"427 447 CURVE SMOOTH",
"427 457 OFFCURVE",
"417 466 OFFCURVE",
"407 466 CURVE SMOOTH",
"392 466 OFFCURVE",
"377 478 OFFCURVE",
"373 495 CURVE SMOOTH",
"364 531 OFFCURVE",
"368 605 OFFCURVE",
"377 723 CURVE SMOOTH",
"382 792 OFFCURVE",
"329 842 OFFCURVE",
"249 842 CURVE SMOOTH",
"193 842 OFFCURVE",
"108 804 OFFCURVE",
"108 760 CURVE SMOOTH",
"108 750 OFFCURVE",
"117 742 OFFCURVE",
"127 742 CURVE SMOOTH",
"135 742 OFFCURVE",
"140 746 OFFCURVE",
"143 752 CURVE SMOOTH",
"156 786 OFFCURVE",
"195 805 OFFCURVE",
"249 805 CURVE SMOOTH",
"312 805 OFFCURVE",
"344 776 OFFCURVE",
"340 726 CURVE SMOOTH",
"331 628 OFFCURVE",
"329 531 OFFCURVE",
"337 487 CURVE SMOOTH",
"344 451 OFFCURVE",
"378 425 OFFCURVE",
"410 429 CURVE SMOOTH"
);
},
{
closed = 1;
nodes = (
"229 426 OFFCURVE",
"273 456 OFFCURVE",
"299 494 CURVE SMOOTH",
"303 500 OFFCURVE",
"304 507 OFFCURVE",
"303 510 CURVE SMOOTH",
"300 518 OFFCURVE",
"296 523 OFFCURVE",
"285 523 CURVE SMOOTH",
"278 523 OFFCURVE",
"273 520 OFFCURVE",
"270 516 CURVE SMOOTH",
"243 480 OFFCURVE",
"216 462 OFFCURVE",
"188 462 CURVE SMOOTH",
"149 462 OFFCURVE",
"123 486 OFFCURVE",
"123 520 CURVE SMOOTH",
"123 570 OFFCURVE",
"180 594 OFFCURVE",
"250 616 CURVE SMOOTH",
"292 629 OFFCURVE",
"351 654 OFFCURVE",
"368 690 CURVE",
"340 726 LINE",
"340 684 OFFCURVE",
"292 669 OFFCURVE",
"238 649 CURVE SMOOTH",
"170 624 OFFCURVE",
"86 593 OFFCURVE",
"86 520 CURVE SMOOTH",
"86 466 OFFCURVE",
"130 426 OFFCURVE",
"188 426 CURVE SMOOTH"
);
}
);
width = 525;
},
{
layerId = "2E7D65B2-411D-4607-BF7C-7C0096008F1D";
paths = (
{
closed = 1;
nodes = (
"433 419 OFFCURVE",
"463 444 OFFCURVE",
"463 474 CURVE SMOOTH",
"463 501 OFFCURVE",
"448 516 OFFCURVE",
"416 525 CURVE SMOOTH",
"408 528 OFFCURVE",
"405 533 OFFCURVE",
"405 546 CURVE SMOOTH",
"405 613 OFFCURVE",
"406 671 OFFCURVE",
"409 719 CURVE SMOOTH",
"414 812 OFFCURVE",
"357 863 OFFCURVE",
"248 863 CURVE SMOOTH",
"156 863 OFFCURVE",
"70 808 OFFCURVE",
"70 745 CURVE SMOOTH",
"70 714 OFFCURVE",
"96 689 OFFCURVE",
"127 689 CURVE SMOOTH",
"146 689 OFFCURVE",
"166 701 OFFCURVE",
"176 720 CURVE SMOOTH",
"190 744 OFFCURVE",
"214 757 OFFCURVE",
"248 757 CURVE SMOOTH",
"282 757 OFFCURVE",
"304 745 OFFCURVE",
"302 728 CURVE SMOOTH",
"292 625 OFFCURVE",
"291 552 OFFCURVE",
"299 501 CURVE SMOOTH",
"306 453 OFFCURVE",
"347 419 OFFCURVE",
"397 419 CURVE SMOOTH"
);
},
{
closed = 1;
nodes = (
"204 419 OFFCURVE",
"226 427 OFFCURVE",
"244 439 CURVE SMOOTH",
"259 449 OFFCURVE",
"278 476 OFFCURVE",
"269 509 CURVE SMOOTH",
"264 529 OFFCURVE",
"252 539 OFFCURVE",
"240 539 CURVE SMOOTH",
"229 539 OFFCURVE",
"220 535 OFFCURVE",
"210 531 CURVE SMOOTH",
"199 527 OFFCURVE",
"187 518 OFFCURVE",
"171 518 CURVE SMOOTH",
"158 518 OFFCURVE",
"149 532 OFFCURVE",
"149 539 CURVE SMOOTH",
"149 554 OFFCURVE",
"177 569 OFFCURVE",
"229 587 CURVE SMOOTH",
"315 616 OFFCURVE",
"363 656 OFFCURVE",
"367 705 CURVE",
"302 734 LINE",
"302 718 OFFCURVE",
"273 701 OFFCURVE",
"210 682 CURVE SMOOTH",
"105 651 OFFCURVE",
"48 597 OFFCURVE",
"48 526 CURVE SMOOTH",
"48 462 OFFCURVE",
"100 419 OFFCURVE",
"176 419 CURVE SMOOTH"
);
}
);
width = 585;
}
);
unicode = 00AA;
},
{
glyphname = ordmasculine;
layers = (
{
layerId = "F0262224-B9C7-46EB-9294-168F9DBDA589";
paths = (
{
closed = 1;
nodes = (
"351 452 OFFCURVE",
"429 537 OFFCURVE",
"429 655 CURVE SMOOTH",
"429 771 OFFCURVE",
"351 857 OFFCURVE",
"243 857 CURVE SMOOTH",
"134 857 OFFCURVE",
"56 772 OFFCURVE",
"56 655 CURVE SMOOTH",
"56 538 OFFCURVE",
"134 452 OFFCURVE",
"243 452 CURVE SMOOTH"
);
},
{
closed = 1;
nodes = (
"155 490 OFFCURVE",
"95 558 OFFCURVE",
"95 655 CURVE SMOOTH",
"95 752 OFFCURVE",
"155 819 OFFCURVE",
"243 819 CURVE SMOOTH",
"330 819 OFFCURVE",
"390 752 OFFCURVE",
"390 655 CURVE SMOOTH",
"390 558 OFFCURVE",
"330 490 OFFCURVE",
"243 490 CURVE SMOOTH"
);
}
);
width = 485;
},
{
layerId = "2E7D65B2-411D-4607-BF7C-7C0096008F1D";
paths = (
{
closed = 1;
nodes = (
"384 440 OFFCURVE",
"474 534 OFFCURVE",
"474 664 CURVE SMOOTH",
"474 794 OFFCURVE",
"384 887 OFFCURVE",
"259 887 CURVE SMOOTH",
"134 887 OFFCURVE",
"43 793 OFFCURVE",
"43 664 CURVE SMOOTH",
"43 533 OFFCURVE",
"133 440 OFFCURVE",
"259 440 CURVE SMOOTH"
);
},
{
closed = 1;
nodes = (
"197 551 OFFCURVE",
"154 597 OFFCURVE",
"154 664 CURVE SMOOTH",
"154 731 OFFCURVE",
"196 776 OFFCURVE",
"259 776 CURVE SMOOTH",
"320 776 OFFCURVE",
"363 730 OFFCURVE",
"363 664 CURVE SMOOTH",
"363 596 OFFCURVE",
"321 551 OFFCURVE",
"259 551 CURVE SMOOTH"
);
}
);
width = 517;
}
);
unicode = 00BA;
},
{
glyphname = "a-hira";
layers = (
{
anchors = (
{
name = LSB;
position = "{97, 370}";
},
{
name = RSB;
position = "{947, -54}";
}
);
layerId = "F0262224-B9C7-46EB-9294-168F9DBDA589";
paths = (
{
closed = 1;
nodes = (
"669 -7 OFFCURVE",
"841 116 OFFCURVE",
"841 321 CURVE SMOOTH",
"841 456 OFFCURVE",
"733 558 OFFCURVE",
"591 558 CURVE SMOOTH",
"345 558 OFFCURVE",
"209 384 OFFCURVE",
"209 263 CURVE SMOOTH",
"209 183 OFFCURVE",
"237 142 OFFCURVE",
"293 142 CURVE SMOOTH",
"361 142 OFFCURVE",
"499 291 OFFCURVE",
"546 421 CURVE SMOOTH",
"550 432 OFFCURVE",
"544 444 OFFCURVE",
"533 448 CURVE SMOOTH",
"522 452 OFFCURVE",
"510 446 OFFCURVE",
"506 435 CURVE SMOOTH",
"456 297 OFFCURVE",
"326 184 OFFCURVE",
"293 184 CURVE SMOOTH",
"279 184 OFFCURVE",
"251 184 OFFCURVE",
"251 263 CURVE SMOOTH",
"251 419 OFFCURVE",
"449 515 OFFCURVE",
"591 515 CURVE SMOOTH",
"709 515 OFFCURVE",
"798 432 OFFCURVE",
"799 321 CURVE SMOOTH",
"800 177 OFFCURVE",
"673 48 OFFCURVE",
"502 7 CURVE SMOOTH",
"490 4 OFFCURVE",
"483 -7 OFFCURVE",
"486 -18 CURVE",
"488 -28 OFFCURVE",
"497 -37 OFFCURVE",
"506 -35 CURVE SMOOTH"
);
},
{
closed = 1;
nodes = (
"486 215 OFFCURVE",
"497 231 OFFCURVE",
"491 245 CURVE SMOOTH",
"458 327 OFFCURVE",
"452 509 OFFCURVE",
"473 770 CURVE SMOOTH",
"474 782 OFFCURVE",
"465 792 OFFCURVE",
"453 793 CURVE SMOOTH",
"441 794 OFFCURVE",
"431 785 OFFCURVE",
"430 773 CURVE SMOOTH",
"408 499 OFFCURVE",
"415 319 OFFCURVE",
"452 228 CURVE SMOOTH",
"455 220 OFFCURVE",
"463 215 OFFCURVE",
"471 215 CURVE SMOOTH"
);
},
{
closed = 1;
nodes = (
"455 615 OFFCURVE",
"517 635 OFFCURVE",
"561 667 CURVE SMOOTH",
"571 674 OFFCURVE",
"573 687 OFFCURVE",
"566 696 CURVE",
"559 706 OFFCURVE",
"546 708 OFFCURVE",
"536 701 CURVE SMOOTH",
"467 650 OFFCURVE",
"353 643 OFFCURVE",
"308 685 CURVE SMOOTH",
"299 693 OFFCURVE",
"286 693 OFFCURVE",
"278 684 CURVE",
"270 676 OFFCURVE",
"270 662 OFFCURVE",
"279 654 CURVE SMOOTH",
"308 627 OFFCURVE",
"351 615 OFFCURVE",
"396 615 CURVE SMOOTH"
);
}
);
width = 1000;
},
{
anchors = (
{
name = LSB;
position = "{67, 370}";
},
{
name = RSB;
position = "{977, 266}";
}
);
layerId = "2E7D65B2-411D-4607-BF7C-7C0096008F1D";
paths = (
{
closed = 1;
nodes = (
"713 -68 OFFCURVE",
"885 91 OFFCURVE",
"885 308 CURVE SMOOTH",
"885 457 OFFCURVE",
"758 582 OFFCURVE",
"594 582 CURVE SMOOTH",
"353 582 OFFCURVE",
"157 435 OFFCURVE",
"157 238 CURVE SMOOTH",
"157 137 OFFCURVE",
"205 82 OFFCURVE",
"284 82 CURVE SMOOTH",
"391 82 OFFCURVE",
"575 212 OFFCURVE",
"620 343 CURVE SMOOTH",
"631 376 OFFCURVE",
"621 415 OFFCURVE",
"593 426 CURVE SMOOTH",
"565 438 OFFCURVE",
"525 427 OFFCURVE",
"513 400 CURVE SMOOTH",
"465 289 OFFCURVE",
"348 218 OFFCURVE",
"314 218 CURVE SMOOTH",
"298 218 OFFCURVE",
"289 230 OFFCURVE",
"289 261 CURVE SMOOTH",
"289 348 OFFCURVE",
"429 467 OFFCURVE",
"594 467 CURVE SMOOTH",
"685 467 OFFCURVE",
"750 396 OFFCURVE",
"750 308 CURVE SMOOTH",
"750 178 OFFCURVE",
"667 78 OFFCURVE",
"500 45 CURVE SMOOTH",
"461 37 OFFCURVE",
"445 5 OFFCURVE",
"450 -24 CURVE SMOOTH",
"455 -56 OFFCURVE",
"487 -83 OFFCURVE",
"520 -80 CURVE SMOOTH"
);
},
{
closed = 1;
nodes = (
"520 93 OFFCURVE",
"544 154 OFFCURVE",
"525 194 CURVE SMOOTH",
"492 267 OFFCURVE",
"480 489 OFFCURVE",
"499 753 CURVE SMOOTH",
"503 795 OFFCURVE",
"477 816 OFFCURVE",
"445 819 CURVE SMOOTH",
"414 823 OFFCURVE",
"380 807 OFFCURVE",
"373 757 CURVE SMOOTH",
"337 509 OFFCURVE",
"353 263 OFFCURVE",
"406 129 CURVE SMOOTH",
"418 100 OFFCURVE",
"454 93 OFFCURVE",
"477 93 CURVE SMOOTH"
);
},
{
closed = 1;
nodes = (
"460 590 OFFCURVE",
"546 610 OFFCURVE",
"596 643 CURVE SMOOTH",
"623 661 OFFCURVE",
"639 698 OFFCURVE",
"620 726 CURVE SMOOTH",
"606 747 OFFCURVE",
"570 766 OFFCURVE",
"537 749 CURVE SMOOTH",
"462 710 OFFCURVE",
"356 709 OFFCURVE",
"308 726 CURVE SMOOTH",
"287 733 OFFCURVE",
"255 730 OFFCURVE",
"235 704 CURVE SMOOTH",
"219 683 OFFCURVE",
"218 640 OFFCURVE",
"245 620 CURVE SMOOTH",
"281 592 OFFCURVE",
"334 590 OFFCURVE",
"391 590 CURVE SMOOTH"
);
}
);
width = 1000;
}
);
unicode = 3042;
},
{
glyphname = "asmall-hira";
layers = (
{
anchors = (
{
name = LSB;
position = "{97, 370}";
},
{
name = RSB;
position = "{877, 246}";
}
);
layerId = "F0262224-B9C7-46EB-9294-168F9DBDA589";
paths = (
{
closed = 1;
nodes = (
"657 -12 OFFCURVE",
"769 109 OFFCURVE",
"767 240 CURVE SMOOTH",
"765 341 OFFCURVE",
"681 420 OFFCURVE",
"571 420 CURVE SMOOTH",
"380 420 OFFCURVE",
"273 284 OFFCURVE",
"273 189 CURVE SMOOTH",
"273 123 OFFCURVE",
"296 92 OFFCURVE",
"342 92 CURVE SMOOTH",
"398 92 OFFCURVE",
"506 208 OFFCURVE",
"540 308 CURVE SMOOTH",
"544 320 OFFCURVE",
"538 331 OFFCURVE",
"528 335 CURVE SMOOTH",
"517 339 OFFCURVE",
"505 333 OFFCURVE",
"501 323 CURVE",
"463 217 OFFCURVE",
"365 132 OFFCURVE",
"342 132 CURVE SMOOTH",
"331 132 OFFCURVE",
"313 132 OFFCURVE",
"313 189 CURVE SMOOTH",
"313 307 OFFCURVE",
"463 379 OFFCURVE",
"571 379 CURVE SMOOTH",
"656 379 OFFCURVE",
"726 318 OFFCURVE",
"727 240 CURVE SMOOTH",
"728 131 OFFCURVE",
"631 26 OFFCURVE",
"501 -4 CURVE SMOOTH",
"489 -7 OFFCURVE",
"483 -18 OFFCURVE",
"486 -28 CURVE SMOOTH",
"489 -39 OFFCURVE",
"497 -46 OFFCURVE",
"505 -44 CURVE SMOOTH"
);
},
{
closed = 1;
nodes = (
"481 147 OFFCURVE",
"486 148 OFFCURVE",
"489 149 CURVE SMOOTH",
"499 152 OFFCURVE",
"503 166 OFFCURVE",
"498 177 CURVE SMOOTH",
"471 236 OFFCURVE",
"467 373 OFFCURVE",
"484 578 CURVE",
"485 590 OFFCURVE",
"477 600 OFFCURVE",
"465 600 CURVE",
"453 601 OFFCURVE",
"444 593 OFFCURVE",
"443 582 CURVE SMOOTH",
"427 382 OFFCURVE",
"431 237 OFFCURVE",
"460 160 CURVE SMOOTH",
"463 153 OFFCURVE",
"471 147 OFFCURVE",
"478 147 CURVE SMOOTH"
);
},
{
closed = 1;
nodes = (
"467 456 OFFCURVE",
"515 472 OFFCURVE",
"550 497 CURVE SMOOTH",
"560 504 OFFCURVE",
"561 517 OFFCURVE",
"555 524 CURVE",
"549 533 OFFCURVE",
"537 536 OFFCURVE",
"526 529 CURVE",
"476 492 OFFCURVE",
"390 484 OFFCURVE",
"355 516 CURVE",
"348 525 OFFCURVE",
"334 524 OFFCURVE",
"327 515 CURVE",
"319 507 OFFCURVE",
"320 494 OFFCURVE",
"329 487 CURVE",
"351 467 OFFCURVE",
"384 456 OFFCURVE",
"421 456 CURVE SMOOTH"
);
}
);
width = 1000;
},
{
anchors = (
{
name = LSB;
position = "{107, 370}";
},
{
name = RSB;
position = "{907, 255}";
}
);
layerId = "2E7D65B2-411D-4607-BF7C-7C0096008F1D";
paths = (
{
closed = 1;
nodes = (
"707 -32 OFFCURVE",
"801 90 OFFCURVE",
"801 240 CURVE SMOOTH",
"801 368 OFFCURVE",
"699 451 OFFCURVE",
"571 451 CURVE SMOOTH",
"395 451 OFFCURVE",
"239 349 OFFCURVE",
"239 189 CURVE SMOOTH",
"239 107 OFFCURVE",
"282 63 OFFCURVE",
"342 63 CURVE SMOOTH",
"428 63 OFFCURVE",
"552 118 OFFCURVE",
"600 226 CURVE SMOOTH",
"616 262 OFFCURVE",
"605 297 OFFCURVE",
"577 314 CURVE SMOOTH",
"557 326 OFFCURVE",
"526 316 OFFCURVE",
"506 282 CURVE SMOOTH",
"468 219 OFFCURVE",
"407 188 OFFCURVE",
"373 188 CURVE SMOOTH",
"354 188 OFFCURVE",
"346 192 OFFCURVE",
"346 215 CURVE SMOOTH",
"346 290 OFFCURVE",
"455 349 OFFCURVE",
"553 349 CURVE SMOOTH",
"618 349 OFFCURVE",
"680 310 OFFCURVE",
"680 240 CURVE SMOOTH",
"680 133 OFFCURVE",
"622 69 OFFCURVE",
"496 39 CURVE SMOOTH",
"464 32 OFFCURVE",
"440 0 OFFCURVE",
"448 -29 CURVE SMOOTH",
"454 -51 OFFCURVE",
"478 -79 OFFCURVE",
"507 -73 CURVE SMOOTH"
);
},
{
closed = 1;
nodes = (
"491 70 OFFCURVE",
"500 71 OFFCURVE",
"503 72 CURVE SMOOTH",
"531 82 OFFCURVE",
"544 109 OFFCURVE",
"536 139 CURVE SMOOTH",
"498 269 OFFCURVE",
"501 368 OFFCURVE",
"517 561 CURVE SMOOTH",
"520 598 OFFCURVE",
"501 630 OFFCURVE",
"467 631 CURVE SMOOTH",
"434 634 OFFCURVE",
"402 605 OFFCURVE",
"399 569 CURVE SMOOTH",
"383 370 OFFCURVE",
"391 240 OFFCURVE",
"425 101 CURVE SMOOTH",
"429 84 OFFCURVE",
"462 70 OFFCURVE",
"484 70 CURVE SMOOTH"
);
},
{
closed = 1;
nodes = (
"465 446 OFFCURVE",
"519 463 OFFCURVE",
"582 487 CURVE SMOOTH",
"608 497 OFFCURVE",
"624 531 OFFCURVE",
"612 558 CURVE SMOOTH",
"604 576 OFFCURVE",
"566 591 OFFCURVE",
"547 582 CURVE SMOOTH",
"476 548 OFFCURVE",
"396 549 OFFCURVE",
"351 567 CURVE SMOOTH",
"328 576 OFFCURVE",
"304 563 OFFCURVE",
"293 539 CURVE SMOOTH",
"282 515 OFFCURVE",
"290 482 OFFCURVE",
"317 465 CURVE SMOOTH",
"346 447 OFFCURVE",
"378 446 OFFCURVE",
"421 446 CURVE SMOOTH"
);
}
);
width = 1000;
}
);
unicode = 3041;
},
{
glyphname = "i-hira";
layers = (
{
anchors = (
{
name = BSB;
position = "{388, -98}";
},
{
name = LSB;
position = "{17, 490}";
},
{
name = RSB;
position = "{972, 336}";
},
{
name = TSB;
position = "{505, 794}";
}
);
layerId = "F0262224-B9C7-46EB-9294-168F9DBDA589";
paths = (
{
closed = 1;
nodes = (
"364 76 OFFCURVE",
"370 77 OFFCURVE",
"374 82 CURVE SMOOTH",
"379 89 OFFCURVE",
"379 100 OFFCURVE",
"375 107 CURVE",
"350 156 OFFCURVE",
"380 256 OFFCURVE",
"408 327 CURVE",
"413 337 OFFCURVE",
"408 350 OFFCURVE",
"397 355 CURVE",
"386 359 OFFCURVE",
"374 354 OFFCURVE",
"369 344 CURVE",
"354 310 OFFCURVE",
"313 195 OFFCURVE",
"328 113 CURVE",
"343 119 LINE",
"260 194 OFFCURVE",
"217 298 OFFCURVE",
"193 408 CURVE SMOOTH",
"188 431 OFFCURVE",
"170 535 OFFCURVE",
"164 560 CURVE",
"162 572 OFFCURVE",
"150 579 OFFCURVE",
"139 576 CURVE SMOOTH",
"127 573 OFFCURVE",
"120 562 OFFCURVE",
"123 550 CURVE SMOOTH",
"132 515 OFFCURVE",
"145 436 OFFCURVE",
"152 395 CURVE SMOOTH",
"171 285 OFFCURVE",
"217 176 OFFCURVE",
"298 106 CURVE SMOOTH",
"319 88 OFFCURVE",
"338 76 OFFCURVE",
"358 76 CURVE SMOOTH"
);
},
{
closed = 1;
nodes = (
"902 302 OFFCURVE",
"911 313 OFFCURVE",
"910 324 CURVE SMOOTH",
"897 472 OFFCURVE",
"783 560 OFFCURVE",
"688 595 CURVE SMOOTH",
"677 599 OFFCURVE",
"665 593 OFFCURVE",
"661 582 CURVE SMOOTH",
"657 571 OFFCURVE",
"663 559 OFFCURVE",
"674 555 CURVE SMOOTH",
"758 525 OFFCURVE",
"855 448 OFFCURVE",
"867 321 CURVE SMOOTH",
"868 310 OFFCURVE",
"878 301 OFFCURVE",
"889 301 CURVE SMOOTH"
);
}
);
width = 1000;
},
{
anchors = (
{
name = BSB;
position = "{508, -98}";
},
{
name = LSB;
position = "{17, 490}";
},
{
name = RSB;
position = "{978, 336}";
},
{
name = TSB;
position = "{505, 794}";
}
);
layerId = "2E7D65B2-411D-4607-BF7C-7C0096008F1D";
paths = (
{
closed = 1;
nodes = (
"371 31 OFFCURVE",
"390 45 OFFCURVE",
"397 55 CURVE SMOOTH",
"407 68 OFFCURVE",
"409 90 OFFCURVE",
"405 110 CURVE SMOOTH",
"396 155 OFFCURVE",
"399 209 OFFCURVE",
"427 301 CURVE SMOOTH",
"435 327 OFFCURVE",
"429 353 OFFCURVE",
"410 362 CURVE SMOOTH",
"391 371 OFFCURVE",
"368 365 OFFCURVE",
"354 346 CURVE SMOOTH",
"330 314 OFFCURVE",
"275 178 OFFCURVE",
"296 88 CURVE",
"381 126 LINE",
"297 198 OFFCURVE",
"262 305 OFFCURVE",
"236 434 CURVE SMOOTH",
"228 474 OFFCURVE",
"217 538 OFFCURVE",
"214 552 CURVE SMOOTH",
"207 585 OFFCURVE",
"168 613 OFFCURVE",
"130 605 CURVE SMOOTH",
"98 598 OFFCURVE",
"73 561 OFFCURVE",
"80 521 CURVE SMOOTH",
"86 488 OFFCURVE",
"101 422 OFFCURVE",
"108 380 CURVE SMOOTH",
"130 249 OFFCURVE",
"172 135 OFFCURVE",
"253 68 CURVE SMOOTH",
"283 43 OFFCURVE",
"322 31 OFFCURVE",
"348 31 CURVE SMOOTH"
);
},
{
closed = 1;
nodes = (
"914 253 OFFCURVE",
"947 284 OFFCURVE",
"944 320 CURVE SMOOTH",
"933 453 OFFCURVE",
"851 565 OFFCURVE",
"710 613 CURVE SMOOTH",
"675 625 OFFCURVE",
"635 609 OFFCURVE",
"622 572 CURVE SMOOTH",
"613 545 OFFCURVE",
"626 505 OFFCURVE",
"656 494 CURVE SMOOTH",
"750 459 OFFCURVE",
"794 402 OFFCURVE",
"804 308 CURVE SMOOTH",
"808 272 OFFCURVE",
"847 253 OFFCURVE",
"882 253 CURVE SMOOTH"
);
}
);
width = 1000;
}
);
unicode = 3044;
},
{
glyphname = "ismall-hira";
layers = (
{
anchors = (
{
name = LSB;
position = "{77, 370}";
},
{
name = RSB;
position = "{937, 255}";
}
);
layerId = "F0262224-B9C7-46EB-9294-168F9DBDA589";
paths = (
{
closed = 1;
nodes = (
"392 15 OFFCURVE",
"397 18 OFFCURVE",
"400 22 CURVE SMOOTH",
"404 27 OFFCURVE",
"406 37 OFFCURVE",
"401 45 CURVE",
"386 73 OFFCURVE",
"395 131 OFFCURVE",
"427 210 CURVE",
"432 219 OFFCURVE",
"428 232 OFFCURVE",
"417 238 CURVE",
"406 242 OFFCURVE",
"395 237 OFFCURVE",
"390 227 CURVE",
"378 200 OFFCURVE",
"344 107 OFFCURVE",
"358 41 CURVE",
"380 50 LINE",
"308 114 OFFCURVE",
"266 208 OFFCURVE",
"254 318 CURVE SMOOTH",
"253 327 OFFCURVE",
"242 383 OFFCURVE",
"239 392 CURVE",
"237 403 OFFCURVE",
"227 411 OFFCURVE",
"215 408 CURVE",
"202 404 OFFCURVE",
"197 394 OFFCURVE",
"200 382 CURVE SMOOTH",
"207 356 OFFCURVE",
"217 295 OFFCURVE",
"222 263 CURVE SMOOTH",
"237 169 OFFCURVE",
"278 91 OFFCURVE",
"336 39 CURVE SMOOTH",
"356 21 OFFCURVE",
"369 15 OFFCURVE",
"385 15 CURVE SMOOTH"
);
},
{
closed = 1;
nodes = (
"805 189 OFFCURVE",
"814 199 OFFCURVE",
"813 211 CURVE SMOOTH",
"803 326 OFFCURVE",
"713 395 OFFCURVE",
"640 422 CURVE SMOOTH",
"629 426 OFFCURVE",
"618 420 OFFCURVE",
"614 410 CURVE SMOOTH",
"610 400 OFFCURVE",
"615 388 OFFCURVE",
"626 383 CURVE",
"690 361 OFFCURVE",
"763 303 OFFCURVE",
"772 207 CURVE SMOOTH",
"773 196 OFFCURVE",
"782 188 OFFCURVE",
"793 188 CURVE SMOOTH"
);
}
);
width = 1000;
},
{
anchors = (
{
name = LSB;
position = "{57, 370}";
},
{
name = RSB;
position = "{957, 255}";
}
);
layerId = "2E7D65B2-411D-4607-BF7C-7C0096008F1D";
paths = (
{
closed = 1;
nodes = (
"401 -14 OFFCURVE",
"419 -6 OFFCURVE",
"427 4 CURVE SMOOTH",
"436 15 OFFCURVE",
"431 38 OFFCURVE",
"431 59 CURVE SMOOTH",
"431 83 OFFCURVE",
"433 133 OFFCURVE",
"441 172 CURVE SMOOTH",
"448 208 OFFCURVE",
"451 228 OFFCURVE",
"431 236 CURVE SMOOTH",
"406 246 OFFCURVE",
"392 236 OFFCURVE",
"380 211 CURVE SMOOTH",
"366 183 OFFCURVE",
"347 112 OFFCURVE",
"347 67 CURVE",
"385 112 LINE",
"347 137 OFFCURVE",
"317 230 OFFCURVE",
"298 323 CURVE SMOOTH",
"296 333 OFFCURVE",
"286 370 OFFCURVE",
"282 394 CURVE SMOOTH",
"276 431 OFFCURVE",
"244 444 OFFCURVE",
"211 436 CURVE SMOOTH",
"180 428 OFFCURVE",
"162 404 OFFCURVE",
"167 370 CURVE SMOOTH",
"170 351 OFFCURVE",
"181 310 OFFCURVE",
"188 258 CURVE SMOOTH",
"201 158 OFFCURVE",
"241 73 OFFCURVE",
"308 17 CURVE SMOOTH",
"334 -5 OFFCURVE",
"361 -14 OFFCURVE",
"385 -14 CURVE SMOOTH"
);
},
{
closed = 1;
nodes = (
"817 159 OFFCURVE",
"849 189 OFFCURVE",
"847 219 CURVE SMOOTH",
"839 324 OFFCURVE",
"770 408 OFFCURVE",
"659 445 CURVE SMOOTH",
"627 456 OFFCURVE",
"593 445 OFFCURVE",
"583 421 CURVE SMOOTH",
"572 394 OFFCURVE",
"580 354 OFFCURVE",
"609 341 CURVE SMOOTH",
"677 311 OFFCURVE",
"716 274 OFFCURVE",
"724 205 CURVE SMOOTH",
"727 179 OFFCURVE",
"755 159 OFFCURVE",
"784 159 CURVE SMOOTH"
);
}
);
width = 1000;
}
);
unicode = 3043;
},
{
glyphname = "u-hira";
layers = (
{
anchors = (
{
name = LSB;
position = "{157, 440}";
},
{
name = RSB;
position = "{787, 306}";
}
);
layerId = "F0262224-B9C7-46EB-9294-168F9DBDA589";
paths = (
{
closed = 1;
nodes = (
"445 -64 OFFCURVE",
"449 -62 OFFCURVE",
"452 -60 CURVE SMOOTH",
"625 59 OFFCURVE",
"637 245 OFFCURVE",
"637 300 CURVE SMOOTH",
"637 418 OFFCURVE",
"610 523 OFFCURVE",
"510 523 CURVE SMOOTH",
"473 523 OFFCURVE",
"425 500 OFFCURVE",
"387 474 CURVE SMOOTH",
"372 463 OFFCURVE",
"349 453 OFFCURVE",
"331 453 CURVE SMOOTH",
"325 453 OFFCURVE",
"316 456 OFFCURVE",
"310 465 CURVE",
"303 474 OFFCURVE",
"290 476 OFFCURVE",
"280 469 CURVE SMOOTH",
"271 463 OFFCURVE",
"269 449 OFFCURVE",
"276 440 CURVE",
"287 424 OFFCURVE",
"310 411 OFFCURVE",
"331 411 CURVE SMOOTH",
"355 411 OFFCURVE",
"386 428 OFFCURVE",
"411 444 CURVE SMOOTH",
"442 464 OFFCURVE",
"479 482 OFFCURVE",
"508 481 CURVE SMOOTH",
"581 479 OFFCURVE",
"591 396 OFFCURVE",
"594 300 CURVE SMOOTH",
"596 250 OFFCURVE",
"582 80 OFFCURVE",
"428 -25 CURVE",
"419 -32 OFFCURVE",
"416 -45 OFFCURVE",
"423 -55 CURVE SMOOTH",
"427 -61 OFFCURVE",
"434 -64 OFFCURVE",
"440 -64 CURVE SMOOTH"
);
},
{
closed = 1;
nodes = (
"628 666 CURVE SMOOTH",
"638 666 OFFCURVE",
"647 673 OFFCURVE",
"649 684 CURVE SMOOTH",
"651 695 OFFCURVE",
"643 706 OFFCURVE",
"631 708 CURVE SMOOTH",
"572 717 OFFCURVE",
"513 752 OFFCURVE",
"456 812 CURVE SMOOTH",
"448 820 OFFCURVE",
"434 821 OFFCURVE",
"426 812 CURVE",
"417 804 OFFCURVE",
"417 791 OFFCURVE",
"425 782 CURVE",
"488 717 OFFCURVE",
"554 677 OFFCURVE"
);
}
);
width = 1000;
},
{
anchors = (
{
name = LSB;
position = "{117, 440}";
},
{
name = RSB;
position = "{838, 306}";
}
);
layerId = "2E7D65B2-411D-4607-BF7C-7C0096008F1D";
paths = (
{
closed = 1;
nodes = (
"456 -76 OFFCURVE",
"474 -67 OFFCURVE",
"481 -62 CURVE SMOOTH",
"637 39 OFFCURVE",
"701 196 OFFCURVE",
"701 308 CURVE SMOOTH",
"701 484 OFFCURVE",
"616 568 OFFCURVE",
"510 568 CURVE SMOOTH",
"468 568 OFFCURVE",
"426 555 OFFCURVE",
"380 524 CURVE SMOOTH",
"366 514 OFFCURVE",
"352 512 OFFCURVE",
"339 512 CURVE SMOOTH",
"331 512 OFFCURVE",
"317 514 OFFCURVE",
"303 519 CURVE SMOOTH",
"293 523 OFFCURVE",
"266 530 OFFCURVE",
"242 510 CURVE SMOOTH",
"216 489 OFFCURVE",
"222 425 OFFCURVE",
"243 403 CURVE SMOOTH",
"263 382 OFFCURVE",
"299 370 OFFCURVE",
"331 370 CURVE SMOOTH",
"365 370 OFFCURVE",
"405 384 OFFCURVE",
"429 400 CURVE SMOOTH",
"464 423 OFFCURVE",
"491 432 OFFCURVE",
"507 431 CURVE SMOOTH",
"541 429 OFFCURVE",
"565 404 OFFCURVE",
"565 299 CURVE SMOOTH",
"565 250 OFFCURVE",
"544 156 OFFCURVE",
"405 57 CURVE SMOOTH",
"377 37 OFFCURVE",
"358 0 OFFCURVE",
"378 -45 CURVE SMOOTH",
"388 -68 OFFCURVE",
"423 -76 OFFCURVE",
"440 -76 CURVE SMOOTH"
);
},
{
closed = 1;
nodes = (
"617 617 CURVE SMOOTH",
"654 611 OFFCURVE",
"683 633 OFFCURVE",
"688 665 CURVE SMOOTH",
"694 702 OFFCURVE",
"667 732 OFFCURVE",
"637 737 CURVE SMOOTH",
"573 746 OFFCURVE",
"531 768 OFFCURVE",
"482 817 CURVE SMOOTH",
"462 836 OFFCURVE",
"425 834 OFFCURVE",
"405 811 CURVE SMOOTH",
"386 790 OFFCURVE",
"388 752 OFFCURVE",
"410 723 CURVE SMOOTH",
"451 668 OFFCURVE",
"524 632 OFFCURVE"
);
}
);
width = 1000;
}
);
unicode = 3046;
},
{
glyphname = "usmall-hira";
layers = (
{
anchors = (
{
name = LSB;
position = "{197, 370}";
},
{
name = RSB;
position = "{742, 255}";
}
);
layerId = "F0262224-B9C7-46EB-9294-168F9DBDA589";
paths = (
{
closed = 1;
nodes = (
"450 -79 OFFCURVE",
"454 -77 OFFCURVE",
"457 -75 CURVE SMOOTH",
"593 16 OFFCURVE",
"601 164 OFFCURVE",
"601 206 CURVE SMOOTH",
"601 323 OFFCURVE",
"567 382 OFFCURVE",
"499 382 CURVE SMOOTH",
"472 382 OFFCURVE",
"434 369 OFFCURVE",
"401 344 CURVE SMOOTH",
"389 335 OFFCURVE",
"373 329 OFFCURVE",
"361 329 CURVE SMOOTH",
"356 329 OFFCURVE",
"352 331 OFFCURVE",
"349 336 CURVE SMOOTH",
"342 345 OFFCURVE",
"329 347 OFFCURVE",
"319 340 CURVE SMOOTH",
"310 333 OFFCURVE",
"307 319 OFFCURVE",
"315 311 CURVE SMOOTH",
"324 296 OFFCURVE",
"344 286 OFFCURVE",
"361 286 CURVE SMOOTH",
"377 286 OFFCURVE",
"400 296 OFFCURVE",
"425 313 CURVE SMOOTH",
"448 328 OFFCURVE",
"476 341 OFFCURVE",
"497 340 CURVE SMOOTH",
"549 338 OFFCURVE",
"556 280 OFFCURVE",
"558 206 CURVE SMOOTH",
"559 167 OFFCURVE",
"549 40 OFFCURVE",
"433 -40 CURVE SMOOTH",
"423 -48 OFFCURVE",
"421 -61 OFFCURVE",
"428 -70 CURVE SMOOTH",
"432 -76 OFFCURVE",
"438 -79 OFFCURVE",
"445 -79 CURVE SMOOTH"
);
},
{
closed = 1;
nodes = (
"594 481 OFFCURVE",
"607 484 OFFCURVE",
"611 500 CURVE SMOOTH",
"612 512 OFFCURVE",
"605 522 OFFCURVE",
"593 525 CURVE SMOOTH",
"548 532 OFFCURVE",
"505 559 OFFCURVE",
"461 603 CURVE SMOOTH",
"452 612 OFFCURVE",
"438 612 OFFCURVE",
"430 604 CURVE SMOOTH",
"422 596 OFFCURVE",
"421 583 OFFCURVE",
"429 574 CURVE SMOOTH",
"479 522 OFFCURVE",
"540 484 OFFCURVE",
"582 482 CURVE SMOOTH"
);
}
);
width = 1000;
},
{
anchors = (
{
name = LSB;
position = "{167, 370}";
},
{
name = RSB;
position = "{783, 255}";
}
);
layerId = "2E7D65B2-411D-4607-BF7C-7C0096008F1D";
paths = (
{
closed = 1;
nodes = (
"456 -108 OFFCURVE",
"469 -104 OFFCURVE",
"476 -99 CURVE SMOOTH",
"574 -34 OFFCURVE",
"645 88 OFFCURVE",
"645 218 CURVE SMOOTH",
"645 349 OFFCURVE",
"592 411 OFFCURVE",
"499 411 CURVE SMOOTH",
"464 411 OFFCURVE",
"424 398 OFFCURVE",
"390 377 CURVE SMOOTH",
"380 371 OFFCURVE",
"370 368 OFFCURVE",
"365 368 CURVE SMOOTH",
"358 368 OFFCURVE",
"351 369 OFFCURVE",
"342 373 CURVE SMOOTH",
"331 378 OFFCURVE",
"311 378 OFFCURVE",
"296 368 CURVE SMOOTH",
"275 354 OFFCURVE",
"272 317 OFFCURVE",
"288 293 CURVE SMOOTH",
"301 273 OFFCURVE",
"333 250 OFFCURVE",
"361 250 CURVE SMOOTH",
"384 250 OFFCURVE",
"413 264 OFFCURVE",
"443 279 CURVE SMOOTH",
"463 289 OFFCURVE",
"486 297 OFFCURVE",
"496 297 CURVE SMOOTH",
"521 297 OFFCURVE",
"534 275 OFFCURVE",
"534 214 CURVE SMOOTH",
"534 177 OFFCURVE",
"509 69 OFFCURVE",
"409 -7 CURVE SMOOTH",
"384 -26 OFFCURVE",
"383 -63 OFFCURVE",
"401 -87 CURVE SMOOTH",
"409 -100 OFFCURVE",
"427 -108 OFFCURVE",
"445 -108 CURVE SMOOTH"
);
},
{
closed = 1;
nodes = (
"619 453 OFFCURVE",
"638 467 OFFCURVE",
"645 495 CURVE SMOOTH",
"648 523 OFFCURVE",
"632 547 OFFCURVE",
"599 554 CURVE SMOOTH",
"565 561 OFFCURVE",
"513 595 OFFCURVE",
"485 624 CURVE SMOOTH",
"465 644 OFFCURVE",
"426 644 OFFCURVE",
"406 625 CURVE SMOOTH",
"385 603 OFFCURVE",
"384 577 OFFCURVE",
"404 555 CURVE SMOOTH",
"456 499 OFFCURVE",
"528 453 OFFCURVE",
"580 453 CURVE SMOOTH"
);
}
);
width = 1000;
}
);
unicode = 3045;
},
{
glyphname = "e-hira";
layers = (
{
anchors = (
{
name = LSB;
position = "{127, 370}";
},
{
name = RSB;
position = "{927, 146}";
}
);
layerId = "F0262224-B9C7-46EB-9294-168F9DBDA589";
paths = (
{
closed = 1;
nodes = (
"710 -24 OFFCURVE",
"780 -14 OFFCURVE",
"822 2 CURVE SMOOTH",
"833 6 OFFCURVE",
"838 18 OFFCURVE",
"834 29 CURVE SMOOTH",
"830 40 OFFCURVE",
"818 45 OFFCURVE",
"807 41 CURVE SMOOTH",
"753 21 OFFCURVE",
"639 12 OFFCURVE",
"589 25 CURVE SMOOTH",
"557 33 OFFCURVE",
"533 70 OFFCURVE",
"511 106 CURVE SMOOTH",
"485 146 OFFCURVE",
"460 187 OFFCURVE",
"418 187 CURVE SMOOTH",
"406 187 OFFCURVE",
"392 185 OFFCURVE",
"375 177 CURVE",
"382 170 LINE",
"435 249 OFFCURVE",
"509 367 OFFCURVE",
"539 409 CURVE SMOOTH",
"551 426 OFFCURVE",
"565 446 OFFCURVE",
"565 461 CURVE SMOOTH",
"565 475 OFFCURVE",
"555 487 OFFCURVE",
"539 487 CURVE SMOOTH",
"521 487 OFFCURVE",
"494 483 OFFCURVE",
"397 446 CURVE SMOOTH",
"369 435 OFFCURVE",
"326 431 OFFCURVE",
"310 440 CURVE SMOOTH",
"300 446 OFFCURVE",
"287 442 OFFCURVE",
"281 432 CURVE SMOOTH",
"275 422 OFFCURVE",
"278 409 OFFCURVE",
"288 403 CURVE SMOOTH",
"324 382 OFFCURVE",
"390 398 OFFCURVE",
"412 406 CURVE SMOOTH",
"476 431 OFFCURVE",
"506 441 OFFCURVE",
"524 446 CURVE",
"520 450 LINE",
"519 432 OFFCURVE",
"360 217 OFFCURVE",
"286 101 CURVE SMOOTH",
"272 81 OFFCURVE",
"257 57 OFFCURVE",
"242 29 CURVE SMOOTH",
"237 19 OFFCURVE",
"241 6 OFFCURVE",
"251 0 CURVE",
"261 -5 OFFCURVE",
"273 -2 OFFCURVE",
"279 8 CURVE SMOOTH",
"322 78 LINE SMOOTH",
"365 134 OFFCURVE",
"379 144 OFFCURVE",
"412 144 CURVE SMOOTH",
"435 144 OFFCURVE",
"456 113 OFFCURVE",
"475 83 CURVE SMOOTH",
"501 42 OFFCURVE",
"530 -4 OFFCURVE",
"579 -17 CURVE SMOOTH",
"598 -21 OFFCURVE",
"624 -24 OFFCURVE",
"652 -24 CURVE SMOOTH"
);
},
{
closed = 1;
nodes = (
"471 594 OFFCURVE",
"476 596 OFFCURVE",
"480 599 CURVE SMOOTH",
"500 611 OFFCURVE",
"546 624 OFFCURVE",
"579 621 CURVE SMOOTH",
"590 619 OFFCURVE",
"604 629 OFFCURVE",
"602 646 CURVE SMOOTH",
"593 697 OFFCURVE",
"535 741 OFFCURVE",
"448 763 CURVE SMOOTH",
"436 766 OFFCURVE",
"425 759 OFFCURVE",
"422 747 CURVE SMOOTH",
"419 736 OFFCURVE",
"426 725 OFFCURVE",
"438 722 CURVE SMOOTH",
"494 706 OFFCURVE",
"537 682 OFFCURVE",
"553 655 CURVE",
"562 664 LINE",
"524 663 OFFCURVE",
"475 650 OFFCURVE",
"452 632 CURVE SMOOTH",
"443 624 OFFCURVE",
"442 611 OFFCURVE",
"450 602 CURVE SMOOTH",
"454 597 OFFCURVE",
"460 594 OFFCURVE",
"466 594 CURVE SMOOTH"
);
}
);
width = 1000;
},
{
anchors = (
{
name = LSB;
position = "{117, 440}";
},
{
name = RSB;
position = "{977, 306}";
}
);
layerId = "2E7D65B2-411D-4607-BF7C-7C0096008F1D";
paths = (
{
closed = 1;
nodes = (
"717 -53 OFFCURVE",
"792 -41 OFFCURVE",
"834 -25 CURVE SMOOTH",
"863 -15 OFFCURVE",
"879 25 OFFCURVE",
"870 60 CURVE SMOOTH",
"861 96 OFFCURVE",
"824 114 OFFCURVE",
"796 109 CURVE SMOOTH",
"727 97 OFFCURVE",
"641 81 OFFCURVE",
"598 93 CURVE SMOOTH",
"584 97 OFFCURVE",
"570 89 OFFCURVE",
"540 137 CURVE SMOOTH",
"516 175 OFFCURVE",
"489 261 OFFCURVE",
"426 261 CURVE SMOOTH",
"403 261 OFFCURVE",
"371 235 OFFCURVE",
"354 225 CURVE",
"403 144 LINE",
"459 224 OFFCURVE",
"585 376 OFFCURVE",
"607 405 CURVE SMOOTH",
"622 424 OFFCURVE",
"632 450 OFFCURVE",
"632 469 CURVE SMOOTH",
"632 507 OFFCURVE",
"587 539 OFFCURVE",
"546 539 CURVE SMOOTH",
"500 539 OFFCURVE",
"469 528 OFFCURVE",
"382 500 CURVE SMOOTH",
"362 494 OFFCURVE",
"338 489 OFFCURVE",
"311 493 CURVE SMOOTH",
"284 497 OFFCURVE",
"257 483 OFFCURVE",
"244 460 CURVE SMOOTH",
"223 424 OFFCURVE",
"244 386 OFFCURVE",
"271 370 CURVE SMOOTH",
"306 349 OFFCURVE",
"379 372 OFFCURVE",
"429 389 CURVE SMOOTH",
"460 400 OFFCURVE",
"515 432 OFFCURVE",
"531 447 CURVE",
"506 459 LINE",
"459 415 OFFCURVE",
"246 140 OFFCURVE",
"237 126 CURVE SMOOTH",
"222 102 OFFCURVE",
"214 88 OFFCURVE",
"201 61 CURVE SMOOTH",
"186 29 OFFCURVE",
"194 -10 OFFCURVE",
"227 -24 CURVE SMOOTH",
"254 -36 OFFCURVE",
"295 -29 OFFCURVE",
"309 -7 CURVE SMOOTH",
"351 61 LINE SMOOTH",
"383 114 OFFCURVE",
"392 128 OFFCURVE",
"405 128 CURVE SMOOTH",
"420 128 OFFCURVE",
"435 104 OFFCURVE",
"451 68 CURVE SMOOTH",
"478 8 OFFCURVE",
"519 -32 OFFCURVE",
"571 -45 CURVE SMOOTH",
"595 -50 OFFCURVE",
"624 -53 OFFCURVE",
"652 -53 CURVE SMOOTH"
);
},
{
closed = 1;
nodes = (
"475 567 OFFCURVE",
"498 573 OFFCURVE",
"511 576 CURVE SMOOTH",
"530 580 OFFCURVE",
"558 579 OFFCURVE",
"576 579 CURVE SMOOTH",
"615 579 OFFCURVE",
"647 604 OFFCURVE",
"647 642 CURVE SMOOTH",
"647 723 OFFCURVE",
"551 770 OFFCURVE",
"451 794 CURVE SMOOTH",
"422 801 OFFCURVE",
"379 789 OFFCURVE",
"375 746 CURVE SMOOTH",
"372 714 OFFCURVE",
"395 681 OFFCURVE",
"426 675 CURVE SMOOTH",
"483 664 OFFCURVE",
"516 654 OFFCURVE",
"537 634 CURVE",
"571 649 LINE",
"520 661 OFFCURVE",
"478 649 OFFCURVE",
"450 634 CURVE SMOOTH",
"431 624 OFFCURVE",
"424 605 OFFCURVE",
"428 590 CURVE SMOOTH",
"433 573 OFFCURVE",
"445 567 OFFCURVE",
"464 567 CURVE SMOOTH"
);
}
);
width = 1000;
}
);
unicode = 3048;
},
{
glyphname = "esmall-hira";
layers = (
{
anchors = (
{
name = LSB;
position = "{187, 370}";
},
{
name = RSB;
position = "{887, 255}";
}
);
layerId = "F0262224-B9C7-46EB-9294-168F9DBDA589";
paths = (
{
closed = 1;
nodes = (
"625 -50 OFFCURVE",
"709 -46 OFFCURVE",
"759 -26 CURVE SMOOTH",
"769 -22 OFFCURVE",
"775 -11 OFFCURVE",
"771 1 CURVE SMOOTH",
"767 10 OFFCURVE",
"755 16 OFFCURVE",
"744 12 CURVE SMOOTH",
"702 -3 OFFCURVE",
"616 -10 OFFCURVE",
"579 0 CURVE SMOOTH",
"556 5 OFFCURVE",
"538 32 OFFCURVE",
"521 60 CURVE SMOOTH",
"502 92 OFFCURVE",
"481 124 OFFCURVE",
"447 124 CURVE SMOOTH",
"433 124 OFFCURVE",
"422 121 OFFCURVE",
"408 115 CURVE",
"419 101 LINE",
"525 251 OFFCURVE",
"536 278 OFFCURVE",
"553 302 CURVE SMOOTH",
"563 316 OFFCURVE",
"565 330 OFFCURVE",
"561 338 CURVE SMOOTH",
"557 347 OFFCURVE",
"549 353 OFFCURVE",
"541 355 CURVE SMOOTH",
"526 359 OFFCURVE",
"507 353 OFFCURVE",
"428 323 CURVE SMOOTH",
"407 315 OFFCURVE",
"381 312 OFFCURVE",
"367 318 CURVE SMOOTH",
"356 323 OFFCURVE",
"342 320 OFFCURVE",
"338 312 CURVE SMOOTH",
"333 303 OFFCURVE",
"335 288 OFFCURVE",
"345 283 CURVE SMOOTH",
"391 260 OFFCURVE",
"479 288 OFFCURVE",
"540 326 CURVE",
"524 324 LINE",
"498 288 OFFCURVE",
"474 250 OFFCURVE",
"460 229 CURVE SMOOTH",
"427 178 OFFCURVE",
"339 53 OFFCURVE",
"308 1 CURVE SMOOTH",
"302 -9 OFFCURVE",
"305 -21 OFFCURVE",
"317 -28 CURVE SMOOTH",
"327 -32 OFFCURVE",
"337 -28 OFFCURVE",
"343 -19 CURVE SMOOTH",
"354 -1 OFFCURVE",
"363 17 OFFCURVE",
"376 34 CURVE SMOOTH",
"407 74 OFFCURVE",
"417 91 OFFCURVE",
"447 91 CURVE SMOOTH",
"461 91 OFFCURVE",
"472 73 OFFCURVE",
"492 38 CURVE SMOOTH",
"510 6 OFFCURVE",
"531 -30 OFFCURVE",
"569 -41 CURVE SMOOTH"
);
},
{
closed = 1;
nodes = (
"487 429 OFFCURVE",
"492 431 OFFCURVE",
"496 434 CURVE SMOOTH",
"508 443 OFFCURVE",
"547 452 OFFCURVE",
"570 450 CURVE SMOOTH",
"578 449 OFFCURVE",
"583 453 OFFCURVE",
"587 456 CURVE SMOOTH",
"592 462 OFFCURVE",
"593 469 OFFCURVE",
"592 474 CURVE SMOOTH",
"584 515 OFFCURVE",
"537 552 OFFCURVE",
"471 567 CURVE SMOOTH",
"459 570 OFFCURVE",
"448 565 OFFCURVE",
"446 552 CURVE SMOOTH",
"445 543 OFFCURVE",
"449 531 OFFCURVE",
"461 528 CURVE SMOOTH",
"501 517 OFFCURVE",
"540 495 OFFCURVE",
"548 473 CURVE",
"567 491 LINE",
"534 492 OFFCURVE",
"489 480 OFFCURVE",
"471 466 CURVE SMOOTH",
"461 457 OFFCURVE",
"461 444 OFFCURVE",
"468 437 CURVE SMOOTH",
"473 431 OFFCURVE",
"479 429 OFFCURVE",
"484 429 CURVE SMOOTH"
);
}
);
width = 1000;
},
{
anchors = (
{
name = LSB;
position = "{167, 370}";
},
{
name = RSB;
position = "{911, 255}";
}
);
layerId = "2E7D65B2-411D-4607-BF7C-7C0096008F1D";
paths = (
{
closed = 1;
nodes = (
"675 -76 OFFCURVE",
"735 -67 OFFCURVE",
"771 -54 CURVE SMOOTH",
"799 -42 OFFCURVE",
"812 -1 OFFCURVE",
"801 27 CURVE SMOOTH",
"791 50 OFFCURVE",
"758 68 OFFCURVE",
"732 59 CURVE SMOOTH",
"691 45 OFFCURVE",
"640 37 OFFCURVE",
"602 37 CURVE SMOOTH",
"587 37 OFFCURVE",
"568 53 OFFCURVE",
"555 79 CURVE SMOOTH",
"531 127 OFFCURVE",
"505 162 OFFCURVE",
"461 162 CURVE SMOOTH",
"432 162 OFFCURVE",
"401 139 OFFCURVE",
"388 120 CURVE",
"454 92 LINE",
"515 178 OFFCURVE",
"583 280 OFFCURVE",
"589 294 CURVE SMOOTH",
"598 315 OFFCURVE",
"599 333 OFFCURVE",
"591 349 CURVE SMOOTH",
"584 364 OFFCURVE",
"568 377 OFFCURVE",
"549 382 CURVE SMOOTH",
"524 389 OFFCURVE",
"495 391 OFFCURVE",
"414 359 CURVE SMOOTH",
"404 355 OFFCURVE",
"369 347 OFFCURVE",
"351 353 CURVE SMOOTH",
"332 359 OFFCURVE",
"304 351 OFFCURVE",
"296 325 CURVE SMOOTH",
"290 305 OFFCURVE",
"287 273 OFFCURVE",
"324 260 CURVE SMOOTH",
"399 233 OFFCURVE",
"511 295 OFFCURVE",
"546 325 CURVE",
"531 366 LINE",
"493 316 OFFCURVE",
"434 247 OFFCURVE",
"408 206 CURVE SMOOTH",
"389 177 OFFCURVE",
"302 73 OFFCURVE",
"272 22 CURVE SMOOTH",
"257 -4 OFFCURVE",
"271 -39 OFFCURVE",
"300 -55 CURVE SMOOTH",
"328 -67 OFFCURVE",
"358 -56 OFFCURVE",
"370 -36 CURVE SMOOTH",
"382 -19 OFFCURVE",
"396 4 OFFCURVE",
"404 17 CURVE SMOOTH",
"429 61 OFFCURVE",
"436 70 OFFCURVE",
"442 70 CURVE SMOOTH",
"450 70 OFFCURVE",
"466 41 OFFCURVE",
"475 20 CURVE SMOOTH",
"501 -38 OFFCURVE",
"548 -76 OFFCURVE",
"626 -76 CURVE SMOOTH"
);
},
{
closed = 1;
nodes = (
"489 403 OFFCURVE",
"504 410 OFFCURVE",
"515 412 CURVE SMOOTH",
"533 415 OFFCURVE",
"546 418 OFFCURVE",
"561 418 CURVE SMOOTH",
"577 418 OFFCURVE",
"597 424 OFFCURVE",
"609 433 CURVE SMOOTH",
"622 447 OFFCURVE",
"627 461 OFFCURVE",
"625 478 CURVE SMOOTH",
"616 531 OFFCURVE",
"553 573 OFFCURVE",
"470 594 CURVE SMOOTH",
"442 601 OFFCURVE",
"412 586 OFFCURVE",
"405 561 CURVE SMOOTH",
"397 533 OFFCURVE",
"412 507 OFFCURVE",
"445 500 CURVE SMOOTH",
"492 490 OFFCURVE",
"519 475 OFFCURVE",
"530 450 CURVE",
"598 477 LINE",
"543 488 OFFCURVE",
"472 478 OFFCURVE",
"454 462 CURVE SMOOTH",
"440 448 OFFCURVE",
"436 433 OFFCURVE",
"445 418 CURVE SMOOTH",
"450 411 OFFCURVE",
"468 403 OFFCURVE",
"483 403 CURVE SMOOTH"
);
}
);
width = 1000;
}
);
unicode = 3047;
},
{
glyphname = "o-hira";
layers = (
{
layerId = "F0262224-B9C7-46EB-9294-168F9DBDA589";
paths = (
{
closed = 1;
nodes = (
"665 48 OFFCURVE",
"828 168 OFFCURVE",
"828 295 CURVE SMOOTH",
"828 376 OFFCURVE",
"771 423 OFFCURVE",
"674 421 CURVE SMOOTH",
"595 419 OFFCURVE",
"469 342 OFFCURVE",
"342 258 CURVE SMOOTH",
"254 200 OFFCURVE",
"147 129 OFFCURVE",
"110 126 CURVE SMOOTH",
"98 125 OFFCURVE",
"90 114 OFFCURVE",
"91 102 CURVE SMOOTH",
"92 90 OFFCURVE",
"103 82 OFFCURVE",
"115 83 CURVE SMOOTH",
"162 87 OFFCURVE",
"248 146 OFFCURVE",
"348 213 CURVE SMOOTH",
"458 287 OFFCURVE",
"608 377 OFFCURVE",
"674 378 CURVE SMOOTH",
"744 379 OFFCURVE",
"786 349 OFFCURVE",
"786 295 CURVE SMOOTH",
"786 190 OFFCURVE",
"643 91 OFFCURVE",
"492 91 CURVE SMOOTH",
"480 91 OFFCURVE",
"471 81 OFFCURVE",
"471 70 CURVE SMOOTH",
"471 58 OFFCURVE",
"480 48 OFFCURVE",
"492 48 CURVE SMOOTH"
);
},
{
closed = 1;
nodes = (
"346 0 OFFCURVE",
"362 7 OFFCURVE",
"363 24 CURVE SMOOTH",
"376 244 OFFCURVE",
"380 598 OFFCURVE",
"352 751 CURVE SMOOTH",
"350 762 OFFCURVE",
"337 768 OFFCURVE",
"326 765 CURVE SMOOTH",
"315 762 OFFCURVE",
"311 749 OFFCURVE",
"312 738 CURVE SMOOTH",
"334 573 OFFCURVE",
"336 221 OFFCURVE",
"319 33 CURVE",
"338 37 LINE",
"289 97 OFFCURVE",
"237 137 OFFCURVE",
"204 152 CURVE SMOOTH",
"193 157 OFFCURVE",
"180 152 OFFCURVE",
"176 141 CURVE SMOOTH",
"172 130 OFFCURVE",
"176 118 OFFCURVE",
"187 113 CURVE SMOOTH",
"211 102 OFFCURVE",
"241 73 OFFCURVE",
"265 49 CURVE SMOOTH",
"295 19 OFFCURVE",
"314 0 OFFCURVE",
"334 0 CURVE SMOOTH"
);
},
{
closed = 1;
nodes = (
"290 430 OFFCURVE",
"392 468 OFFCURVE",
"440 490 CURVE SMOOTH",
"451 495 OFFCURVE",
"455 509 OFFCURVE",
"449 519 CURVE SMOOTH",
"443 529 OFFCURVE",
"431 534 OFFCURVE",
"421 529 CURVE SMOOTH",
"358 497 OFFCURVE",
"230 461 OFFCURVE",
"134 478 CURVE SMOOTH",
"123 480 OFFCURVE",
"111 473 OFFCURVE",
"109 461 CURVE SMOOTH",
"107 450 OFFCURVE",
"114 439 OFFCURVE",
"125 436 CURVE SMOOTH",
"147 430 OFFCURVE",
"169 430 OFFCURVE",
"192 430 CURVE SMOOTH"
);
},
{
closed = 1;
nodes = (
"912 394 OFFCURVE",
"921 406 OFFCURVE",
"923 417 CURVE SMOOTH",
"936 503 OFFCURVE",
"854 574 OFFCURVE",
"771 581 CURVE SMOOTH",
"759 582 OFFCURVE",
"749 573 OFFCURVE",
"748 561 CURVE SMOOTH",
"747 550 OFFCURVE",
"756 539 OFFCURVE",
"768 538 CURVE SMOOTH",
"823 533 OFFCURVE",
"889 483 OFFCURVE",
"881 422 CURVE SMOOTH",
"879 407 OFFCURVE",
"891 398 OFFCURVE",
"901 396 CURVE SMOOTH"
);
}
);
width = 1000;
},
{
layerId = "2E7D65B2-411D-4607-BF7C-7C0096008F1D";
paths = (
{
closed = 1;
nodes = (
"740 13 OFFCURVE",
"847 120 OFFCURVE",
"847 279 CURVE SMOOTH",
"847 376 OFFCURVE",
"774 458 OFFCURVE",
"659 456 CURVE SMOOTH",
"569 454 OFFCURVE",
"447 402 OFFCURVE",
"321 324 CURVE SMOOTH",
"253 282 OFFCURVE",
"156 237 OFFCURVE",
"97 207 CURVE SMOOTH",
"68 192 OFFCURVE",
"40 158 OFFCURVE",
"53 113 CURVE SMOOTH",
"63 77 OFFCURVE",
"92 50 OFFCURVE",
"140 54 CURVE SMOOTH",
"201 59 OFFCURVE",
"308 185 OFFCURVE",
"373 225 CURVE SMOOTH",
"482 291 OFFCURVE",
"591 328 OFFCURVE",
"634 328 CURVE SMOOTH",
"675 328 OFFCURVE",
"709 297 OFFCURVE",
"709 271 CURVE SMOOTH",
"709 190 OFFCURVE",
"652 160 OFFCURVE",
"548 160 CURVE SMOOTH",
"504 160 OFFCURVE",
"472 121 OFFCURVE",
"472 93 CURVE SMOOTH",
"472 54 OFFCURVE",
"500 20 OFFCURVE",
"548 19 CURVE SMOOTH"
);
},
{
closed = 1;
nodes = (
"391 -45 OFFCURVE",
"436 -7 OFFCURVE",
"439 40 CURVE SMOOTH",
"454 272 OFFCURVE",
"447 579 OFFCURVE",
"419 749 CURVE SMOOTH",
"413 787 OFFCURVE",
"361 800 OFFCURVE",
"321 793 CURVE SMOOTH",
"295 788 OFFCURVE",
"274 765 OFFCURVE",
"277 725 CURVE SMOOTH",
"290 547 OFFCURVE",
"324 334 OFFCURVE",
"304 13 CURVE",
"367 50 LINE",
"321 98 OFFCURVE",
"259 127 OFFCURVE",
"198 138 CURVE SMOOTH",
"162 144 OFFCURVE",
"135 135 OFFCURVE",
"129 113 CURVE SMOOTH",
"124 93 OFFCURVE",
"131 73 OFFCURVE",
"156 66 CURVE SMOOTH",
"182 59 OFFCURVE",
"212 43 OFFCURVE",
"231 19 CURVE SMOOTH",
"268 -28 OFFCURVE",
"297 -45 OFFCURVE",
"333 -45 CURVE SMOOTH"
);
},
{
closed = 1;
nodes = (
"297 395 OFFCURVE",
"447 447 OFFCURVE",
"494 472 CURVE SMOOTH",
"522 487 OFFCURVE",
"547 522 OFFCURVE",
"530 564 CURVE SMOOTH",
"516 598 OFFCURVE",
"468 606 OFFCURVE",
"443 593 CURVE SMOOTH",
"382 562 OFFCURVE",
"242 524 OFFCURVE",
"145 533 CURVE SMOOTH",
"109 536 OFFCURVE",
"80 512 OFFCURVE",
"75 486 CURVE SMOOTH",
"67 448 OFFCURVE",
"86 409 OFFCURVE",
"117 402 CURVE SMOOTH",
"140 397 OFFCURVE",
"165 395 OFFCURVE",
"191 395 CURVE SMOOTH"
);
},
{
closed = 1;
nodes = (
"928 367 OFFCURVE",
"962 391 OFFCURVE",
"962 431 CURVE SMOOTH",
"962 537 OFFCURVE",
"864 610 OFFCURVE",
"773 610 CURVE SMOOTH",
"743 610 OFFCURVE",
"720 591 OFFCURVE",
"718 563 CURVE SMOOTH",
"716 538 OFFCURVE",
"728 508 OFFCURVE",
"761 498 CURVE SMOOTH",
"809 484 OFFCURVE",
"834 467 OFFCURVE",
"837 434 CURVE SMOOTH",
"840 402 OFFCURVE",
"864 371 OFFCURVE",
"899 369 CURVE SMOOTH"
);
}
);
width = 1000;
}
);
unicode = 304A;
},
{
glyphname = "osmall-hira";
layers = (
{
anchors = (
{
name = LSB;
position = "{87, 370}";
},
{
name = RSB;
position = "{937, 255}";
}
);
layerId = "F0262224-B9C7-46EB-9294-168F9DBDA589";
paths = (
{
closed = 1;
nodes = (
"630 9 OFFCURVE",
"757 104 OFFCURVE",
"757 203 CURVE SMOOTH",
"757 268 OFFCURVE",
"712 306 OFFCURVE",
"635 304 CURVE SMOOTH",
"573 302 OFFCURVE",
"479 245 OFFCURVE",
"381 179 CURVE SMOOTH",
"314 134 OFFCURVE",
"227 80 OFFCURVE",
"200 77 CURVE SMOOTH",
"190 76 OFFCURVE",
"181 66 OFFCURVE",
"182 54 CURVE SMOOTH",
"183 43 OFFCURVE",
"193 35 OFFCURVE",
"205 36 CURVE SMOOTH",
"243 39 OFFCURVE",
"309 86 OFFCURVE",
"386 137 CURVE SMOOTH",
"471 193 OFFCURVE",
"585 262 OFFCURVE",
"635 263 CURVE SMOOTH",
"686 264 OFFCURVE",
"717 243 OFFCURVE",
"717 203 CURVE SMOOTH",
"717 125 OFFCURVE",
"607 50 OFFCURVE",
"495 50 CURVE SMOOTH",
"483 50 OFFCURVE",
"474 42 OFFCURVE",
"474 30 CURVE SMOOTH",
"474 18 OFFCURVE",
"483 9 OFFCURVE",
"495 9 CURVE SMOOTH"
);
},
{
closed = 1;
nodes = (
"385 -28 OFFCURVE",
"399 -21 OFFCURVE",
"399 -5 CURVE",
"412 164 OFFCURVE",
"415 437 OFFCURVE",
"391 555 CURVE SMOOTH",
"389 565 OFFCURVE",
"377 571 OFFCURVE",
"366 569 CURVE SMOOTH",
"357 567 OFFCURVE",
"351 557 OFFCURVE",
"352 543 CURVE SMOOTH",
"362 406 OFFCURVE",
"371 140 OFFCURVE",
"357 -3 CURVE",
"383 3 LINE",
"346 50 OFFCURVE",
"303 86 OFFCURVE",
"275 97 CURVE SMOOTH",
"265 101 OFFCURVE",
"252 97 OFFCURVE",
"248 87 CURVE SMOOTH",
"244 76 OFFCURVE",
"248 65 OFFCURVE",
"258 60 CURVE SMOOTH",
"272 53 OFFCURVE",
"292 38 OFFCURVE",
"317 12 CURVE SMOOTH",
"340 -12 OFFCURVE",
"356 -28 OFFCURVE",
"373 -28 CURVE SMOOTH"
);
},
{
closed = 1;
nodes = (
"340 303 OFFCURVE",
"421 332 OFFCURVE",
"457 350 CURVE SMOOTH",
"467 355 OFFCURVE",
"470 368 OFFCURVE",
"465 378 CURVE",
"460 387 OFFCURVE",
"448 391 OFFCURVE",
"438 386 CURVE SMOOTH",
"390 362 OFFCURVE",
"292 334 OFFCURVE",
"220 348 CURVE SMOOTH",
"210 350 OFFCURVE",
"198 344 OFFCURVE",
"196 332 CURVE SMOOTH",
"194 322 OFFCURVE",
"200 311 OFFCURVE",
"211 308 CURVE SMOOTH",
"230 303 OFFCURVE",
"247 303 OFFCURVE",
"264 303 CURVE SMOOTH"
);
},
{
closed = 1;
nodes = (
"821 278 OFFCURVE",
"829 287 OFFCURVE",
"830 296 CURVE SMOOTH",
"837 359 OFFCURVE",
"781 420 OFFCURVE",
"709 427 CURVE SMOOTH",
"698 428 OFFCURVE",
"688 420 OFFCURVE",
"688 408 CURVE SMOOTH",
"688 397 OFFCURVE",
"696 387 OFFCURVE",
"706 386 CURVE SMOOTH",
"752 381 OFFCURVE",
"796 342 OFFCURVE",
"790 302 CURVE SMOOTH",
"788 289 OFFCURVE",
"797 280 OFFCURVE",
"810 279 CURVE SMOOTH"
);
}
);
width = 1000;
},
{
anchors = (
{
name = LSB;
position = "{47, 370}";
},
{
name = RSB;
position = "{977, 255}";
}
);
layerId = "2E7D65B2-411D-4607-BF7C-7C0096008F1D";
paths = (
{
closed = 1;
nodes = (
"686 -22 OFFCURVE",
"771 62 OFFCURVE",
"771 182 CURVE SMOOTH",
"771 263 OFFCURVE",
"702 331 OFFCURVE",
"613 331 CURVE SMOOTH",
"554 331 OFFCURVE",
"480 301 OFFCURVE",
"352 227 CURVE SMOOTH",
"316 206 OFFCURVE",
"235 156 OFFCURVE",
"194 136 CURVE SMOOTH",
"165 122 OFFCURVE",
"143 85 OFFCURVE",
"150 49 CURVE SMOOTH",
"157 14 OFFCURVE",
"184 1 OFFCURVE",
"212 1 CURVE SMOOTH",
"258 1 OFFCURVE",
"339 97 OFFCURVE",
"419 148 CURVE SMOOTH",
"520 215 OFFCURVE",
"564 220 OFFCURVE",
"609 220 CURVE SMOOTH",
"642 220 OFFCURVE",
"667 195 OFFCURVE",
"667 173 CURVE SMOOTH",
"667 127 OFFCURVE",
"617 77 OFFCURVE",
"535 77 CURVE SMOOTH",
"502 77 OFFCURVE",
"486 50 OFFCURVE",
"486 29 CURVE SMOOTH",
"486 0 OFFCURVE",
"511 -25 OFFCURVE",
"536 -25 CURVE SMOOTH"
);
},
{
closed = 1;
nodes = (
"410 -75 OFFCURVE",
"456 -47 OFFCURVE",
"459 20 CURVE SMOOTH",
"468 200 OFFCURVE",
"455 408 OFFCURVE",
"442 536 CURVE",
"434 563 OFFCURVE",
"391 580 OFFCURVE",
"363 572 CURVE SMOOTH",
"336 563 OFFCURVE",
"322 542 OFFCURVE",
"325 515 CURVE SMOOTH",
"343 366 OFFCURVE",
"365 94 OFFCURVE",
"348 -27 CURVE",
"399 -27 LINE",
"372 22 OFFCURVE",
"313 57 OFFCURVE",
"265 78 CURVE SMOOTH",
"241 88 OFFCURVE",
"224 90 OFFCURVE",
"217 71 CURVE SMOOTH",
"212 54 OFFCURVE",
"209 41 OFFCURVE",
"232 24 CURVE SMOOTH",
"262 -1 OFFCURVE",
"276 -14 OFFCURVE",
"291 -34 CURVE SMOOTH",
"309 -58 OFFCURVE",
"343 -75 OFFCURVE",
"368 -75 CURVE SMOOTH"
);
},
{
closed = 1;
nodes = (
"354 271 OFFCURVE",
"458 319 OFFCURVE",
"494 337 CURVE SMOOTH",
"528 353 OFFCURVE",
"542 390 OFFCURVE",
"529 416 CURVE SMOOTH",
"516 440 OFFCURVE",
"479 461 OFFCURVE",
"456 446 CURVE SMOOTH",
"388 404 OFFCURVE",
"299 373 OFFCURVE",
"226 388 CURVE SMOOTH",
"196 394 OFFCURVE",
"167 367 OFFCURVE",
"161 340 CURVE SMOOTH",
"156 315 OFFCURVE",
"171 282 OFFCURVE",
"200 271 CURVE SMOOTH",
"219 264 OFFCURVE",
"245 265 OFFCURVE",
"262 266 CURVE SMOOTH"
);
},
{
closed = 1;
nodes = (
"847 262 OFFCURVE",
"868 283 OFFCURVE",
"868 311 CURVE SMOOTH",
"869 382 OFFCURVE",
"801 446 OFFCURVE",
"709 454 CURVE SMOOTH",
"686 456 OFFCURVE",
"659 431 OFFCURVE",
"658 409 CURVE SMOOTH",
"657 385 OFFCURVE",
"677 368 OFFCURVE",
"699 361 CURVE SMOOTH",
"726 352 OFFCURVE",
"752 332 OFFCURVE",
"760 311 CURVE SMOOTH",
"770 284 OFFCURVE",
"791 262 OFFCURVE",
"814 262 CURVE SMOOTH"
);
}
);
width = 1000;
}
);
unicode = 3049;
},
{
glyphname = "ka-hira";
layers = (
{
layerId = "F0262224-B9C7-46EB-9294-168F9DBDA589";
paths = (
{
closed = 1;
nodes = (
"171 57 OFFCURVE",
"178 60 OFFCURVE",
"182 65 CURVE SMOOTH",
"309 223 OFFCURVE",
"376 420 OFFCURVE",
"416 553 CURVE SMOOTH",
"452 674 OFFCURVE",
"412 727 OFFCURVE",
"371 749 CURVE SMOOTH",
"360 755 OFFCURVE",
"348 752 OFFCURVE",
"342 741 CURVE",
"336 731 OFFCURVE",
"340 718 OFFCURVE",
"350 712 CURVE SMOOTH",
"388 689 OFFCURVE",
"398 641 OFFCURVE",
"376 566 CURVE SMOOTH",
"338 436 OFFCURVE",
"261 252 OFFCURVE",
"148 91 CURVE SMOOTH",
"141 81 OFFCURVE",
"143 68 OFFCURVE",
"152 61 CURVE SMOOTH",
"156 58 OFFCURVE",
"161 57 OFFCURVE",
"165 57 CURVE SMOOTH"
);
},
{
closed = 1;
nodes = (
"494 107 OFFCURVE",
"555 241 OFFCURVE",
"557 349 CURVE SMOOTH",
"559 455 OFFCURVE",
"527 524 OFFCURVE",
"439 531 CURVE SMOOTH",
"387 535 OFFCURVE",
"329 512 OFFCURVE",
"261 485 CURVE SMOOTH",
"223 470 OFFCURVE",
"171 460 OFFCURVE",
"136 473 CURVE SMOOTH",
"125 477 OFFCURVE",
"113 472 OFFCURVE",
"109 461 CURVE SMOOTH",
"104 450 OFFCURVE",
"110 438 OFFCURVE",
"120 434 CURVE SMOOTH",
"178 411 OFFCURVE",
"255 437 OFFCURVE",
"277 446 CURVE SMOOTH",
"341 472 OFFCURVE",
"396 491 OFFCURVE",
"441 489 CURVE SMOOTH",
"500 486 OFFCURVE",
"516 417 OFFCURVE",
"514 345 CURVE SMOOTH",
"512 279 OFFCURVE",
"464 149 OFFCURVE",
"410 149 CURVE SMOOTH",
"400 149 OFFCURVE",
"391 153 OFFCURVE",
"382 163 CURVE SMOOTH",
"366 180 OFFCURVE",
"334 211 OFFCURVE",
"295 222 CURVE SMOOTH",
"284 225 OFFCURVE",
"272 220 OFFCURVE",
"268 209 CURVE SMOOTH",
"265 197 OFFCURVE",
"271 185 OFFCURVE",
"282 182 CURVE SMOOTH",
"313 172 OFFCURVE",
"340 145 OFFCURVE",
"350 134 CURVE SMOOTH",
"367 116 OFFCURVE",
"386 107 OFFCURVE",
"407 107 CURVE SMOOTH"
);
},
{
closed = 1;
nodes = (
"887 413 OFFCURVE",
"901 421 OFFCURVE",
"900 436 CURVE SMOOTH",
"897 482 OFFCURVE",
"868 593 OFFCURVE",
"691 593 CURVE SMOOTH",
"680 593 OFFCURVE",
"670 584 OFFCURVE",
"670 573 CURVE SMOOTH",
"670 561 OFFCURVE",
"679 551 OFFCURVE",
"690 551 CURVE SMOOTH",
"776 551 OFFCURVE",
"825 514 OFFCURVE",
"845 482 CURVE",
"853 488 LINE",
"839 492 OFFCURVE",
"810 498 OFFCURVE",
"786 494 CURVE SMOOTH",
"775 492 OFFCURVE",
"767 481 OFFCURVE",
"769 469 CURVE SMOOTH",
"771 458 OFFCURVE",
"782 450 OFFCURVE",
"793 452 CURVE SMOOTH",
"840 461 OFFCURVE",
"853 444 OFFCURVE",
"859 427 CURVE SMOOTH",
"862 419 OFFCURVE",
"870 413 OFFCURVE",
"879 413 CURVE SMOOTH"
);
}
);
width = 1000;
},
{
layerId = "2E7D65B2-411D-4607-BF7C-7C0096008F1D";
paths = (
{
closed = 1;
nodes = (
"183 23 OFFCURVE",
"210 28 OFFCURVE",
"224 47 CURVE SMOOTH",
"337 200 OFFCURVE",
"421 413 OFFCURVE",
"461 545 CURVE SMOOTH",
"494 656 OFFCURVE",
"470 738 OFFCURVE",
"402 774 CURVE SMOOTH",
"376 788 OFFCURVE",
"337 788 OFFCURVE",
"312 755 CURVE SMOOTH",
"297 736 OFFCURVE",
"299 697 OFFCURVE",
"317 680 CURVE SMOOTH",
"341 658 OFFCURVE",
"347 613 OFFCURVE",
"329 555 CURVE SMOOTH",
"287 411 OFFCURVE",
"222 275 OFFCURVE",
"112 130 CURVE SMOOTH",
"90 101 OFFCURVE",
"101 53 OFFCURVE",
"126 34 CURVE SMOOTH",
"138 25 OFFCURVE",
"153 23 OFFCURVE",
"165 23 CURVE SMOOTH"
);
},
{
closed = 1;
nodes = (
"510 78 OFFCURVE",
"601 193 OFFCURVE",
"601 339 CURVE SMOOTH",
"601 500 OFFCURVE",
"545 569 OFFCURVE",
"442 569 CURVE SMOOTH",
"380 569 OFFCURVE",
"314 552 OFFCURVE",
"248 526 CURVE SMOOTH",
"208 510 OFFCURVE",
"174 510 OFFCURVE",
"148 514 CURVE SMOOTH",
"120 518 OFFCURVE",
"86 520 OFFCURVE",
"68 489 CURVE SMOOTH",
"50 459 OFFCURVE",
"67 414 OFFCURVE",
"95 400 CURVE SMOOTH",
"169 364 OFFCURVE",
"256 396 OFFCURVE",
"334 431 CURVE SMOOTH",
"383 451 OFFCURVE",
"397 451 OFFCURVE",
"426 451 CURVE SMOOTH",
"454 451 OFFCURVE",
"466 429 OFFCURVE",
"464 346 CURVE SMOOTH",
"462 268 OFFCURVE",
"432 210 OFFCURVE",
"404 210 CURVE SMOOTH",
"387 210 OFFCURVE",
"367 226 OFFCURVE",
"352 234 CURVE SMOOTH",
"338 241 OFFCURVE",
"322 251 OFFCURVE",
"293 252 CURVE SMOOTH",
"262 253 OFFCURVE",
"245 229 OFFCURVE",
"242 210 CURVE SMOOTH",
"238 188 OFFCURVE",
"248 172 OFFCURVE",
"272 162 CURVE SMOOTH",
"285 157 OFFCURVE",
"305 135 OFFCURVE",
"325 115 CURVE SMOOTH",
"347 92 OFFCURVE",
"377 78 OFFCURVE",
"407 78 CURVE SMOOTH"
);
},
{
closed = 1;
nodes = (
"895 388 OFFCURVE",
"936 413 OFFCURVE",
"936 460 CURVE SMOOTH",
"936 563 OFFCURVE",
"795 644 OFFCURVE",
"697 644 CURVE SMOOTH",
"660 644 OFFCURVE",
"636 615 OFFCURVE",
"636 588 CURVE SMOOTH",
"636 555 OFFCURVE",
"656 528 OFFCURVE",
"690 524 CURVE SMOOTH",
"737 518 OFFCURVE",
"801 497 OFFCURVE",
"835 460 CURVE",
"865 484 LINE",
"825 491 OFFCURVE",
"777 495 OFFCURVE",
"750 489 CURVE SMOOTH",
"737 486 OFFCURVE",
"727 472 OFFCURVE",
"730 456 CURVE SMOOTH",
"733 439 OFFCURVE",
"748 427 OFFCURVE",
"772 424 CURVE SMOOTH",
"786 422 OFFCURVE",
"805 413 OFFCURVE",
"813 409 CURVE SMOOTH",
"831 400 OFFCURVE",
"846 388 OFFCURVE",
"866 388 CURVE SMOOTH"
);
}
);
width = 1000;
}
);
unicode = 304B;
},
{
glyphname = "ki-hira";
layers = (
{
anchors = (
{
name = LSB;
position = "{110, 317}";
},
{
name = RSB;
position = "{896, 389}";
}
);
layerId = "F0262224-B9C7-46EB-9294-168F9DBDA589";
paths = (
{
closed = 1;
nodes = (
"716 219 OFFCURVE",
"725 227 OFFCURVE",
"726 237 CURVE SMOOTH",
"732 290 OFFCURVE",
"584 511 OFFCURVE",
"473 689 CURVE SMOOTH",
"437 746 OFFCURVE",
"371 794 OFFCURVE",
"306 812 CURVE SMOOTH",
"295 815 OFFCURVE",
"283 808 OFFCURVE",
"281 796 CURVE",
"278 785 OFFCURVE",
"285 773 OFFCURVE",
"296 771 CURVE",
"350 758 OFFCURVE",
"405 714 OFFCURVE",
"436 667 CURVE SMOOTH",
"542 504 OFFCURVE",
"632 354 OFFCURVE",
"673 269 CURVE",
"682 271 LINE",
"652 279 OFFCURVE",
"610 281 OFFCURVE",
"579 281 CURVE SMOOTH",
"567 281 OFFCURVE",
"558 271 OFFCURVE",
"558 259 CURVE SMOOTH",
"558 247 OFFCURVE",
"568 238 OFFCURVE",
"580 239 CURVE SMOOTH",
"627 243 OFFCURVE",
"678 233 OFFCURVE",
"694 222 CURVE SMOOTH",
"697 220 OFFCURVE",
"701 219 OFFCURVE",
"705 219 CURVE SMOOTH"
);
},
{
closed = 1;
nodes = (
"554 -9 OFFCURVE",
"579 -7 OFFCURVE",
"604 -3 CURVE SMOOTH",
"616 -1 OFFCURVE",
"624 10 OFFCURVE",
"622 21 CURVE SMOOTH",
"620 33 OFFCURVE",
"609 41 OFFCURVE",
"598 39 CURVE SMOOTH",
"508 23 OFFCURVE",
"432 40 OFFCURVE",
"385 77 CURVE SMOOTH",
"360 97 OFFCURVE",
"347 125 OFFCURVE",
"347 153 CURVE SMOOTH",
"347 165 OFFCURVE",
"338 175 OFFCURVE",
"326 175 CURVE SMOOTH",
"315 175 OFFCURVE",
"305 165 OFFCURVE",
"305 153 CURVE SMOOTH",
"305 112 OFFCURVE",
"324 74 OFFCURVE",
"358 45 CURVE SMOOTH",
"400 10 OFFCURVE",
"459 -9 OFFCURVE",
"530 -9 CURVE SMOOTH"
);
},
{
closed = 1;
nodes = (
"293 283 OFFCURVE",
"297 283 OFFCURVE",
"300 285 CURVE",
"446 366 OFFCURVE",
"591 407 OFFCURVE",
"719 395 CURVE SMOOTH",
"730 394 OFFCURVE",
"740 403 OFFCURVE",
"741 415 CURVE SMOOTH",
"742 426 OFFCURVE",
"733 436 OFFCURVE",
"721 437 CURVE SMOOTH",
"586 448 OFFCURVE",
"433 407 OFFCURVE",
"280 323 CURVE SMOOTH",
"269 317 OFFCURVE",
"266 304 OFFCURVE",
"271 294 CURVE",
"275 287 OFFCURVE",
"282 283 OFFCURVE",
"290 283 CURVE SMOOTH"
);
},
{
closed = 1;
nodes = (
"460 539 OFFCURVE",
"544 556 OFFCURVE",
"585 584 CURVE",
"595 590 OFFCURVE",
"598 603 OFFCURVE",
"591 613 CURVE",
"585 623 OFFCURVE",
"572 626 OFFCURVE",
"562 619 CURVE SMOOTH",
"517 588 OFFCURVE",
"392 570 OFFCURVE",
"345 587 CURVE SMOOTH",
"334 591 OFFCURVE",
"322 585 OFFCURVE",
"318 574 CURVE SMOOTH",
"314 563 OFFCURVE",
"320 551 OFFCURVE",
"331 547 CURVE SMOOTH",
"347 541 OFFCURVE",
"370 539 OFFCURVE",
"395 539 CURVE SMOOTH"
);
}
);
width = 1000;
},
{
anchors = (
{
name = LSB;
position = "{127, 440}";
},
{
name = RSB;
position = "{887, 396}";
}
);
layerId = "2E7D65B2-411D-4607-BF7C-7C0096008F1D";
paths = (
{
closed = 1;
nodes = (
"724 184 OFFCURVE",
"758 205 OFFCURVE",
"758 251 CURVE SMOOTH",
"758 305 OFFCURVE",
"584 587 OFFCURVE",
"506 697 CURVE SMOOTH",
"458 771 OFFCURVE",
"381 819 OFFCURVE",
"326 831 CURVE SMOOTH",
"288 839 OFFCURVE",
"254 820 OFFCURVE",
"248 794 CURVE SMOOTH",
"240 760 OFFCURVE",
"249 722 OFFCURVE",
"293 708 CURVE SMOOTH",
"330 696 OFFCURVE",
"371 669 OFFCURVE",
"393 638 CURVE SMOOTH",
"510 472 OFFCURVE",
"602 310 OFFCURVE",
"630 250 CURVE",
"696 271 LINE",
"656 283 OFFCURVE",
"606 285 OFFCURVE",
"575 285 CURVE SMOOTH",
"549 285 OFFCURVE",
"535 275 OFFCURVE",
"535 257 CURVE SMOOTH",
"535 241 OFFCURVE",
"543 230 OFFCURVE",
"566 224 CURVE SMOOTH",
"602 215 OFFCURVE",
"626 203 OFFCURVE",
"648 195 CURVE SMOOTH",
"660 191 OFFCURVE",
"680 184 OFFCURVE",
"696 184 CURVE SMOOTH"
);
},
{
closed = 1;
nodes = (
"556 -35 OFFCURVE",
"583 -33 OFFCURVE",
"610 -29 CURVE SMOOTH",
"640 -25 OFFCURVE",
"669 4 OFFCURVE",
"660 48 CURVE SMOOTH",
"654 76 OFFCURVE",
"623 102 OFFCURVE",
"585 96 CURVE SMOOTH",
"507 84 OFFCURVE",
"468 81 OFFCURVE",
"432 111 CURVE SMOOTH",
"420 121 OFFCURVE",
"405 136 OFFCURVE",
"398 153 CURVE SMOOTH",
"389 175 OFFCURVE",
"366 201 OFFCURVE",
"332 201 CURVE SMOOTH",
"305 201 OFFCURVE",
"275 179 OFFCURVE",
"275 136 CURVE SMOOTH",
"275 91 OFFCURVE",
"298 58 OFFCURVE",
"336 26 CURVE SMOOTH",
"383 -13 OFFCURVE",
"454 -35 OFFCURVE",
"530 -35 CURVE SMOOTH"
);
},
{
closed = 1;
nodes = (
"309 255 OFFCURVE",
"329 261 OFFCURVE",
"336 265 CURVE SMOOTH",
"482 349 OFFCURVE",
"610 366 OFFCURVE",
"727 356 CURVE SMOOTH",
"756 354 OFFCURVE",
"785 370 OFFCURVE",
"791 412 CURVE SMOOTH",
"796 445 OFFCURVE",
"765 477 OFFCURVE",
"735 480 CURVE SMOOTH",
"587 494 OFFCURVE",
"415 453 OFFCURVE",
"266 371 CURVE SMOOTH",
"239 356 OFFCURVE",
"222 321 OFFCURVE",
"236 291 CURVE SMOOTH",
"248 265 OFFCURVE",
"277 255 OFFCURVE",
"298 255 CURVE SMOOTH"
);
},
{
closed = 1;
nodes = (
"485 495 OFFCURVE",
"593 533 OFFCURVE",
"636 558 CURVE SMOOTH",
"663 574 OFFCURVE",
"669 616 OFFCURVE",
"652 642 CURVE SMOOTH",
"638 664 OFFCURVE",
"600 676 OFFCURVE",
"569 662 CURVE SMOOTH",
"530 645 OFFCURVE",
"418 618 OFFCURVE",
"369 625 CURVE SMOOTH",
"342 629 OFFCURVE",
"309 621 OFFCURVE",
"297 592 CURVE SMOOTH",
"283 558 OFFCURVE",
"303 515 OFFCURVE",
"333 504 CURVE SMOOTH",
"350 498 OFFCURVE",
"376 495 OFFCURVE",
"408 495 CURVE SMOOTH"
);
}
);
width = 1000;
}
);
unicode = 304D;
},
{
glyphname = "ku-hira";
layers = (
{
anchors = (
{
name = LSB;
position = "{187, 370}";
},
{
name = RSB;
position = "{777, -54}";
}
);
layerId = "F0262224-B9C7-46EB-9294-168F9DBDA589";
paths = (
{
closed = 1;
nodes = (
"618 -75 OFFCURVE",
"627 -66 OFFCURVE",
"627 -54 CURVE SMOOTH",
"627 31 OFFCURVE",
"546 139 OFFCURVE",
"472 234 CURVE SMOOTH",
"430 288 OFFCURVE",
"385 351 OFFCURVE",
"385 379 CURVE SMOOTH",
"385 421 OFFCURVE",
"425 478 OFFCURVE",
"466 547 CURVE SMOOTH",
"515 630 OFFCURVE",
"568 717 OFFCURVE",
"580 776 CURVE",
"582 788 OFFCURVE",
"575 799 OFFCURVE",
"563 801 CURVE",
"552 804 OFFCURVE",
"541 796 OFFCURVE",
"538 785 CURVE",
"528 733 OFFCURVE",
"475 645 OFFCURVE",
"429 568 CURVE SMOOTH",
"382 489 OFFCURVE",
"338 428 OFFCURVE",
"338 383 CURVE SMOOTH",
"338 338 OFFCURVE",
"372 295 OFFCURVE",
"438 208 CURVE SMOOTH",
"503 123 OFFCURVE",
"585 17 OFFCURVE",
"585 -54 CURVE SMOOTH",
"585 -66 OFFCURVE",
"594 -75 OFFCURVE",
"606 -75 CURVE SMOOTH"
);
}
);
width = 1000;
},
{
anchors = (
{
name = LSB;
position = "{147, 440}";
},
{
name = RSB;
position = "{811, -54}";
}
);
layerId = "2E7D65B2-411D-4607-BF7C-7C0096008F1D";
paths = (
{
closed = 1;
nodes = (
"652 -94 OFFCURVE",
"689 -61 OFFCURVE",
"689 -15 CURVE SMOOTH",
"689 78 OFFCURVE",
"609 156 OFFCURVE",
"533 252 CURVE SMOOTH",
"483 315 OFFCURVE",
"447 363 OFFCURVE",
"447 379 CURVE SMOOTH",
"447 414 OFFCURVE",
"471 444 OFFCURVE",
"524 532 CURVE SMOOTH",
"574 617 OFFCURVE",
"615 678 OFFCURVE",
"635 739 CURVE SMOOTH",
"652 792 OFFCURVE",
"607 829 OFFCURVE",
"565 829 CURVE SMOOTH",
"528 829 OFFCURVE",
"508 804 OFFCURVE",
"493 771 CURVE SMOOTH",
"473 727 OFFCURVE",
"441 661 OFFCURVE",
"394 583 CURVE SMOOTH",
"332 479 OFFCURVE",
"299 431 OFFCURVE",
"299 383 CURVE SMOOTH",
"299 316 OFFCURVE",
"339 279 OFFCURVE",
"406 190 CURVE SMOOTH",
"470 107 OFFCURVE",
"533 37 OFFCURVE",
"540 -24 CURVE SMOOTH",
"545 -66 OFFCURVE",
"575 -94 OFFCURVE",
"622 -94 CURVE SMOOTH"
);
}
);
width = 1000;
}
);
unicode = 304F;
},
{
glyphname = "ke-hira";
layers = (
{
anchors = (
{
name = LSB;
position = "{84, 370}";
},
{
name = RSB;
position = "{970, 672}";
}
);
layerId = "F0262224-B9C7-46EB-9294-168F9DBDA589";
paths = (
{
closed = 1;
nodes = (
"438 -46 OFFCURVE",
"442 -45 OFFCURVE",
"446 -43 CURVE",
"597 57 OFFCURVE",
"686 196 OFFCURVE",
"686 330 CURVE SMOOTH",
"686 467 OFFCURVE",
"667 688 OFFCURVE",
"647 785 CURVE SMOOTH",
"645 796 OFFCURVE",
"635 805 OFFCURVE",
"623 803 CURVE SMOOTH",
"612 801 OFFCURVE",
"603 790 OFFCURVE",
"605 779 CURVE SMOOTH",
"625 683 OFFCURVE",
"644 467 OFFCURVE",
"644 335 CURVE SMOOTH",
"644 211 OFFCURVE",
"562 84 OFFCURVE",
"422 -7 CURVE",
"413 -12 OFFCURVE",
"410 -27 OFFCURVE",
"416 -36 CURVE",
"420 -43 OFFCURVE",
"428 -46 OFFCURVE",
"434 -46 CURVE SMOOTH"
);
},
{
closed = 1;
nodes = (
"301 196 OFFCURVE",
"308 205 OFFCURVE",
"309 211 CURVE SMOOTH",
"320 283 OFFCURVE",
"328 312 OFFCURVE",
"358 385 CURVE",
"363 395 OFFCURVE",
"357 408 OFFCURVE",
"347 412 CURVE SMOOTH",
"336 416 OFFCURVE",
"324 411 OFFCURVE",
"319 400 CURVE SMOOTH",
"297 348 OFFCURVE",
"289 318 OFFCURVE",
"276 255 CURVE",
"285 263 LINE",
"269 322 OFFCURVE",
"274 427 OFFCURVE",
"287 512 CURVE SMOOTH",
"304 617 OFFCURVE",
"299 691 OFFCURVE",
"272 736 CURVE",
"265 745 OFFCURVE",
"252 749 OFFCURVE",
"241 743 CURVE",
"233 737 OFFCURVE",
"229 723 OFFCURVE",
"235 713 CURVE",
"251 689 OFFCURVE",
"265 636 OFFCURVE",
"245 519 CURVE SMOOTH",
"231 427 OFFCURVE",
"213 262 OFFCURVE",
"273 200 CURVE",
"278 194 OFFCURVE",
"288 192 OFFCURVE",
"294 194 CURVE"
);
},
{
closed = 1;
nodes = (
"676 610 OFFCURVE",
"755 628 OFFCURVE",
"805 653 CURVE",
"816 659 OFFCURVE",
"820 672 OFFCURVE",
"815 682 CURVE",
"810 691 OFFCURVE",
"796 696 OFFCURVE",
"787 691 CURVE SMOOTH",
"715 654 OFFCURVE",
"575 637 OFFCURVE",
"509 670 CURVE",
"498 674 OFFCURVE",
"485 670 OFFCURVE",
"480 659 CURVE",
"475 649 OFFCURVE",
"479 636 OFFCURVE",
"491 631 CURVE",
"520 617 OFFCURVE",
"561 610 OFFCURVE",
"605 610 CURVE SMOOTH"
);
}
);
width = 1000;
},
{
anchors = (
{
name = LSB;
position = "{87, 440}";
},
{
name = RSB;
position = "{961, 649}";
}
);
layerId = "2E7D65B2-411D-4607-BF7C-7C0096008F1D";
paths = (
{
closed = 1;
nodes = (
"456 -83 OFFCURVE",
"476 -75 OFFCURVE",
"491 -65 CURVE SMOOTH",
"653 43 OFFCURVE",
"730 186 OFFCURVE",
"730 330 CURVE SMOOTH",
"730 467 OFFCURVE",
"708 682 OFFCURVE",
"691 776 CURVE SMOOTH",
"683 818 OFFCURVE",
"646 837 OFFCURVE",
"617 832 CURVE SMOOTH",
"586 826 OFFCURVE",
"549 798 OFFCURVE",
"555 748 CURVE SMOOTH",
"575 655 OFFCURVE",
"594 466 OFFCURVE",
"594 335 CURVE SMOOTH",
"594 220 OFFCURVE",
"536 126 OFFCURVE",
"409 51 CURVE SMOOTH",
"373 30 OFFCURVE",
"362 -7 OFFCURVE",
"377 -45 CURVE SMOOTH",
"382 -58 OFFCURVE",
"414 -83 OFFCURVE",
"435 -83 CURVE SMOOTH"
);
},
{
closed = 1;
nodes = (
"314 160 OFFCURVE",
"337 180 OFFCURVE",
"343 206 CURVE SMOOTH",
"357 268 OFFCURVE",
"364 322 OFFCURVE",
"382 373 CURVE SMOOTH",
"392 400 OFFCURVE",
"390 420 OFFCURVE",
"372 429 CURVE SMOOTH",
"354 436 OFFCURVE",
"336 428 OFFCURVE",
"321 409 CURVE SMOOTH",
"307 391 OFFCURVE",
"273 343 OFFCURVE",
"267 260 CURVE",
"307 237 LINE",
"282 307 OFFCURVE",
"296 416 OFFCURVE",
"311 513 CURVE SMOOTH",
"332 641 OFFCURVE",
"328 682 OFFCURVE",
"307 733 CURVE SMOOTH",
"292 769 OFFCURVE",
"235 774 OFFCURVE",
"211 759 CURVE SMOOTH",
"185 743 OFFCURVE",
"169 716 OFFCURVE",
"181 677 CURVE SMOOTH",
"192 642 OFFCURVE",
"195 586 OFFCURVE",
"185 524 CURVE SMOOTH",
"161 377 OFFCURVE",
"175 245 OFFCURVE",
"222 186 CURVE SMOOTH",
"238 166 OFFCURVE",
"267 160 OFFCURVE",
"285 160 CURVE SMOOTH"
);
},
{
closed = 1;
nodes = (
"680 552 OFFCURVE",
"767 571 OFFCURVE",
"821 599 CURVE SMOOTH",
"849 614 OFFCURVE",
"862 650 OFFCURVE",
"851 684 CURVE SMOOTH",
"841 716 OFFCURVE",
"800 724 OFFCURVE",
"761 710 CURVE SMOOTH",
"690 684 OFFCURVE",
"595 685 OFFCURVE",
"524 696 CURVE SMOOTH",
"492 701 OFFCURVE",
"460 692 OFFCURVE",
"449 659 CURVE SMOOTH",
"440 632 OFFCURVE",
"447 589 OFFCURVE",
"477 575 CURVE SMOOTH",
"507 561 OFFCURVE",
"555 552 OFFCURVE",
"605 552 CURVE SMOOTH"
);
}
);
width = 1000;
}
);
unicode = 3051;
},
{
glyphname = "ko-hira";
layers = (
{
anchors = (
{
name = LSB;
position = "{147, 370}";
},
{
name = RSB;
position = "{907, 106}";
}
);
layerId = "F0262224-B9C7-46EB-9294-168F9DBDA589";
paths = (
{
closed = 1;
nodes = (
"598 58 OFFCURVE",
"662 66 OFFCURVE",
"735 81 CURVE",
"747 84 OFFCURVE",
"754 95 OFFCURVE",
"751 107 CURVE",
"749 118 OFFCURVE",
"738 126 OFFCURVE",
"726 123 CURVE SMOOTH",
"511 69 OFFCURVE",
"415 111 OFFCURVE",
"374 148 CURVE SMOOTH",
"334 184 OFFCURVE",
"335 234 OFFCURVE",
"338 259 CURVE",
"340 271 OFFCURVE",
"332 282 OFFCURVE",
"320 283 CURVE",
"309 285 OFFCURVE",
"298 277 OFFCURVE",
"296 265 CURVE",
"292 231 OFFCURVE",
"291 166 OFFCURVE",
"346 117 CURVE SMOOTH",
"389 78 OFFCURVE",
"454 58 OFFCURVE",
"542 58 CURVE SMOOTH"
);
},
{
closed = 1;
nodes = (
"431 478 OFFCURVE",
"438 481 OFFCURVE",
"442 488 CURVE SMOOTH",
"457 515 OFFCURVE",
"504 557 OFFCURVE",
"637 597 CURVE SMOOTH",
"647 600 OFFCURVE",
"654 611 OFFCURVE",
"652 621 CURVE SMOOTH",
"650 632 OFFCURVE",
"640 639 OFFCURVE",
"630 638 CURVE",
"541 633 OFFCURVE",
"430 655 OFFCURVE",
"391 705 CURVE",
"384 715 OFFCURVE",
"370 716 OFFCURVE",
"361 709 CURVE SMOOTH",
"352 702 OFFCURVE",
"350 688 OFFCURVE",
"357 679 CURVE SMOOTH",
"396 628 OFFCURVE",
"473 607 OFFCURVE",
"542 599 CURVE",
"544 608 LINE",
"474 578 OFFCURVE",
"427 545 OFFCURVE",
"406 510 CURVE SMOOTH",
"400 500 OFFCURVE",
"403 487 OFFCURVE",
"413 481 CURVE",
"416 479 OFFCURVE",
"420 478 OFFCURVE",
"424 478 CURVE SMOOTH"
);
}
);
width = 1000;
},
{
anchors = (
{
name = LSB;
position = "{157, 440}";
},
{
name = RSB;
position = "{887, 306}";
}
);
layerId = "2E7D65B2-411D-4607-BF7C-7C0096008F1D";
paths = (
{
closed = 1;
nodes = (
"600 29 OFFCURVE",
"638 32 OFFCURVE",
"717 45 CURVE SMOOTH",
"767 53 OFFCURVE",
"793 92 OFFCURVE",
"784 144 CURVE SMOOTH",
"779 174 OFFCURVE",
"742 204 OFFCURVE",
"684 197 CURVE SMOOTH",
"548 180 OFFCURVE",
"467 176 OFFCURVE",
"428 191 CURVE SMOOTH",
"409 198 OFFCURVE",
"389 228 OFFCURVE",
"382 252 CURVE SMOOTH",
"375 276 OFFCURVE",
"347 295 OFFCURVE",
"319 297 CURVE SMOOTH",
"285 299 OFFCURVE",
"252 273 OFFCURVE",
"246 245 CURVE SMOOTH",
"232 179 OFFCURVE",
"267 128 OFFCURVE",
"315 88 CURVE SMOOTH",
"365 47 OFFCURVE",
"448 29 OFFCURVE",
"542 29 CURVE SMOOTH"
);
},
{
closed = 1;
nodes = (
"445 457 OFFCURVE",
"461 461 OFFCURVE",
"484 475 CURVE SMOOTH",
"520 496 OFFCURVE",
"599 526 OFFCURVE",
"648 542 CURVE SMOOTH",
"676 551 OFFCURVE",
"696 576 OFFCURVE",
"696 606 CURVE SMOOTH",
"696 649 OFFCURVE",
"663 673 OFFCURVE",
"618 673 CURVE SMOOTH",
"531 673 OFFCURVE",
"476 689 OFFCURVE",
"433 722 CURVE SMOOTH",
"405 744 OFFCURVE",
"359 749 OFFCURVE",
"335 732 CURVE SMOOTH",
"297 705 OFFCURVE",
"303 655 OFFCURVE",
"322 632 CURVE SMOOTH",
"374 570 OFFCURVE",
"476 561 OFFCURVE",
"548 561 CURVE",
"555 588 LINE",
"494 587 OFFCURVE",
"446 554 OFFCURVE",
"423 535 CURVE SMOOTH",
"406 521 OFFCURVE",
"397 505 OFFCURVE",
"397 489 CURVE SMOOTH",
"397 475 OFFCURVE",
"411 457 OFFCURVE",
"428 457 CURVE SMOOTH"
);
}
);
width = 1000;
}
);
unicode = 3053;
},
